<svg width="65" height="50" viewBox="0 0 65 50" fill="none" xmlns="http://www.w3.org/2000/svg">
<path d="M7.78416 39.5804C8.16824 39.5804 8.53325 39.6552 8.8801 39.8049C9.22695 39.9546 9.5275 40.1572 9.78082 40.4118C10.0342 40.6673 10.2357 40.9658 10.3846 41.308C10.5335 41.6503 10.6071 42.0144 10.6071 42.4004V47.1809C10.6071 47.5669 10.5326 47.9311 10.3846 48.2733C10.2357 48.6155 10.0342 48.9149 9.78082 49.1695C9.52659 49.4251 9.22604 49.6268 8.8801 49.7764C8.53325 49.9261 8.16733 50.0009 7.78416 50.0009H2.80568C2.4216 50.0009 2.05931 49.9261 1.71882 49.7764C1.37832 49.6268 1.0805 49.4251 0.827175 49.1695C0.572939 48.9149 0.372274 48.6155 0.223365 48.2733C0.0744548 47.9311 0 47.5669 0 47.1809V42.4004C0 42.0144 0.0744548 41.6503 0.223365 41.308C0.372274 40.9658 0.572939 40.6673 0.827175 40.4118C1.08141 40.1563 1.37832 39.9546 1.71882 39.8049C2.05931 39.6552 2.4216 39.5804 2.80568 39.5804H7.78507H7.78416ZM9.12163 42.4004C9.12163 42.0272 8.99178 41.7068 8.73119 41.4385C8.47151 41.1711 8.15553 41.037 7.78325 41.037H2.80568C2.43431 41.037 2.1147 41.1711 1.84866 41.4385C1.58171 41.7068 1.44915 42.0272 1.44915 42.4004V47.1809C1.44915 47.5541 1.58171 47.8754 1.84866 48.1428C2.1147 48.4111 2.43431 48.5444 2.80568 48.5444H7.78507C8.15644 48.5444 8.47242 48.4111 8.73301 48.1428C8.99269 47.8754 9.12344 47.5541 9.12344 47.1809V42.4004H9.12163Z" fill="url(#paint0_linear_23_2700)"/>
<path d="M21.384 48.5435C21.5947 48.5435 21.7681 48.6119 21.9043 48.7488C22.0405 48.8857 22.1086 49.06 22.1086 49.2717C22.1086 49.4707 22.0405 49.6423 21.9043 49.7856C21.7681 49.9288 21.5947 50 21.384 50H15.829C15.3832 50 14.9682 49.9161 14.5841 49.7481C14.2001 49.5802 13.8605 49.353 13.5654 49.0664C13.2703 48.7798 13.0378 48.444 12.869 48.0579C12.6992 47.6719 12.6147 47.2612 12.6147 46.8259V42.7363C12.6147 42.301 12.6992 41.893 12.869 41.5134C13.0378 41.1337 13.2703 40.8006 13.5654 40.514C13.8605 40.2274 14.2001 40.0002 14.5841 39.8323C14.9682 39.6643 15.3832 39.5804 15.829 39.5804H21.384C21.5947 39.5804 21.7681 39.6488 21.9043 39.7857C22.0405 39.9226 22.1086 40.0969 22.1086 40.3087C22.1086 40.5076 22.0405 40.6792 21.9043 40.8225C21.7681 40.9658 21.5947 41.037 21.384 41.037H15.829C15.5811 41.037 15.3523 41.0835 15.1416 41.1766C14.931 41.2697 14.7449 41.3947 14.5841 41.5499C14.4234 41.7059 14.2963 41.8857 14.2037 42.0911C14.1111 42.2964 14.0648 42.5173 14.0648 42.7536V46.8432C14.0648 47.0796 14.1111 47.3041 14.2037 47.5158C14.2963 47.7275 14.4234 47.911 14.5841 48.067C14.7449 48.2231 14.931 48.3445 15.1416 48.4312C15.3523 48.5188 15.5811 48.5617 15.829 48.5617H21.384V48.5435Z" fill="url(#paint1_linear_23_2700)"/>
<path d="M32.1591 39.804C32.2953 39.9409 32.3634 40.1152 32.3634 40.3269C32.3634 40.5259 32.2953 40.6975 32.1591 40.8407C32.0229 40.984 31.8494 41.0552 31.6388 41.0552H28.3873V49.2717C28.3873 49.4835 28.3156 49.6578 28.1739 49.7947C28.0314 49.9316 27.8607 50 27.6627 50C27.4521 50 27.2786 49.9316 27.1424 49.7947C27.0063 49.6578 26.9382 49.4835 26.9382 49.2717V41.0552H23.5568C23.3462 41.0552 23.1727 40.984 23.0365 40.8407C22.9003 40.6975 22.8322 40.5268 22.8322 40.3269C22.8322 40.1152 22.9003 39.9409 23.0365 39.804C23.1727 39.6671 23.3462 39.5986 23.5568 39.5986H31.6388C31.8494 39.5986 32.0229 39.6671 32.1591 39.804Z" fill="url(#paint2_linear_23_2700)"/>
<path d="M41.7084 48.9934C41.8074 49.2416 41.7792 49.4716 41.6249 49.6834C41.4696 49.8942 41.2689 50 41.0211 50C40.6987 50 40.4763 49.844 40.3519 49.5328L37.2121 41.3719C37.1131 41.1228 36.9397 40.9986 36.6918 40.9986C36.4321 40.9986 36.2523 41.1173 36.1533 41.3537L32.4006 49.5702C32.2772 49.844 32.0601 49.9809 31.7505 49.9809C31.4781 49.9809 31.2702 49.8723 31.1286 49.6551C30.986 49.4379 30.9706 49.2042 31.0822 48.956L34.835 40.7541C35.0084 40.3689 35.2626 40.0677 35.5968 39.8496C35.9309 39.6324 36.3086 39.5302 36.7299 39.5421C37.1512 39.5548 37.5253 39.6726 37.854 39.8962C38.1818 40.1198 38.4269 40.431 38.5877 40.828V40.8462L41.7456 48.9925H41.7084V48.9934Z" fill="url(#paint3_linear_23_2700)"/>
<path d="M36.4319 50C36.1467 50 35.9089 49.9006 35.7164 49.7016C35.5239 49.5026 35.4285 49.2599 35.4285 48.9733C35.4285 48.6867 35.5239 48.4476 35.7164 48.2541C35.9079 48.0616 36.1467 47.9648 36.4319 47.9648C36.717 47.9648 36.9549 48.0616 37.1473 48.2541C37.3389 48.4476 37.4352 48.6867 37.4352 48.9733C37.4352 49.2599 37.3389 49.5026 37.1473 49.7016C36.9549 49.9006 36.717 50 36.4319 50Z" fill="url(#paint4_linear_23_2700)"/>
<path d="M52.0659 39.4681C52.2738 39.4681 52.4481 39.5402 52.5889 39.6826C52.7296 39.8259 52.7995 40.0029 52.7995 40.2147V49.0847C52.7995 49.321 52.7196 49.5264 52.5607 49.7007C52.4018 49.875 52.1993 49.9745 51.9551 49.9991C51.8207 49.9991 51.6881 49.9708 51.5601 49.9152C51.4312 49.8595 51.324 49.7755 51.2387 49.6633L44.792 41.6147V49.2526C44.792 49.4643 44.7203 49.6423 44.5786 49.7847C44.4361 49.9279 44.2599 49.9991 44.0493 49.9991C43.8513 49.9863 43.6833 49.9088 43.5471 49.7655C43.4109 49.6222 43.3428 49.4515 43.3428 49.2517V40.587C43.3428 40.2886 43.4509 40.0267 43.6679 39.8031C43.884 39.5786 44.1473 39.4672 44.4578 39.4672C44.8165 39.4672 45.108 39.6105 45.3313 39.8971L51.3504 47.441V40.1955C51.3504 39.9838 51.4203 39.8095 51.561 39.6726C51.7018 39.5357 51.8697 39.4672 52.0659 39.4672V39.4681Z" fill="url(#paint5_linear_23_2700)"/>
<path d="M56.218 42.5775C56.2298 42.9909 56.385 43.3414 56.6829 43.6298C56.9798 43.9182 57.333 44.0624 57.7416 44.0624H64.151V47.0412C64.151 47.451 64.0748 47.8352 63.9213 48.1957C63.7679 48.5553 63.5572 48.8693 63.2885 49.1358C63.0197 49.4022 62.7055 49.6131 62.3478 49.7682C61.9891 49.9234 61.606 50.0009 61.1974 50.0009H55.6423C55.4444 50.0009 55.2737 49.9307 55.1311 49.7892C54.9885 49.6477 54.9177 49.4789 54.9177 49.2818C54.9177 49.0728 54.9885 48.8976 55.1311 48.7561C55.2737 48.6146 55.4435 48.5444 55.6423 48.5444H61.1974C61.6187 48.5444 61.9746 48.3974 62.2651 48.1026C62.5557 47.8079 62.7019 47.4547 62.7019 47.0412V45.519H57.7597C57.3511 45.519 56.9634 45.4414 56.5984 45.2862C56.2334 45.1311 55.9138 44.9203 55.6414 44.6538C55.369 44.3873 55.152 44.0733 54.9913 43.7137C54.8306 43.3542 54.7497 42.969 54.7497 42.5593C54.7497 42.1495 54.8242 41.7653 54.9722 41.4057C55.1202 41.0452 55.3309 40.7294 55.6023 40.4565C55.8738 40.1836 56.1889 39.9692 56.5476 39.814C56.9062 39.6589 57.2894 39.5813 57.6971 39.5813H63.4265C63.6362 39.5813 63.8096 39.6525 63.9458 39.793C64.082 39.9345 64.1501 40.1097 64.1501 40.3187C64.1501 40.5149 64.082 40.6847 63.9458 40.8261C63.8096 40.9676 63.6362 41.0379 63.4256 41.0379H57.6844C57.4737 41.0379 57.2785 41.0789 57.0987 41.1602C56.9189 41.2414 56.7609 41.3509 56.6247 41.4887C56.4885 41.6265 56.3832 41.789 56.3088 41.977C56.2343 42.165 56.1971 42.3594 56.1971 42.5593L56.2161 42.5784L56.218 42.5775Z" fill="url(#paint6_linear_23_2700)"/>
<path d="M36.7515 1.22842C36.362 0.989305 35.9525 0.785786 35.5239 0.617859C34.4806 0.206257 33.4165 0 32.3333 0C31.25 0 30.1795 0.212646 29.1226 0.637937C28.0648 1.06232 27.1269 1.68656 26.3088 2.50977L15.6881 13.185C15.4602 13.414 15.2468 13.6522 15.0516 13.8996C14.5422 14.5384 14.14 15.2357 13.8458 15.9941C13.4354 17.0436 13.2311 18.1123 13.2311 19.2002C13.2311 20.289 13.4363 21.3586 13.8458 22.4063C14.2562 23.4558 14.8691 24.3913 15.6881 25.2145L25.833 35.4115C26.3151 35.8961 26.8363 36.3095 27.3974 36.6499C27.7888 36.8909 28.1983 37.0953 28.626 37.2641C29.6692 37.6766 30.7334 37.882 31.8157 37.882C32.8989 37.882 33.9622 37.6766 35.0055 37.2641C36.0487 36.8534 36.9803 36.2356 37.7993 35.4124L48.42 24.7372C48.6579 24.4981 48.8786 24.248 49.0829 23.9897C49.5823 23.3564 49.9818 22.6637 50.2814 21.9098C50.7045 20.8475 50.9161 19.7724 50.9161 18.6827C50.9161 17.5948 50.7118 16.5252 50.3014 15.4766C49.8928 14.4271 49.2781 13.4916 48.4591 12.6675L38.3178 2.46961C37.8347 1.98409 37.3127 1.56975 36.7515 1.22842ZM45.292 15.8535C46.0847 16.6503 46.4888 17.6131 46.5015 18.742C46.5142 19.871 46.1247 20.8329 45.332 21.6296L34.7113 32.3048C33.9186 33.1016 32.9543 33.5013 31.8184 33.5013C30.6825 33.5013 29.7183 33.1016 28.9256 32.3048L18.7807 22.1079C17.988 21.3111 17.5912 20.3428 17.5903 19.2002C17.5903 18.0585 17.988 17.0892 18.7807 16.2925L29.4014 5.61732C30.194 4.82058 31.1511 4.42814 32.2742 4.44183C33.3983 4.45552 34.3553 4.86074 35.148 5.65747L45.2929 15.8544L45.292 15.8535Z" fill="url(#paint7_linear_23_2700)"/>
<path d="M34.5568 17.0965C34.8364 17.7153 35.0725 18.3423 35.265 18.9747C35.3712 19.316 34.88 19.4986 34.7384 19.1709C34.7166 19.1216 34.6948 19.0733 34.673 19.024C34.2181 18.0119 33.6678 17.07 33.0359 16.2085C30.2166 13.5664 26.6319 12.1755 23.0063 12.0441C21.1177 11.9757 19.2182 12.2494 17.4113 12.8655C16.6032 13.1411 15.8132 13.4861 15.0505 13.8995C15.2457 13.6531 15.4591 13.414 15.687 13.1849L18.1204 10.739C18.7814 10.583 19.4515 10.4725 20.1252 10.4041C21.5717 10.259 23.0371 10.3137 24.4718 10.5693C25.2081 10.6989 25.9363 10.8832 26.65 11.1196C25.9945 10.8358 25.3207 10.5976 24.6325 10.4077C23.4494 10.0783 22.2263 9.88753 20.9878 9.84554C20.3087 9.82182 19.6249 9.84554 18.9412 9.91308L20.8643 7.9801C21.9648 8.01752 23.0553 8.17358 24.1167 8.44007C24.7551 8.59887 25.3816 8.79874 25.9954 9.03694C29.6682 10.4598 32.8171 13.2543 34.554 17.0956L34.5568 17.0965Z" fill="url(#paint8_linear_23_2700)"/>
<path d="M32.3042 16.2642C32.2552 16.2861 32.2071 16.308 32.158 16.3299C31.1511 16.7872 30.214 17.3402 29.3569 17.9754C26.6057 20.9406 25.2183 24.7482 25.2038 28.5648C25.1974 30.2943 25.4716 32.0256 26.031 33.6802C26.3787 34.7051 26.8327 35.7026 27.3984 36.6509C26.8372 36.3104 26.3161 35.897 25.8339 35.4124L24.0933 33.6629C23.8445 32.7749 23.6738 31.8659 23.5839 30.9514C23.4541 29.6463 23.485 28.3266 23.6756 27.0279C23.8064 26.1363 24.0134 25.2547 24.2958 24.3941C23.958 25.1817 23.6847 25.9967 23.4795 26.8308C23.218 27.8913 23.0655 28.9837 23.0292 30.0853C22.9992 30.9633 23.0446 31.8485 23.1663 32.7311L21.1632 30.7178C21.166 29.4391 21.323 28.1697 21.629 26.9394V26.9376C21.7562 26.4265 21.9069 25.9227 22.083 25.4272C23.4505 21.574 26.2888 18.2529 30.2404 16.4468C30.856 16.1657 31.4798 15.9284 32.109 15.7349C32.4486 15.6281 32.6302 16.1219 32.3042 16.2642Z" fill="url(#paint9_linear_23_2700)"/>
<path d="M49.0865 23.9888C48.8822 24.248 48.6616 24.4972 48.4237 24.7363L46.0303 27.142C45.3693 27.2981 44.6992 27.4085 44.0254 27.477C42.579 27.6221 41.1135 27.5673 39.6789 27.3118C38.9425 27.1822 38.2143 26.9978 37.5007 26.7614C38.1562 27.0453 38.8299 27.2835 39.5182 27.4733C40.7013 27.8028 41.9244 27.9935 43.1628 28.0355C43.842 28.0592 44.5257 28.0355 45.2094 27.968L43.2863 29.9009C42.1859 29.8635 41.0954 29.7075 40.0339 29.441C39.3956 29.2822 38.7691 29.0823 38.1553 28.8441C34.4825 27.4213 31.3336 24.6268 29.5966 20.7855C29.317 20.1667 29.0809 19.5397 28.8884 18.9072C28.7822 18.5659 29.2734 18.3834 29.415 18.711C29.4368 18.7603 29.4586 18.8087 29.4804 18.858C29.9353 19.8701 30.4856 20.8119 31.1175 21.6735C33.9368 24.3156 37.5215 25.7064 41.1471 25.8378C43.0357 25.9063 44.9352 25.6325 46.7421 25.0165C47.5448 24.7418 48.3311 24.4004 49.0893 23.9888H49.0865Z" fill="url(#paint10_linear_23_2700)"/>
<path d="M40.4548 10.9928C40.3241 11.837 40.1234 12.672 39.8556 13.4888C40.1761 12.7414 40.4385 11.9684 40.6392 11.178C40.9215 10.0774 41.085 8.94388 41.1231 7.7976C41.1531 6.91963 41.1077 6.03437 40.986 5.15185L42.989 7.16514C42.9863 8.44375 42.8292 9.71323 42.5232 10.9435V10.9453C42.387 11.4965 42.2209 12.0396 42.0275 12.5725C40.6446 16.3755 37.8235 19.6483 33.9119 21.4361C33.2963 21.7172 32.6725 21.9545 32.0433 22.148C31.7037 22.2548 31.5221 21.761 31.848 21.6187C31.8971 21.5968 31.9452 21.5749 31.9942 21.5529C33.0012 21.0957 33.9382 20.5427 34.7954 19.9075C37.5093 16.9833 38.8949 13.2388 38.9467 9.47595C38.9721 7.69356 38.6961 5.90843 38.1213 4.2027C37.7736 3.17597 37.3177 2.17845 36.7521 1.22839C37.3132 1.57063 37.8353 1.98406 38.3183 2.46959L40.059 4.21912C40.3077 5.10713 40.4784 6.01612 40.5683 6.93059C40.7027 8.2813 40.6655 9.64935 40.4548 10.9918V10.9928Z" fill="url(#paint11_linear_23_2700)"/>
<g style="mix-blend-mode:multiply" opacity="0.41">
<path d="M23.0075 12.0432L22.5672 12.4859C20.8938 12.4731 19.2013 12.7405 17.5596 13.2999C16.461 13.675 15.4132 14.1761 14.4334 14.7921C14.6187 14.4827 14.8239 14.1852 15.0518 13.8995C15.8145 13.4843 16.6044 13.1402 17.4125 12.8646C19.2194 12.2486 21.1189 11.9748 23.0075 12.0432Z" fill="#939598"/>
</g>
<g style="mix-blend-mode:multiply" opacity="0.41">
<path d="M25.2028 28.5639L25.6586 29.022C25.6986 30.5334 25.9637 32.052 26.4631 33.5314C26.8898 34.7918 27.4782 35.9873 28.2164 37.088C27.9349 36.9593 27.6625 36.8133 27.3992 36.6508C26.8336 35.7026 26.3777 34.7042 26.0309 33.6793C25.4716 32.0246 25.1974 30.2934 25.2037 28.5639H25.2028Z" fill="#939598"/>
</g>
<g style="mix-blend-mode:multiply" opacity="0.41">
<path d="M49.6966 23.1027C49.5132 23.4102 49.3098 23.7059 49.0855 23.9897C48.3273 24.4014 47.541 24.7436 46.7384 25.0174C44.9315 25.6334 43.032 25.9072 41.1434 25.8388L41.5837 25.3961C43.2572 25.4089 44.9496 25.1415 46.5913 24.5821C47.6809 24.2097 48.7223 23.7132 49.6966 23.1027Z" fill="#939598"/>
</g>
<g style="mix-blend-mode:multiply" opacity="0.41">
<path d="M36.7516 1.22843C37.3173 2.17849 37.7731 3.17601 38.1209 4.20273C38.6956 5.90755 38.9716 7.69359 38.9462 9.47598L38.4959 9.02331C38.4704 7.45904 38.2062 5.88382 37.6877 4.35149C37.261 3.09113 36.6735 1.89648 35.9353 0.795837C36.2168 0.92452 36.4883 1.06872 36.7516 1.22934V1.22843Z" fill="#939598"/>
</g>
<defs>
<linearGradient id="paint0_linear_23_2700" x1="70.5214" y1="44.3964" x2="1.04325" y2="44.8119" gradientUnits="userSpaceOnUse">
<stop stop-color="#059E86"/>
<stop offset="1" stop-color="#7FAB40"/>
</linearGradient>
<linearGradient id="paint1_linear_23_2700" x1="70.5215" y1="44.4767" x2="1.04332" y2="44.8923" gradientUnits="userSpaceOnUse">
<stop stop-color="#059E86"/>
<stop offset="1" stop-color="#7FAB40"/>
</linearGradient>
<linearGradient id="paint2_linear_23_2700" x1="70.5224" y1="44.5287" x2="1.04419" y2="44.9434" gradientUnits="userSpaceOnUse">
<stop stop-color="#059E86"/>
<stop offset="1" stop-color="#7FAB40"/>
</linearGradient>
<linearGradient id="paint3_linear_23_2700" x1="70.5224" y1="44.5799" x2="1.04423" y2="44.9954" gradientUnits="userSpaceOnUse">
<stop stop-color="#059E86"/>
<stop offset="1" stop-color="#7FAB40"/>
</linearGradient>
<linearGradient id="paint4_linear_23_2700" x1="70.5476" y1="48.7762" x2="1.0694" y2="49.1917" gradientUnits="userSpaceOnUse">
<stop stop-color="#059E86"/>
<stop offset="1" stop-color="#7FAB40"/>
</linearGradient>
<linearGradient id="paint5_linear_23_2700" x1="70.5225" y1="44.5999" x2="1.0443" y2="45.0146" gradientUnits="userSpaceOnUse">
<stop stop-color="#059E86"/>
<stop offset="1" stop-color="#7FAB40"/>
</linearGradient>
<linearGradient id="paint6_linear_23_2700" x1="70.5233" y1="44.7231" x2="1.04506" y2="45.1387" gradientUnits="userSpaceOnUse">
<stop stop-color="#059E86"/>
<stop offset="1" stop-color="#7FAB40"/>
</linearGradient>
<linearGradient id="paint7_linear_23_2700" x1="21.5437" y1="7.13048" x2="42.1067" y2="29.9551" gradientUnits="userSpaceOnUse">
<stop stop-color="#059E86"/>
<stop offset="1" stop-color="#7FAB40"/>
</linearGradient>
<linearGradient id="paint8_linear_23_2700" x1="19.4751" y1="8.99405" x2="40.0381" y2="31.8178" gradientUnits="userSpaceOnUse">
<stop stop-color="#059E86"/>
<stop offset="1" stop-color="#7FAB40"/>
</linearGradient>
<linearGradient id="paint9_linear_23_2700" x1="16.4699" y1="11.7019" x2="37.0329" y2="34.5257" gradientUnits="userSpaceOnUse">
<stop stop-color="#059E86"/>
<stop offset="1" stop-color="#7FAB40"/>
</linearGradient>
<linearGradient id="paint10_linear_23_2700" x1="23.6067" y1="5.27235" x2="44.1697" y2="28.0961" gradientUnits="userSpaceOnUse">
<stop stop-color="#059E86"/>
<stop offset="1" stop-color="#7FAB40"/>
</linearGradient>
<linearGradient id="paint11_linear_23_2700" x1="26.6162" y1="2.55994" x2="47.1792" y2="25.3837" gradientUnits="userSpaceOnUse">
<stop stop-color="#059E86"/>
<stop offset="1" stop-color="#7FAB40"/>
</linearGradient>
</defs>
</svg>
