<svg width="125" height="31" viewBox="0 0 125 31" fill="none" xmlns="http://www.w3.org/2000/svg">
<path d="M17.2459 3.92859L8.88709 29.6273C8.8094 29.8603 8.59188 30.0311 8.34329 30.0311H4.41246C4.02404 30.0311 3.74437 29.6429 3.86867 29.2702L12.1032 3.92859H17.2615H17.2459Z" fill="#11A64A"/>
<path d="M27.7179 16.7857H5.7176C5.54669 16.7857 5.39132 16.91 5.34471 17.0808L4.59894 19.5652C4.55233 19.736 4.67663 19.9224 4.86307 19.9379L26.4749 21.6305C26.739 21.646 26.9876 21.4907 27.0653 21.2267L28.2772 17.5311C28.4015 17.1584 28.1218 16.7702 27.7334 16.7702L27.7179 16.7857Z" fill="url(#paint0_linear_23_2768)"/>
<path d="M28.7743 2.11182L21.1457 25.4348C21.068 25.6677 20.8505 25.8385 20.6019 25.8385H16.6866C16.2982 25.8385 16.0185 25.4503 16.1428 25.0777L23.7404 1.75468C23.8181 1.52176 24.0356 1.35095 24.2842 1.35095H28.215C28.6034 1.35095 28.8831 1.73915 28.7588 2.11182H28.7743Z" fill="#11A64A"/>
<path d="M30.732 7.31366L6.13709 8.86645C5.93511 8.86645 5.74866 9.00621 5.65544 9.19254L4.50571 11.5528C4.36588 11.8323 4.56786 12.1584 4.8786 12.1584H29.5667C29.8153 12.1584 30.0328 12.0031 30.1105 11.7702L31.3069 8.09006C31.4312 7.70186 31.136 7.31366 30.7165 7.32919L30.732 7.31366Z" fill="url(#paint1_linear_23_2768)"/>
<path d="M17.8985 1.95655L13.8434 14.2547C13.7657 14.4876 13.5482 14.6584 13.2996 14.6584H9.38432C8.9959 14.6584 8.71623 14.2702 8.84053 13.8975L12.8801 1.59941C12.9578 1.36649 13.1753 1.19568 13.4239 1.19568H17.3548C17.7432 1.19568 18.0228 1.58388 17.8985 1.95655Z" fill="#11A64A"/>
<path d="M0.916677 19.5808L0.170906 19.5342C0.0776845 19.5342 0 19.4411 0 19.3324L0.217517 18.6181C0.24859 18.5404 0.310738 18.4473 0.419496 18.4473H1.16527C1.25849 18.4783 1.36725 18.556 1.33617 18.6647L1.10312 19.41C1.07205 19.5187 1.0099 19.5808 0.90114 19.5808H0.916677Z" fill="#375FA7"/>
<path d="M4.03961 17.8572H3.21616C3.1074 17.8572 3.02972 17.764 3.04525 17.6553L3.30938 16.9876C3.34045 16.91 3.4026 16.8013 3.51136 16.8168H4.30374C4.4125 16.8168 4.50572 16.91 4.47465 17.0187L4.24159 17.6864C4.21052 17.7951 4.14837 17.8727 4.03961 17.8572Z" fill="#375FA7"/>
<path d="M1.94212 17.8416H1.44494C1.44494 17.8416 1.32065 17.7795 1.33618 17.7174L1.49155 17.2205C1.49155 17.2205 1.5537 17.0963 1.61585 17.1118H2.12856C2.12856 17.1118 2.2684 17.1739 2.23732 17.236L2.08195 17.7329C2.08195 17.7329 2.01981 17.8572 1.95766 17.8416H1.94212Z" fill="#375FA7"/>
<path d="M3.41809 19.8137L2.08192 19.705C1.94209 19.705 1.78672 19.5963 1.83333 19.4566L2.1596 18.4628C2.22175 18.292 2.31497 18.2299 2.43927 18.2299H3.74437C3.8842 18.2299 4.02403 18.3386 3.99296 18.4628L3.66668 19.5653C3.62007 19.705 3.55792 19.8137 3.41809 19.8137Z" fill="#375FA7"/>
<path d="M42.1827 11.5062C41.5923 11.5062 41.033 11.4441 40.4892 11.3354C39.9454 11.2267 39.4327 11.0559 38.9821 10.8696C38.5315 10.6832 38.1587 10.4503 37.8635 10.2019L38.7491 8.57143C39.0598 8.81988 39.4016 9.03727 39.8056 9.2236C40.194 9.40994 40.6135 9.54969 41.0641 9.64286C41.4991 9.73603 41.9497 9.78261 42.4002 9.78261C42.944 9.78261 43.4101 9.7205 43.8141 9.59627C44.2181 9.47205 44.5288 9.28571 44.7463 9.0528C44.9638 8.81988 45.0726 8.54037 45.0726 8.21429C45.0726 7.91925 44.9794 7.67081 44.7618 7.48447C44.5599 7.29814 44.2957 7.14286 43.9539 7.01863C43.6277 6.89441 43.2548 6.78571 42.8508 6.66149C42.4468 6.5528 42.0429 6.42857 41.6389 6.27329C41.235 6.11801 40.8621 5.94721 40.5358 5.72981C40.2095 5.51242 39.9454 5.23292 39.7279 4.8913C39.5259 4.54969 39.4172 4.13043 39.4172 3.61801C39.4172 2.8882 39.6191 2.25155 40.0386 1.70807C40.4426 1.1646 41.0175 0.745342 41.7477 0.450311C42.4779 0.15528 43.3325 0 44.2957 0C45.026 0 45.7096 0.0776397 46.3621 0.232919C47.0147 0.388199 47.574 0.621118 48.0401 0.931677L47.2322 2.57764C46.8127 2.29814 46.3466 2.08075 45.8339 1.94099C45.3212 1.80124 44.7618 1.7236 44.2025 1.7236C43.6432 1.7236 43.1615 1.78571 42.7576 1.92547C42.3536 2.06522 42.0429 2.25155 41.8254 2.5C41.6079 2.74845 41.4991 3.02795 41.4991 3.35404C41.4991 3.6646 41.5923 3.91304 41.8098 4.09938C42.0118 4.28571 42.2759 4.44099 42.6022 4.56522C42.9285 4.68944 43.3014 4.81366 43.7053 4.92236C44.1093 5.03106 44.5133 5.15528 44.9172 5.29503C45.3212 5.43478 45.6785 5.60559 46.0203 5.82298C46.3621 6.04037 46.6263 6.30435 46.8438 6.63043C47.0458 6.95652 47.1545 7.36025 47.1545 7.85714C47.1545 8.58696 46.9526 9.2236 46.5331 9.76708C46.1136 10.3106 45.5542 10.7298 44.8085 11.0248C44.0627 11.3199 43.2082 11.4752 42.2138 11.4752L42.1827 11.5062Z" fill="#365EA8"/>
<path d="M48.615 4.50308L48.9413 2.9037H54.6122L54.286 4.50308H48.615ZM51.567 11.4751C51.0077 11.4751 50.5416 11.3509 50.1376 11.118C49.7336 10.8851 49.454 10.5435 49.2831 10.0931C49.1122 9.65836 49.0811 9.13041 49.1899 8.52482L50.6969 0.962708H52.7012L51.1786 8.50929C51.1164 8.89749 51.163 9.22358 51.3029 9.47202C51.4582 9.72047 51.7379 9.8447 52.1419 9.8447C52.3283 9.8447 52.5303 9.81364 52.7323 9.75153C52.9342 9.68942 53.1052 9.61178 53.2605 9.50308L53.6179 10.9627C53.3227 11.149 52.9964 11.2888 52.6235 11.3664C52.2662 11.4441 51.9088 11.4751 51.5515 11.4751H51.567Z" fill="#365EA8"/>
<path d="M58.6829 11.4596C57.9838 11.4596 57.3623 11.3044 56.7874 11.0093C56.2126 10.7143 55.762 10.2795 55.4357 9.72051C55.0939 9.16151 54.9385 8.4938 54.9385 7.70188C54.9385 6.98759 55.0628 6.31989 55.2959 5.7143C55.5289 5.10871 55.8708 4.58076 56.3058 4.13045C56.7408 3.68014 57.2535 3.33853 57.8284 3.09008C58.4033 2.84163 59.0403 2.71741 59.7394 2.71741C60.4386 2.71741 61.0756 2.84163 61.5883 3.10561C62.101 3.36958 62.4895 3.74225 62.7691 4.25467C63.0333 4.7671 63.1576 5.40374 63.142 6.18014C63.1265 7.23604 62.9245 8.15219 62.5672 8.94412C62.2098 9.73604 61.6971 10.3416 61.0601 10.7919C60.4075 11.2267 59.6307 11.4441 58.714 11.4441L58.6829 11.4596ZM59.1956 9.75157C59.7705 9.75157 60.2832 9.61182 60.7027 9.34784C61.1378 9.08387 61.4796 8.69567 61.7437 8.22983C61.9923 7.74846 62.1321 7.20498 62.1321 6.56834C62.1321 5.93169 61.9301 5.38821 61.5417 5.00002C61.1533 4.61182 60.594 4.42548 59.8793 4.42548C59.3199 4.42548 58.8072 4.56523 58.3722 4.82921C57.9216 5.09318 57.5798 5.48138 57.3312 5.94722C57.0826 6.42859 56.9428 6.97207 56.9428 7.60871C56.9428 8.24536 57.1448 8.78884 57.5332 9.17703C57.9216 9.56523 58.4809 9.75157 59.1956 9.75157ZM61.2931 11.3509L61.6816 9.40995L62.2253 7.14287L62.4895 4.86026L62.8934 2.84163H64.8821L63.1886 11.3509H61.2931Z" fill="#365EA8"/>
<path d="M66.0319 14.5497C65.6124 14.5497 65.1929 14.4876 64.7734 14.3478C64.3694 14.2081 64.0431 14.0218 63.7946 13.8044L64.7889 12.3603C64.9754 12.5156 65.1773 12.6553 65.3949 12.7485C65.6279 12.8416 65.892 12.9037 66.1872 12.9037C66.5135 12.9037 66.8087 12.8106 67.0728 12.6398C67.337 12.469 67.6011 12.1584 67.8652 11.7392L68.611 10.5746L68.7974 10.3727L73.4896 2.84164H75.4783L69.6054 12.0963C69.2169 12.7174 68.8285 13.1988 68.4712 13.5559C68.1138 13.9131 67.7409 14.177 67.3525 14.3168C66.9641 14.4721 66.5135 14.5342 66.0163 14.5342L66.0319 14.5497ZM68.2226 11.646L66.1251 2.82611H68.1138L69.7918 10.1708L68.207 11.646H68.2226Z" fill="#365EA8"/>
<path d="M40.0697 26.0093C38.9355 26.0093 37.9567 25.8075 37.1488 25.4037C36.3408 25 35.7194 24.441 35.2843 23.7267C34.8493 23.0124 34.6318 22.1895 34.6318 21.2423C34.6318 20.295 34.8027 19.41 35.1134 18.6025C35.4242 17.795 35.9058 17.0808 36.5117 16.4752C37.1177 15.8696 37.8479 15.3882 38.6869 15.0466C39.5259 14.705 40.4736 14.5342 41.5146 14.5342C42.4779 14.5342 43.3324 14.6895 44.0627 15.0155C44.7929 15.3416 45.3678 15.7919 45.7562 16.3975L44.2491 17.6553C43.9384 17.236 43.55 16.91 43.0683 16.6926C42.5867 16.4752 42.0273 16.351 41.3593 16.351C40.6446 16.351 40.0075 16.4752 39.4327 16.7236C38.8578 16.9721 38.3606 17.3137 37.9567 17.7485C37.5527 18.1988 37.242 18.6957 37.0245 19.2857C36.8069 19.8603 36.6982 20.4814 36.6982 21.1336C36.6982 21.7391 36.838 22.2671 37.1021 22.7485C37.3663 23.2143 37.7547 23.5714 38.2829 23.8354C38.8112 24.0994 39.4482 24.2236 40.194 24.2236C40.8155 24.2236 41.4059 24.1149 41.9341 23.8975C42.4779 23.6801 42.944 23.3541 43.3635 22.9193L44.5754 24.2236C44.0316 24.8447 43.3635 25.295 42.5867 25.5901C41.8098 25.8851 40.9553 26.0249 40.0231 26.0249L40.0697 26.0093Z" fill="#365EA8"/>
<path d="M49.7181 25.9627C48.8946 25.9627 48.1644 25.8075 47.5429 25.4969C46.9214 25.1863 46.4398 24.7516 46.098 24.1925C45.7562 23.6335 45.5853 22.9814 45.5853 22.2205C45.5853 21.2578 45.8028 20.4193 46.2378 19.6584C46.6728 18.8975 47.2788 18.323 48.0401 17.8882C48.8014 17.4534 49.6715 17.236 50.6503 17.236C51.4893 17.236 52.2195 17.3913 52.841 17.6863C53.4625 17.9969 53.9441 18.4161 54.2859 18.9752C54.6277 19.5342 54.7986 20.2019 54.7986 20.9627C54.7986 21.9099 54.5811 22.764 54.1461 23.5093C53.7111 24.2702 53.1051 24.8602 52.3438 25.295C51.5825 25.7298 50.7124 25.9472 49.7181 25.9472V25.9627ZM49.8424 24.2547C50.4172 24.2547 50.93 24.1149 51.365 23.8509C51.8 23.587 52.1418 23.1988 52.406 22.7329C52.6546 22.2516 52.7944 21.7081 52.7944 21.0714C52.7944 20.4348 52.5924 19.8913 52.204 19.5031C51.8156 19.1149 51.2562 18.9286 50.5415 18.9286C49.9822 18.9286 49.4695 19.0683 49.0345 19.3323C48.5994 19.5963 48.2421 19.9845 47.9935 20.4503C47.7449 20.9317 47.6051 21.4752 47.6051 22.1118C47.6051 22.7795 47.807 23.3075 48.1955 23.6801C48.5839 24.0528 49.1432 24.2391 49.8579 24.2391L49.8424 24.2547Z" fill="#365EA8"/>
<path d="M62.1321 17.2515C62.8623 17.2515 63.4838 17.4068 63.9965 17.7018C64.5092 17.9969 64.8666 18.4316 65.0686 19.0217C65.2705 19.5962 65.3016 20.3105 65.1307 21.149L64.183 25.8695H62.1942L63.1264 21.1956C63.2663 20.4969 63.2041 19.9689 62.94 19.5807C62.6759 19.1925 62.1942 19.0062 61.4795 19.0062C60.7648 19.0062 60.1434 19.208 59.6617 19.6118C59.1801 20.0155 58.8538 20.6366 58.6829 21.4596L57.7973 25.8695H55.793L57.4866 17.3602H59.3821L58.9004 19.7826L58.5741 19.0217C58.9781 18.4161 59.4908 17.9658 60.0968 17.6863C60.7027 17.4068 61.3863 17.2671 62.1165 17.2671L62.1321 17.2515Z" fill="#365EA8"/>
<path d="M73.0701 17.2515C73.8003 17.2515 74.4218 17.4068 74.9345 17.7018C75.4472 17.9969 75.8046 18.4316 76.0065 19.0217C76.2085 19.5962 76.2241 20.3105 76.0687 21.149L75.1209 25.8695H73.1167L74.0489 21.1956C74.1887 20.4969 74.1266 19.9689 73.8625 19.5807C73.5983 19.1925 73.1167 19.0062 72.4175 19.0062C71.7184 19.0062 71.0813 19.208 70.5997 19.6118C70.1181 20.0155 69.7918 20.6366 69.6209 21.4596L68.7197 25.8695H66.731L68.4245 17.3602H70.32L69.8384 19.7826L69.5121 19.0217C69.9161 18.4161 70.4288 17.9658 71.0347 17.6863C71.6407 17.4068 72.3243 17.2671 73.0545 17.2671L73.0701 17.2515Z" fill="#365EA8"/>
<path d="M81.9572 25.9627C81.1026 25.9627 80.3724 25.8074 79.7354 25.4969C79.1139 25.1863 78.6167 24.7515 78.2749 24.1925C77.9331 23.6335 77.7622 22.9813 77.7622 22.2205C77.7622 21.2577 77.9797 20.4037 78.3992 19.6584C78.8187 18.913 79.4091 18.323 80.1394 17.9037C80.8851 17.4689 81.7241 17.2515 82.6719 17.2515C83.4642 17.2515 84.1634 17.4068 84.7538 17.7018C85.3442 17.9969 85.7948 18.4316 86.1211 18.9907C86.4473 19.5497 86.6027 20.2174 86.6027 20.9938C86.6027 21.1956 86.6027 21.3975 86.5716 21.6149C86.5561 21.8323 86.525 22.0186 86.4784 22.2049H79.2537L79.4713 20.8851H85.5307L84.7227 21.3354C84.8004 20.7919 84.7693 20.3416 84.614 19.9844C84.4586 19.6273 84.1945 19.3478 83.8527 19.1615C83.5109 18.9751 83.0758 18.8664 82.5942 18.8664C82.0038 18.8664 81.5066 19.0062 81.0716 19.2702C80.6365 19.5497 80.3103 19.9223 80.0772 20.4192C79.8442 20.9161 79.7199 21.4907 79.7199 22.1428C79.7199 22.8416 79.9218 23.3695 80.3258 23.7422C80.7298 24.1149 81.3357 24.3012 82.1902 24.3012C82.6719 24.3012 83.1224 24.2236 83.5575 24.0683C83.9925 23.913 84.3499 23.6956 84.6451 23.4161L85.4685 24.7981C85.0179 25.1863 84.4897 25.4813 83.8837 25.6832C83.2778 25.8851 82.6408 25.9782 81.9727 25.9782L81.9572 25.9627Z" fill="#365EA8"/>
<path d="M91.8231 25.9627C90.9841 25.9627 90.2383 25.8075 89.6169 25.4969C88.9799 25.1863 88.4982 24.7516 88.1564 24.1925C87.8146 23.6335 87.6437 22.9814 87.6437 22.2205C87.6437 21.2578 87.8612 20.4193 88.2962 19.6584C88.7313 18.8975 89.3372 18.323 90.0985 17.8882C90.8598 17.4534 91.7454 17.236 92.7553 17.236C93.6098 17.236 94.3556 17.4068 94.9771 17.7329C95.5986 18.0745 96.0802 18.5714 96.422 19.2236L94.713 20.0932C94.5265 19.6894 94.2469 19.3944 93.8895 19.1925C93.5322 19.0062 93.0971 18.913 92.5844 18.913C92.0251 18.913 91.5279 19.0528 91.0929 19.3168C90.6423 19.5807 90.3005 19.9689 90.0364 20.4348C89.7878 20.9161 89.6479 21.4596 89.6479 22.0963C89.6479 22.7329 89.8499 23.2764 90.2383 23.6646C90.6268 24.0528 91.1861 24.2391 91.9163 24.2391C92.3824 24.2391 92.8175 24.146 93.2214 23.9596C93.6254 23.7733 93.9672 23.4627 94.2469 23.059L95.7229 24.0528C95.3344 24.6429 94.7907 25.1087 94.0915 25.4503C93.3923 25.7919 92.6466 25.9472 91.8231 25.9472V25.9627Z" fill="#365EA8"/>
<path d="M97.1833 19.0062L97.5096 17.4068H103.181L102.854 19.0062H97.1833ZM100.135 25.9782C99.576 25.9782 99.1099 25.854 98.706 25.6211C98.302 25.3882 98.0223 25.0466 97.8514 24.5963C97.6805 24.1615 97.6495 23.6335 97.7582 23.0279L99.2653 15.4658H101.27L99.7469 23.0124C99.6848 23.4006 99.7314 23.7267 99.8712 23.9751C100.027 24.2236 100.306 24.3478 100.71 24.3478C100.897 24.3478 101.099 24.3168 101.301 24.2546C101.503 24.1925 101.674 24.1149 101.829 24.0062L102.186 25.4658C101.891 25.6522 101.565 25.7919 101.192 25.8695C100.835 25.9472 100.477 25.9782 100.12 25.9782H100.135Z" fill="#365EA8"/>
<path d="M107.702 25.9627C106.847 25.9627 106.117 25.8074 105.48 25.4969C104.859 25.1863 104.361 24.7515 104.02 24.1925C103.678 23.6335 103.507 22.9813 103.507 22.2205C103.507 21.2577 103.724 20.4037 104.144 19.6584C104.563 18.913 105.154 18.323 105.884 17.9037C106.63 17.4689 107.469 17.2515 108.416 17.2515C109.209 17.2515 109.908 17.4068 110.498 17.7018C111.089 17.9969 111.539 18.4316 111.866 18.9907C112.192 19.5497 112.347 20.2174 112.347 20.9938C112.347 21.1956 112.347 21.3975 112.316 21.6149C112.301 21.8323 112.27 22.0186 112.223 22.2049H104.998L105.216 20.8851H111.275L110.467 21.3354C110.545 20.7919 110.514 20.3416 110.359 19.9844C110.203 19.6273 109.939 19.3478 109.597 19.1615C109.255 18.9751 108.82 18.8664 108.339 18.8664C107.748 18.8664 107.251 19.0062 106.816 19.2702C106.381 19.5497 106.055 19.9223 105.822 20.4192C105.589 20.9161 105.464 21.4907 105.464 22.1428C105.464 22.8416 105.666 23.3695 106.07 23.7422C106.474 24.1149 107.08 24.3012 107.935 24.3012C108.416 24.3012 108.867 24.2236 109.302 24.0683C109.737 23.913 110.094 23.6956 110.39 23.4161L111.213 24.7981C110.763 25.1863 110.234 25.4813 109.628 25.6832C109.022 25.8851 108.385 25.9782 107.717 25.9782L107.702 25.9627Z" fill="#365EA8"/>
<path d="M117.148 25.9627C116.449 25.9627 115.828 25.8074 115.253 25.5124C114.678 25.2174 114.227 24.7826 113.901 24.2236C113.575 23.6646 113.404 22.9969 113.404 22.205C113.404 21.4907 113.528 20.823 113.761 20.2174C113.994 19.6118 114.336 19.0838 114.771 18.6335C115.206 18.1832 115.719 17.8416 116.294 17.5932C116.869 17.3447 117.506 17.2205 118.189 17.2205C118.873 17.2205 119.494 17.3447 120.007 17.5932C120.52 17.8416 120.908 18.1987 121.188 18.6956C121.468 19.1925 121.607 19.7981 121.607 20.5124C121.607 21.3043 121.499 22.0342 121.297 22.7019C121.095 23.3696 120.799 23.9441 120.411 24.4255C120.023 24.9068 119.572 25.2795 119.013 25.5435C118.469 25.8074 117.847 25.9472 117.133 25.9472L117.148 25.9627ZM117.661 24.2546C118.22 24.2546 118.733 24.1149 119.168 23.8509C119.603 23.5869 119.96 23.1987 120.209 22.7329C120.458 22.2515 120.582 21.7081 120.582 21.0714C120.582 20.4348 120.395 19.8913 119.992 19.5031C119.588 19.1149 119.044 18.9286 118.329 18.9286C117.77 18.9286 117.273 19.0683 116.838 19.3323C116.387 19.5963 116.045 19.9845 115.797 20.4503C115.548 20.9317 115.424 21.4751 115.424 22.1118C115.424 22.7484 115.61 23.2919 116.014 23.6801C116.418 24.0683 116.962 24.2546 117.677 24.2546H117.661ZM119.743 25.854L120.147 23.913L120.675 21.646L120.955 19.3633L122.027 14.0217H124.031L121.67 25.854H119.774H119.743Z" fill="#365EA8"/>
<defs>
<linearGradient id="paint0_linear_23_2768" x1="41.5923" y1="19.2081" x2="9.86595" y2="19.2081" gradientUnits="userSpaceOnUse">
<stop offset="0.09" stop-color="#0B8040"/>
<stop offset="0.22" stop-color="#0E7D47"/>
<stop offset="0.42" stop-color="#17775B"/>
<stop offset="0.66" stop-color="#256C7C"/>
<stop offset="0.9" stop-color="#3860A6"/>
</linearGradient>
<linearGradient id="paint1_linear_23_2768" x1="39.0132" y1="9.73602" x2="8.29671" y2="9.73602" gradientUnits="userSpaceOnUse">
<stop offset="0.09" stop-color="#0B8040"/>
<stop offset="0.21" stop-color="#137953"/>
<stop offset="0.52" stop-color="#276B7F"/>
<stop offset="0.76" stop-color="#33639B"/>
<stop offset="0.9" stop-color="#3860A6"/>
</linearGradient>
</defs>
</svg>
