<svg width="149" height="44" viewBox="0 0 149 44" fill="none" xmlns="http://www.w3.org/2000/svg">
<g clip-path="url(#clip0_23_2604)">
<path d="M7.64759 36.5764L6.0085 41.9112H4.98014L3.81706 37.8722L2.58213 41.9112L1.56275 41.9199L0 36.5764H0.961001L2.10612 40.9231L3.35003 36.5764H4.36941L5.52351 40.8971L6.67312 36.5764H7.6431H7.64759Z" fill="#003B91"/>
<path d="M11.1593 37.8202C11.4197 37.9589 11.6308 38.1626 11.779 38.4356C11.9317 38.7086 12.0035 39.0336 12.0035 39.4193V41.9155H11.1054V39.5493C11.1054 39.1723 11.0066 38.882 10.809 38.6783C10.6114 38.4746 10.3465 38.3749 10.0052 38.3749C9.6639 38.3749 9.39895 38.4746 9.19687 38.6783C8.99929 38.882 8.90049 39.1723 8.90049 39.5493V41.9155H7.99338V36.2297H8.90049V38.1712C9.05317 37.9936 9.25076 37.8549 9.48428 37.7552C9.72228 37.6599 9.97825 37.6079 10.2612 37.6079C10.5935 37.6079 10.8943 37.6772 11.1548 37.8159L11.1593 37.8202Z" fill="#003B91"/>
<path d="M12.8074 36.9577C12.6951 36.8494 12.6412 36.7194 12.6412 36.559C12.6412 36.3987 12.6951 36.2687 12.8074 36.1603C12.9196 36.052 13.0588 36 13.2205 36C13.3822 36 13.5169 36.052 13.6247 36.1603C13.7369 36.2687 13.7908 36.403 13.7908 36.559C13.7908 36.7151 13.7369 36.8494 13.6247 36.9577C13.5124 37.0661 13.3777 37.1181 13.2205 37.1181C13.0633 37.1181 12.9196 37.0661 12.8074 36.9577ZM13.6651 37.6815V41.9112H12.758V37.6815H13.6651Z" fill="#003B91"/>
<path d="M15.2682 41.1961H17.2576V41.9111H14.2174V41.1961L16.2158 38.3922H14.2174V37.6771H17.2576V38.3922L15.2682 41.1961Z" fill="#003B91"/>
<path d="M25.1746 36.9577C25.0624 36.8494 25.0085 36.7194 25.0085 36.559C25.0085 36.3987 25.0624 36.2687 25.1746 36.1603C25.2869 36.052 25.4216 36 25.5878 36C25.7539 36 25.8842 36.052 25.9919 36.1603C26.0997 36.2687 26.1581 36.403 26.1581 36.559C26.1581 36.7151 26.1042 36.8494 25.9919 36.9577C25.8797 37.0661 25.745 37.1181 25.5878 37.1181C25.4306 37.1181 25.2869 37.0661 25.1746 36.9577ZM26.0324 37.6815V41.9112H25.1252V37.6815H26.0324Z" fill="#003B91"/>
<path d="M29.4991 37.8071C29.7596 37.9371 29.9661 38.1018 30.1143 38.2925V37.6771H31.0304V41.9805C31.0304 42.3705 30.9451 42.7172 30.7745 43.0206C30.6038 43.3239 30.3613 43.5623 30.038 43.74C29.7192 43.9133 29.333 44 28.8884 44C28.2956 44 27.8017 43.8656 27.411 43.597C27.0203 43.3283 26.7957 42.9642 26.7419 42.5049H27.64C27.7073 42.7259 27.8555 42.9036 28.0801 43.0379C28.3046 43.1723 28.574 43.2416 28.8884 43.2416C29.2566 43.2416 29.5485 43.1332 29.7775 42.9209C30.0066 42.7085 30.1143 42.3922 30.1143 41.9848V41.2784C29.9617 41.4778 29.7506 41.6468 29.4901 41.7811C29.2297 41.9155 28.9288 41.9848 28.5965 41.9848C28.2148 41.9848 27.8645 41.8895 27.5502 41.7031C27.2358 41.5168 26.9844 41.2568 26.8002 40.9187C26.6161 40.585 26.5263 40.2037 26.5263 39.779C26.5263 39.3543 26.6161 38.9772 26.8002 38.6522C26.9844 38.3272 27.2313 38.0715 27.5502 37.8895C27.8645 37.7075 28.2148 37.6165 28.5965 37.6165C28.9378 37.6165 29.2387 37.6815 29.4991 37.8115V37.8071ZM29.9302 39.0336C29.8045 38.8169 29.6428 38.6565 29.4407 38.5439C29.2387 38.4312 29.0231 38.3749 28.7896 38.3749C28.5561 38.3749 28.3405 38.4312 28.1385 38.5395C27.9364 38.6479 27.7747 38.8126 27.649 39.0249C27.5232 39.2373 27.4604 39.4886 27.4604 39.7833C27.4604 40.078 27.5232 40.3293 27.649 40.5504C27.7747 40.7714 27.9364 40.9404 28.1429 41.0531C28.345 41.1701 28.5651 41.2264 28.7896 41.2264C29.0141 41.2264 29.2387 41.1701 29.4407 41.0574C29.6428 40.9447 29.8045 40.7801 29.9302 40.5634C30.056 40.3467 30.1188 40.091 30.1188 39.8006C30.1188 39.5103 30.056 39.2546 29.9302 39.0422V39.0336Z" fill="#003B91"/>
<path d="M31.8747 36.9577C31.7624 36.8494 31.7085 36.7194 31.7085 36.559C31.7085 36.3987 31.7624 36.2687 31.8747 36.1603C31.9869 36.052 32.1217 36 32.2878 36C32.454 36 32.5842 36.052 32.692 36.1603C32.7998 36.2687 32.8581 36.403 32.8581 36.559C32.8581 36.7151 32.8042 36.8494 32.692 36.9577C32.5797 37.0661 32.445 37.1181 32.2878 37.1181C32.1306 37.1181 31.9869 37.0661 31.8747 36.9577ZM32.7324 37.6815V41.9112H31.8253V37.6815H32.7324Z" fill="#003B91"/>
<path d="M34.587 38.3966V40.7368C34.587 40.8971 34.623 41.0098 34.7038 41.0791C34.7801 41.1485 34.9104 41.1831 35.099 41.1831H35.6558V41.9112H34.9418C34.5331 41.9112 34.2188 41.8202 34.0032 41.6338C33.7877 41.4475 33.6754 41.1485 33.6754 40.7368V38.3966H33.159V37.6815H33.6754V36.6284H34.5915V37.6815H35.6558V38.3966H34.5915H34.587Z" fill="#003B91"/>
<path d="M36.06 38.6479C36.2441 38.3186 36.4911 38.0672 36.8099 37.8852C37.1243 37.7032 37.4745 37.6122 37.8562 37.6122C38.202 37.6122 38.5029 37.6772 38.7589 37.8072C39.0148 37.9372 39.2214 38.1019 39.3741 38.2926V37.6772H40.2902V41.9112H39.3741V41.2828C39.2214 41.4822 39.0103 41.6469 38.7454 41.7812C38.4804 41.9155 38.1796 41.9805 37.8383 41.9805C37.4611 41.9805 37.1153 41.8852 36.8054 41.6989C36.4911 41.5125 36.2441 41.2525 36.06 40.9145C35.8759 40.5808 35.786 40.1994 35.786 39.7747C35.786 39.35 35.8759 38.973 36.06 38.6479ZM39.1855 39.0336C39.0597 38.8169 38.8981 38.6566 38.696 38.5439C38.4939 38.4313 38.2784 38.3749 38.0448 38.3749C37.8113 38.3749 37.5958 38.4313 37.3937 38.5396C37.1916 38.6479 37.03 38.8126 36.9042 39.025C36.7785 39.2373 36.7156 39.4887 36.7156 39.7834C36.7156 40.0781 36.7785 40.3294 36.9042 40.5504C37.03 40.7714 37.1916 40.9405 37.3982 41.0531C37.6048 41.1701 37.8203 41.2265 38.0448 41.2265C38.2694 41.2265 38.4939 41.1701 38.696 41.0575C38.8981 40.9448 39.0597 40.7801 39.1855 40.5634C39.3112 40.3467 39.3741 40.0911 39.3741 39.8007C39.3741 39.5103 39.3112 39.2547 39.1855 39.0423V39.0336Z" fill="#003B91"/>
<path d="M41.9921 36.2297V41.9112H41.085V36.2297H41.9921Z" fill="#003B91"/>
<path d="M45.3646 37.2828V38.8473H47.2732V39.5623H45.3646V41.1961H47.5112V41.9112H44.4575V36.5677H47.5112V37.2828H45.3646Z" fill="#003B91"/>
<path d="M51.3686 37.8202C51.6426 37.9589 51.8536 38.1626 52.0108 38.4356C52.1635 38.7086 52.2398 39.0336 52.2398 39.4193V41.9155H51.3417V39.5493C51.3417 39.1723 51.2429 38.882 51.0453 38.6783C50.8477 38.4746 50.5828 38.3749 50.2415 38.3749C49.9002 38.3749 49.6353 38.4746 49.4332 38.6783C49.2356 38.882 49.1368 39.1723 49.1368 39.5493V41.9155H48.2297V37.6815H49.1368V38.1669C49.285 37.9935 49.4736 37.8592 49.7071 37.7595C49.9361 37.6642 50.1831 37.6122 50.4436 37.6122C50.7894 37.6122 51.0992 37.6815 51.3686 37.8202Z" fill="#003B91"/>
<path d="M54.054 38.3966V40.7368C54.054 40.8971 54.0944 41.0098 54.1708 41.0791C54.2471 41.1485 54.3774 41.1831 54.566 41.1831H55.1228V41.9112H54.4088C54.0001 41.9112 53.6858 41.8202 53.4702 41.6338C53.2547 41.4475 53.1424 41.1485 53.1424 40.7368V38.3966H52.626V37.6815H53.1424V36.6284H54.0585V37.6815H55.1228V38.3966H54.0585H54.054Z" fill="#003B91"/>
<path d="M59.5461 40.1213H56.1961C56.223 40.4594 56.3533 40.7324 56.5868 40.9361C56.8203 41.1397 57.1077 41.2438 57.4445 41.2438C57.934 41.2438 58.2753 41.0487 58.4773 40.6544H59.4563C59.3216 41.0444 59.0836 41.3608 58.7378 41.6121C58.392 41.8591 57.9609 41.9848 57.4445 41.9848C57.0269 41.9848 56.6496 41.8938 56.3173 41.7118C55.985 41.5298 55.7246 41.2741 55.536 40.9447C55.3474 40.6154 55.2531 40.234 55.2531 39.7963C55.2531 39.3586 55.3429 38.9772 55.527 38.6479C55.7111 38.3185 55.9671 38.0628 56.2994 37.8851C56.6317 37.7075 57.0134 37.6165 57.44 37.6165C57.8666 37.6165 58.2214 37.7031 58.5447 37.8765C58.868 38.0498 59.1195 38.2968 59.2991 38.6089C59.4788 38.9252 59.5686 39.2849 59.5686 39.6966C59.5686 39.857 59.5596 40 59.5371 40.1257L59.5461 40.1213ZM58.63 39.4149C58.6255 39.0942 58.5043 38.8342 58.2708 38.6392C58.0373 38.4442 57.7499 38.3488 57.4041 38.3488C57.0897 38.3488 56.8248 38.4442 56.6002 38.6349C56.3757 38.8256 56.2455 39.0856 56.2006 39.4149H58.6255H58.63Z" fill="#003B91"/>
<path d="M61.5041 37.7942C61.7241 37.6729 61.9846 37.6122 62.2899 37.6122V38.5179H62.0609C61.7061 38.5179 61.4367 38.6046 61.2526 38.7779C61.0685 38.9513 60.9786 39.2547 60.9786 39.6837V41.9112H60.0715V37.6815H60.9786V38.2969C61.1089 38.0802 61.2885 37.9155 61.5085 37.7942H61.5041Z" fill="#003B91"/>
<path d="M64.2613 37.8115C64.5263 37.6772 64.8271 37.6122 65.1594 37.6122C65.5411 37.6122 65.8914 37.7032 66.2058 37.8852C66.5201 38.0672 66.7671 38.3229 66.9512 38.6479C67.1353 38.973 67.2206 39.35 67.2206 39.7747C67.2206 40.1994 67.1308 40.5808 66.9512 40.9145C66.7716 41.2482 66.5246 41.5125 66.2058 41.6989C65.8914 41.8852 65.5411 41.9805 65.1594 41.9805C64.8271 41.9805 64.5262 41.9155 64.2703 41.7855C64.0098 41.6555 63.7988 41.4908 63.6326 41.3002V43.9264H62.7255V37.6815H63.6326V38.3056C63.7853 38.1106 63.9964 37.9459 64.2613 37.8159V37.8115ZM66.1115 39.0206C65.9857 38.8083 65.824 38.6479 65.6175 38.5353C65.4154 38.4269 65.1954 38.3706 64.9618 38.3706C64.7283 38.3706 64.5173 38.4269 64.3152 38.5396C64.1131 38.6523 63.947 38.8169 63.8212 39.0293C63.6955 39.2417 63.6326 39.4973 63.6326 39.7877C63.6326 40.0781 63.6955 40.3337 63.8212 40.5504C63.947 40.7671 64.1086 40.9318 64.3152 41.0445C64.5218 41.1571 64.7373 41.2135 64.9618 41.2135C65.1864 41.2135 65.4154 41.1571 65.6175 41.0401C65.824 40.9231 65.9857 40.7584 66.1115 40.5374C66.2372 40.3164 66.3001 40.0607 66.3001 39.7704C66.3001 39.48 66.2372 39.2287 66.1115 39.012V39.0206Z" fill="#003B91"/>
<path d="M69.1606 37.7942C69.3806 37.6729 69.6411 37.6122 69.9465 37.6122V38.5179H69.7174C69.3627 38.5179 69.0932 38.6046 68.9091 38.7779C68.725 38.9513 68.6352 39.2547 68.6352 39.6837V41.9112H67.7281V37.6815H68.6352V38.2969C68.7654 38.0802 68.9451 37.9155 69.1651 37.7942H69.1606Z" fill="#003B91"/>
<path d="M70.427 36.9577C70.3147 36.8494 70.2608 36.7194 70.2608 36.559C70.2608 36.3987 70.3147 36.2687 70.427 36.1603C70.5393 36.052 70.674 36 70.8401 36C71.0063 36 71.1365 36.052 71.2443 36.1603C71.3521 36.2687 71.4104 36.403 71.4104 36.559C71.4104 36.7151 71.3565 36.8494 71.2443 36.9577C71.132 37.0661 70.9973 37.1181 70.8401 37.1181C70.683 37.1181 70.5393 37.0661 70.427 36.9577ZM71.2847 37.6815V41.9112H70.3776V37.6815H71.2847Z" fill="#003B91"/>
<path d="M72.7486 41.8028C72.4747 41.6815 72.2591 41.5168 72.102 41.3131C71.9448 41.1051 71.8595 40.8754 71.846 40.6197H72.7846C72.8025 40.7974 72.8878 40.9491 73.0495 41.0704C73.2112 41.1918 73.4132 41.2524 73.6602 41.2524C73.9072 41.2524 74.1138 41.2048 74.253 41.1094C74.3922 41.0141 74.4641 40.8927 74.4641 40.7454C74.4641 40.585 74.3877 40.468 74.2305 40.3944C74.0734 40.3163 73.8264 40.234 73.4851 40.143C73.1573 40.0563 72.8878 39.9697 72.6813 39.8916C72.4747 39.8093 72.2951 39.6836 72.1424 39.5146C71.9897 39.3456 71.9179 39.1246 71.9179 38.8472C71.9179 38.6219 71.9852 38.4139 72.1244 38.2275C72.2636 38.0412 72.4612 37.8938 72.7172 37.7855C72.9732 37.6771 73.2695 37.6251 73.6063 37.6251C74.1048 37.6251 74.5045 37.7465 74.8098 37.9892C75.1152 38.2318 75.2769 38.5655 75.2993 38.9816H74.3922C74.3742 38.7909 74.2979 38.6392 74.1542 38.5265C74.0105 38.4139 73.8174 38.3575 73.5749 38.3575C73.3324 38.3575 73.1528 38.4009 73.027 38.4875C72.9013 38.5742 72.8384 38.6912 72.8384 38.8342C72.8384 38.9469 72.8789 39.0422 72.9642 39.1202C73.0495 39.1983 73.1528 39.2589 73.274 39.3023C73.3953 39.3456 73.5749 39.4019 73.8174 39.4669C74.1362 39.5493 74.3967 39.6316 74.6033 39.7183C74.8054 39.8006 74.985 39.9263 75.1332 40.091C75.2814 40.2557 75.3577 40.4724 75.3622 40.7454C75.3622 40.9881 75.2948 41.2004 75.1556 41.3911C75.0164 41.5818 74.8233 41.7291 74.5718 41.8375C74.3204 41.9458 74.024 41.9978 73.6827 41.9978C73.3414 41.9978 73.0271 41.9371 72.7576 41.8158L72.7486 41.8028Z" fill="#003B91"/>
<path d="M79.9202 40.1213H76.5702C76.5971 40.4594 76.7274 40.7324 76.9609 40.9361C77.1944 41.1397 77.4818 41.2438 77.8186 41.2438C78.3081 41.2438 78.6494 41.0487 78.8515 40.6544H79.8304C79.7002 41.0444 79.4577 41.3608 79.1119 41.6121C78.7661 41.8591 78.335 41.9848 77.8186 41.9848C77.401 41.9848 77.0238 41.8938 76.6915 41.7118C76.3591 41.5298 76.0987 41.2741 75.9101 40.9447C75.7215 40.6154 75.6272 40.234 75.6272 39.7963C75.6272 39.3586 75.717 38.9772 75.9011 38.6479C76.0852 38.3185 76.3412 38.0628 76.6735 37.8851C77.0058 37.7075 77.3875 37.6165 77.8141 37.6165C78.2407 37.6165 78.5955 37.7031 78.9188 37.8765C79.2421 38.0498 79.4936 38.2968 79.6732 38.6089C79.8529 38.9252 79.9427 39.2849 79.9427 39.6966C79.9427 39.857 79.9337 40 79.9113 40.1257L79.9202 40.1213ZM79.0041 39.4149C78.9996 39.0942 78.8784 38.8342 78.6449 38.6392C78.4114 38.4442 78.124 38.3488 77.7782 38.3488C77.4638 38.3488 77.1989 38.4442 76.9744 38.6349C76.7498 38.8256 76.6196 39.0856 76.5747 39.4149H78.9996H79.0041Z" fill="#003B91"/>
<path d="M84.9857 41.9112L83.7148 39.7747H83.0233V41.9112H82.1161V36.5764H84.0247C84.4468 36.5764 84.8105 36.6501 85.1024 36.7931C85.3988 36.9361 85.6189 37.1268 85.7626 37.3695C85.9063 37.6122 85.9826 37.8809 85.9826 38.1755C85.9826 38.5222 85.8793 38.8386 85.6683 39.1246C85.4572 39.4107 85.1384 39.6013 84.7028 39.7053L86.0724 41.9155H84.9902L84.9857 41.9112ZM83.0188 39.077H84.0202C84.3615 39.077 84.6174 38.9946 84.7881 38.8299C84.9587 38.6653 85.0485 38.4442 85.0485 38.1712C85.0485 37.8982 84.9632 37.6772 84.7926 37.5212C84.6219 37.3651 84.366 37.2871 84.0202 37.2871H83.0188V39.077Z" fill="#003B91"/>
<path d="M90.7292 40.1213H87.3792C87.4061 40.4594 87.5364 40.7324 87.7699 40.9361C88.0034 41.1397 88.2908 41.2438 88.6276 41.2438C89.1171 41.2438 89.4584 41.0487 89.6605 40.6544H90.6394C90.5092 41.0444 90.2667 41.3608 89.9209 41.6121C89.5751 41.8591 89.144 41.9848 88.6276 41.9848C88.21 41.9848 87.8328 41.8938 87.5004 41.7118C87.1681 41.5298 86.9077 41.2741 86.7191 40.9447C86.5305 40.6154 86.4362 40.234 86.4362 39.7963C86.4362 39.3586 86.526 38.9772 86.7101 38.6479C86.8942 38.3185 87.1502 38.0628 87.4825 37.8851C87.8148 37.7075 88.1965 37.6165 88.6231 37.6165C89.0497 37.6165 89.4045 37.7031 89.7278 37.8765C90.0511 38.0498 90.3026 38.2968 90.4822 38.6089C90.6619 38.9252 90.7517 39.2849 90.7517 39.6966C90.7517 39.857 90.7427 40 90.7202 40.1257L90.7292 40.1213ZM89.8131 39.4149C89.8086 39.0942 89.6874 38.8342 89.4539 38.6392C89.2204 38.4442 88.933 38.3488 88.5872 38.3488C88.2728 38.3488 88.0079 38.4442 87.7834 38.6349C87.5588 38.8256 87.4286 39.0856 87.3837 39.4149H89.8086H89.8131Z" fill="#003B91"/>
<path d="M91.9193 41.8028C91.6453 41.6815 91.4298 41.5168 91.2726 41.3131C91.1154 41.1051 91.0301 40.8754 91.0166 40.6197H91.9552C91.9731 40.7974 92.0585 40.9491 92.2201 41.0704C92.3818 41.1918 92.5839 41.2524 92.8309 41.2524C93.0778 41.2524 93.2844 41.2048 93.4236 41.1094C93.5628 41.0141 93.6347 40.8927 93.6347 40.7454C93.6347 40.585 93.5583 40.468 93.4012 40.3944C93.244 40.3163 92.997 40.234 92.6557 40.143C92.3279 40.0563 92.0585 39.9697 91.8519 39.8916C91.6453 39.8093 91.4657 39.6836 91.313 39.5146C91.1603 39.3456 91.0885 39.1246 91.0885 38.8472C91.0885 38.6219 91.1558 38.4139 91.2951 38.2275C91.4343 38.0412 91.6319 37.8938 91.8878 37.7855C92.1438 37.6771 92.4402 37.6251 92.777 37.6251C93.2754 37.6251 93.6751 37.7465 93.9805 37.9892C94.2858 38.2318 94.4475 38.5655 94.4699 38.9816H93.5628C93.5449 38.7909 93.4685 38.6392 93.3248 38.5265C93.1811 38.4139 92.988 38.3575 92.7455 38.3575C92.503 38.3575 92.3234 38.4009 92.1977 38.4875C92.0719 38.5742 92.0091 38.6912 92.0091 38.8342C92.0091 38.9469 92.0495 39.0422 92.1348 39.1202C92.2201 39.1983 92.3234 39.2589 92.4447 39.3023C92.5659 39.3456 92.7455 39.4019 92.988 39.4669C93.3069 39.5493 93.5673 39.6316 93.7739 39.7183C93.976 39.8006 94.1556 39.9263 94.3038 40.091C94.452 40.2557 94.5283 40.4724 94.5328 40.7454C94.5328 40.9881 94.4655 41.2004 94.3263 41.3911C94.187 41.5818 93.9939 41.7291 93.7425 41.8375C93.491 41.9458 93.1946 41.9978 92.8533 41.9978C92.512 41.9978 92.1977 41.9371 91.9282 41.8158L91.9193 41.8028Z" fill="#003B91"/>
<path d="M95.889 41.7075C95.5567 41.5255 95.2917 41.2698 95.1031 40.9405C94.91 40.6111 94.8157 40.2297 94.8157 39.792C94.8157 39.3543 94.9145 38.9816 95.1121 38.6479C95.3097 38.3142 95.5747 38.0586 95.9159 37.8809C96.2572 37.7032 96.6344 37.6122 97.0521 37.6122C97.4697 37.6122 97.8514 37.7032 98.1882 37.8809C98.525 38.0586 98.7945 38.3142 98.992 38.6479C99.1896 38.9816 99.2884 39.363 99.2884 39.792C99.2884 40.2211 99.1896 40.6024 98.9876 40.9361C98.7855 41.2698 98.5115 41.5255 98.1658 41.7075C97.82 41.8895 97.4338 41.9805 97.0162 41.9805C96.5985 41.9805 96.2303 41.8895 95.8935 41.7075H95.889ZM97.6673 41.0575C97.8739 40.9491 98.0355 40.7888 98.1658 40.5721C98.2915 40.3554 98.3589 40.0954 98.3589 39.7877C98.3589 39.48 98.296 39.22 98.1747 39.0076C98.0535 38.7953 97.8918 38.6349 97.6898 38.5266C97.4877 38.4182 97.2721 38.3662 97.0386 38.3662C96.8051 38.3662 96.5895 38.4182 96.392 38.5266C96.1944 38.6349 96.0372 38.7953 95.9204 39.0076C95.8037 39.22 95.7453 39.48 95.7453 39.7877C95.7453 40.2427 95.8666 40.5938 96.109 40.8451C96.3515 41.0921 96.6524 41.2178 97.0206 41.2178C97.2542 41.2178 97.4742 41.1658 97.6763 41.0575H97.6673Z" fill="#003B91"/>
<path d="M103.757 37.6815V41.9112H102.85V41.4128C102.706 41.5862 102.522 41.7249 102.288 41.8245C102.059 41.9242 101.812 41.9762 101.552 41.9762C101.206 41.9762 100.896 41.9069 100.627 41.7682C100.353 41.6295 100.137 41.4258 99.98 41.1528C99.8228 40.8798 99.7465 40.5548 99.7465 40.1691V37.6815H100.645V40.039C100.645 40.4161 100.743 40.7064 100.941 40.9101C101.139 41.1138 101.404 41.2135 101.745 41.2135C102.086 41.2135 102.356 41.1138 102.553 40.9101C102.751 40.7064 102.85 40.4161 102.85 40.039V37.6815H103.757Z" fill="#003B91"/>
<path d="M105.988 37.7942C106.209 37.6729 106.469 37.6122 106.774 37.6122V38.5179H106.545C106.191 38.5179 105.921 38.6046 105.737 38.7779C105.553 38.9513 105.463 39.2547 105.463 39.6837V41.9112H104.556V37.6815H105.463V38.2969C105.593 38.0802 105.773 37.9155 105.993 37.7942H105.988Z" fill="#003B91"/>
<path d="M107.179 38.6436C107.363 38.3142 107.614 38.0586 107.937 37.8809C108.261 37.7032 108.633 37.6122 109.051 37.6122C109.581 37.6122 110.021 37.7335 110.367 37.9762C110.713 38.2189 110.951 38.5656 111.072 39.0163H110.093C110.012 38.8083 109.886 38.6436 109.711 38.5266C109.536 38.4096 109.316 38.3489 109.051 38.3489C108.678 38.3489 108.382 38.4746 108.162 38.7303C107.942 38.986 107.83 39.337 107.83 39.792C107.83 40.2471 107.942 40.6024 108.162 40.8581C108.382 41.1138 108.678 41.2438 109.051 41.2438C109.577 41.2438 109.922 41.0228 110.093 40.5764H111.072C110.946 41.0055 110.704 41.3478 110.358 41.6035C110.008 41.8549 109.572 41.9849 109.051 41.9849C108.633 41.9849 108.261 41.8939 107.937 41.7119C107.614 41.5298 107.358 41.2742 107.179 40.9448C106.999 40.6154 106.905 40.2341 106.905 39.7964C106.905 39.3587 106.994 38.9773 107.179 38.6479V38.6436Z" fill="#003B91"/>
<path d="M115.572 40.1213H112.222C112.248 40.4594 112.379 40.7324 112.612 40.9361C112.846 41.1397 113.133 41.2438 113.47 41.2438C113.959 41.2438 114.301 41.0487 114.503 40.6544H115.482C115.352 41.0444 115.109 41.3608 114.763 41.6121C114.417 41.8591 113.986 41.9848 113.47 41.9848C113.052 41.9848 112.675 41.8938 112.343 41.7118C112.01 41.5298 111.75 41.2741 111.561 40.9447C111.373 40.6154 111.279 40.234 111.279 39.7963C111.279 39.3586 111.368 38.9772 111.552 38.6479C111.737 38.3185 111.993 38.0628 112.325 37.8851C112.657 37.7075 113.039 37.6165 113.465 37.6165C113.892 37.6165 114.247 37.7031 114.57 37.8765C114.893 38.0498 115.145 38.2968 115.325 38.6089C115.504 38.9252 115.594 39.2849 115.594 39.6966C115.594 39.857 115.585 40 115.563 40.1257L115.572 40.1213ZM114.655 39.4149C114.651 39.0942 114.53 38.8342 114.296 38.6392C114.063 38.4442 113.775 38.3488 113.43 38.3488C113.115 38.3488 112.85 38.4442 112.626 38.6349C112.401 38.8256 112.271 39.0856 112.226 39.4149H114.651H114.655Z" fill="#003B91"/>
<path d="M121.432 38.9339C121.302 39.1766 121.086 39.3716 120.794 39.519C120.502 39.6707 120.13 39.7443 119.672 39.7443H118.67V41.9112H117.763V36.5764H119.672C120.094 36.5764 120.457 36.6458 120.749 36.7888C121.046 36.9318 121.266 37.1181 121.409 37.3608C121.553 37.6035 121.629 37.8722 121.629 38.1669C121.629 38.4399 121.562 38.6956 121.432 38.9339ZM120.444 38.8083C120.615 38.6566 120.7 38.4442 120.7 38.1669C120.7 37.5818 120.359 37.2915 119.672 37.2915H118.67V39.0336H119.672C120.017 39.0336 120.273 38.9599 120.444 38.8083Z" fill="#003B91"/>
<path d="M123.008 36.2297V41.9112H122.101V36.2297H123.008Z" fill="#003B91"/>
<path d="M123.776 38.6479C123.96 38.3186 124.207 38.0672 124.526 37.8852C124.84 37.7032 125.191 37.6122 125.572 37.6122C125.918 37.6122 126.219 37.6772 126.475 37.8072C126.731 37.9372 126.937 38.1019 127.09 38.2926V37.6772H128.006V41.9112H127.09V41.2828C126.937 41.4822 126.726 41.6469 126.461 41.7812C126.196 41.9155 125.896 41.9805 125.554 41.9805C125.177 41.9805 124.831 41.8852 124.521 41.6989C124.207 41.5125 123.96 41.2525 123.776 40.9145C123.592 40.5808 123.502 40.1994 123.502 39.7747C123.502 39.35 123.592 38.973 123.776 38.6479ZM126.901 39.0336C126.776 38.8169 126.614 38.6566 126.412 38.5439C126.21 38.4313 125.994 38.3749 125.761 38.3749C125.527 38.3749 125.312 38.4313 125.11 38.5396C124.908 38.6479 124.746 38.8126 124.62 39.025C124.494 39.2373 124.432 39.4887 124.432 39.7834C124.432 40.0781 124.494 40.3294 124.62 40.5504C124.746 40.7714 124.908 40.9405 125.114 41.0531C125.321 41.1658 125.536 41.2265 125.761 41.2265C125.985 41.2265 126.21 41.1701 126.412 41.0575C126.614 40.9448 126.776 40.7801 126.901 40.5634C127.027 40.3467 127.09 40.0911 127.09 39.8007C127.09 39.5103 127.027 39.2547 126.901 39.0423V39.0336Z" fill="#003B91"/>
<path d="M131.94 37.8202C132.214 37.9589 132.425 38.1626 132.582 38.4356C132.735 38.7086 132.811 39.0336 132.811 39.4193V41.9155H131.913V39.5493C131.913 39.1723 131.814 38.882 131.617 38.6783C131.419 38.4746 131.154 38.3749 130.813 38.3749C130.472 38.3749 130.202 38.4746 130.005 38.6783C129.807 38.882 129.708 39.1723 129.708 39.5493V41.9155H128.801V37.6815H129.708V38.1669C129.856 37.9935 130.045 37.8592 130.278 37.7595C130.507 37.6642 130.754 37.6122 131.015 37.6122C131.361 37.6122 131.671 37.6815 131.94 37.8202Z" fill="#003B91"/>
<path d="M136.705 37.8202C136.979 37.9589 137.19 38.1626 137.347 38.4356C137.499 38.7086 137.576 39.0336 137.576 39.4193V41.9155H136.678V39.5493C136.678 39.1723 136.579 38.882 136.381 38.6783C136.184 38.4746 135.919 38.3749 135.577 38.3749C135.236 38.3749 134.967 38.4746 134.769 38.6783C134.572 38.882 134.473 39.1723 134.473 39.5493V41.9155H133.566V37.6815H134.473V38.1669C134.621 37.9935 134.81 37.8592 135.043 37.7595C135.272 37.6642 135.519 37.6122 135.78 37.6122C136.125 37.6122 136.435 37.6815 136.705 37.8202Z" fill="#003B91"/>
<path d="M138.38 36.9577C138.267 36.8494 138.213 36.7194 138.213 36.559C138.213 36.3987 138.267 36.2687 138.38 36.1603C138.492 36.052 138.627 36 138.793 36C138.959 36 139.089 36.052 139.197 36.1603C139.305 36.2687 139.363 36.403 139.363 36.559C139.363 36.7151 139.309 36.8494 139.197 36.9577C139.085 37.0661 138.95 37.1181 138.793 37.1181C138.636 37.1181 138.492 37.0661 138.38 36.9577ZM139.237 37.6815V41.9112H138.33V37.6815H139.237Z" fill="#003B91"/>
<path d="M143.176 37.8202C143.45 37.9589 143.661 38.1626 143.818 38.4356C143.97 38.7086 144.047 39.0336 144.047 39.4193V41.9155H143.149V39.5493C143.149 39.1723 143.05 38.882 142.852 38.6783C142.655 38.4746 142.39 38.3749 142.048 38.3749C141.707 38.3749 141.438 38.4746 141.24 38.6783C141.043 38.882 140.944 39.1723 140.944 39.5493V41.9155H140.037V37.6815H140.944V38.1669C141.092 37.9935 141.281 37.8592 141.514 37.7595C141.743 37.6642 141.99 37.6122 142.251 37.6122C142.596 37.6122 142.906 37.6815 143.176 37.8202Z" fill="#003B91"/>
<path d="M147.469 37.8071C147.729 37.9371 147.936 38.1018 148.084 38.2925V37.6771H149V41.9805C149 42.3705 148.915 42.7172 148.744 43.0206C148.573 43.3239 148.331 43.5623 148.008 43.74C147.689 43.9133 147.303 44 146.858 44C146.265 44 145.771 43.8656 145.376 43.597C144.985 43.3283 144.761 42.9642 144.707 42.5049H145.605C145.672 42.7259 145.821 42.9036 146.045 43.0379C146.27 43.1723 146.539 43.2416 146.853 43.2416C147.217 43.2416 147.514 43.1332 147.738 42.9209C147.963 42.7085 148.075 42.3922 148.075 41.9848V41.2784C147.922 41.4778 147.711 41.6468 147.451 41.7811C147.19 41.9155 146.889 41.9848 146.557 41.9848C146.175 41.9848 145.825 41.8895 145.511 41.7031C145.196 41.5168 144.945 41.2568 144.761 40.9187C144.577 40.585 144.487 40.2037 144.487 39.779C144.487 39.3543 144.577 38.9772 144.761 38.6522C144.945 38.3272 145.192 38.0715 145.511 37.8895C145.825 37.7075 146.175 37.6165 146.557 37.6165C146.898 37.6165 147.199 37.6815 147.46 37.8115L147.469 37.8071ZM147.9 39.0336C147.774 38.8169 147.612 38.6565 147.41 38.5439C147.208 38.4312 146.993 38.3749 146.759 38.3749C146.526 38.3749 146.31 38.4312 146.108 38.5395C145.906 38.6479 145.744 38.8126 145.619 39.0249C145.493 39.2373 145.43 39.4886 145.43 39.7833C145.43 40.078 145.493 40.3293 145.619 40.5504C145.744 40.7714 145.906 40.9404 146.112 41.0531C146.319 41.1658 146.535 41.2264 146.759 41.2264C146.984 41.2264 147.208 41.1701 147.41 41.0574C147.612 40.9447 147.774 40.7801 147.9 40.5634C148.026 40.3467 148.088 40.091 148.088 39.8006C148.088 39.5103 148.026 39.2546 147.9 39.0422V39.0336Z" fill="#003B91"/>
<path d="M23.1808 36.8884C23.6253 37.1051 23.9666 37.4214 24.2091 37.8288C24.4516 38.2362 24.5729 38.7129 24.5729 39.2546C24.5729 39.7963 24.4516 40.2687 24.2091 40.6717C23.9666 41.0747 23.6253 41.3781 23.1808 41.5904C22.7362 41.8028 22.2198 41.9111 21.6315 41.9111H19.8217V36.5634H21.6315C22.2198 36.5634 22.7407 36.6717 23.1808 36.8884ZM23.1224 40.689C23.4682 40.351 23.6388 39.8743 23.6388 39.2589C23.6388 38.6435 23.4682 38.1538 23.1224 37.8028C22.7766 37.4518 22.2781 37.2784 21.6315 37.2784H20.7289V41.1961H21.6315C22.2781 41.1961 22.7766 41.0271 23.1224 40.689Z" fill="#003B91"/>
</g>
<path d="M70.0282 4.49339V10.7866H78.4776V14.7788H70.0282V21.4284H79.5526V25.5232H64.9912V0.39856H79.5526V4.49339H70.0282Z" fill="#005DF9"/>
<path d="M97.0607 25.5232L91.5224 15.7451H89.1489V25.5232H84.1179V0.434814H93.5336C95.4723 0.434814 97.1271 0.77907 98.4921 1.46154C99.857 2.14401 100.884 3.06807 101.566 4.22767C102.249 5.39331 102.593 6.69182 102.593 8.12924C102.593 9.78408 102.116 11.2759 101.156 12.6046C100.195 13.9333 98.7699 14.8513 96.8795 15.3526L102.883 25.5232H97.0607ZM89.1549 11.9704H93.3584C94.7234 11.9704 95.7441 11.6443 96.4145 10.9799C97.0849 10.3216 97.4231 9.40359 97.4231 8.23191C97.4231 7.06023 97.0849 6.19053 96.4145 5.55638C95.7441 4.92222 94.7234 4.60212 93.3584 4.60212H89.1549V11.9704Z" fill="#005DF9"/>
<path d="M124.505 11.9704C123.871 13.1421 122.874 14.0903 121.521 14.809C120.168 15.5277 118.459 15.8901 116.4 15.8901H112.196V25.5232H107.165V0.434814H116.406C118.344 0.434814 119.999 0.773031 121.364 1.44342C122.729 2.11382 123.756 3.03787 124.438 4.20955C125.121 5.38123 125.465 6.71597 125.465 8.20171C125.465 9.5425 125.145 10.8048 124.511 11.9764L124.505 11.9704ZM119.274 10.8772C119.945 10.2431 120.283 9.34923 120.283 8.20171C120.283 5.75568 118.918 4.53569 116.188 4.53569H112.196V11.8315H116.188C117.577 11.8315 118.61 11.5114 119.28 10.8772H119.274Z" fill="#005DF9"/>
<path d="M42.3363 24.9918L39.1112 32.8191L35.5781 25.1307L24.0002 0H30.8309L38.7971 17.3034L42.3363 24.9918Z" fill="#005DF9"/>
<path d="M55.8891 0L48.9073 16.9471L47.1861 13.2206V13.2146L43.6469 5.52621L41.0982 0H34.2734L40.4217 13.3535V13.3595L43.967 21.0359V21.0419L45.6822 24.7623L45.7909 24.9918H52.2955L52.4465 24.6294L62.5991 0H55.8891Z" fill="#005DF9"/>
<path d="M47.1864 13.2146V13.2207L43.9673 21.0359V21.0419L42.3366 24.9918L39.1115 32.8191L35.5783 25.1307L38.7974 17.3034L40.4221 13.3596V13.3535L43.6472 5.52625L47.1864 13.2146Z" fill="url(#paint0_linear_23_2604)"/>
<defs>
<linearGradient id="paint0_linear_23_2604" x1="38.9786" y1="24.5388" x2="46.4617" y2="7.82129" gradientUnits="userSpaceOnUse">
<stop stop-color="#00CAB4"/>
<stop offset="0.04" stop-color="#0BCCAD"/>
<stop offset="0.31" stop-color="#57DC81"/>
<stop offset="0.55" stop-color="#94E95F"/>
<stop offset="0.75" stop-color="#BFF246"/>
<stop offset="0.91" stop-color="#DAF737"/>
<stop offset="1" stop-color="#E4FA32"/>
</linearGradient>
<clipPath id="clip0_23_2604">
<rect width="149" height="8" fill="white" transform="translate(0 36)"/>
</clipPath>
</defs>
</svg>
