<svg width="30" height="30" viewBox="0 0 30 30" fill="none" xmlns="http://www.w3.org/2000/svg">
<path d="M13.75 16.25H3.75C1.67875 16.25 0 17.9288 0 20V26.25C0 28.3212 1.67875 30 3.75 30H13.75V16.25ZM4.375 21.25C4.375 20.56 4.935 20 5.625 20H8.125C8.815 20 9.375 20.56 9.375 21.25C9.375 21.94 8.815 22.5 8.125 22.5H5.625C4.935 22.5 4.375 21.94 4.375 21.25ZM26.25 16.25H16.25V30H26.25C28.3212 30 30 28.3212 30 26.25V20C30 17.9288 28.3212 16.25 26.25 16.25ZM24.375 22.5H21.875C21.185 22.5 20.625 21.94 20.625 21.25C20.625 20.56 21.185 20 21.875 20H24.375C25.065 20 25.625 20.56 25.625 21.25C25.625 21.94 25.065 22.5 24.375 22.5ZM18.75 0H11.25C9.17875 0 7.5 1.67875 7.5 3.75V13.75H22.5V3.75C22.5 1.67875 20.8212 0 18.75 0ZM16.25 6.25H13.75C13.06 6.25 12.5 5.69 12.5 5C12.5 4.31 13.06 3.75 13.75 3.75H16.25C16.94 3.75 17.5 4.31 17.5 5C17.5 5.69 16.94 6.25 16.25 6.25Z" fill="#4680FF"/>
</svg>
