<svg width="121" height="45" viewBox="0 0 121 45" fill="none" xmlns="http://www.w3.org/2000/svg">
<path d="M18.3975 16.2986L14.1437 26.5834C12.8426 23.3039 10.0357 16.2986 10.0357 16.2986L6.34935 16.3188C6.34935 16.3188 9.76416 24.2692 10.5241 25.9574C10.5241 25.9574 9.48247 28.1303 9.41357 28.2817C8.61914 26.3956 3.93971 16.2986 3.93971 16.2986H0L8.77518 35.4667C8.77518 35.4667 11.4706 30.2607 11.9245 29.2288C12.0583 29.5337 12.721 31.1493 12.721 31.1493L16.1439 31.1573L22.1143 16.2966H18.3995L18.3975 16.2986Z" fill="#041F6C"/>
<path d="M37.0808 18.3624C36.8214 17.9888 36.5215 17.6718 36.181 17.4092C35.8385 17.1467 35.4818 16.9327 35.1069 16.7671C34.732 16.6015 34.3571 16.4803 33.9781 16.4016C33.5991 16.3228 33.2384 16.2844 32.8979 16.2844H27.4768V9.97583H23.8755V31.2078H27.4768V19.8749H32.8979C33.3782 19.8749 33.739 19.9961 33.9781 20.2404C34.2172 20.4848 34.3388 20.8402 34.3388 21.3107V31.2078H37.9401V21.3107C37.9401 20.6948 37.8611 20.1415 37.705 19.6548C37.549 19.1661 37.3402 18.736 37.0808 18.3644V18.3624Z" fill="#041F6C"/>
<path d="M44.5325 16.2844H40.9312V31.2078H44.5325V16.2844Z" fill="#041F6C"/>
<path d="M52.1564 27.7687L58.674 19.3418V16.2642H47.5844V19.7033H53.9135L47.5135 28.0191V31.2078H58.6983V27.7687H52.1564Z" fill="#041F6C"/>
<path d="M69.06 31.2078H67.4529C66.9362 31.2078 66.3829 31.121 65.7972 30.9453C65.2115 30.7696 64.6643 30.4828 64.1557 30.083C63.647 29.6832 63.2275 29.1622 62.8951 28.524C62.5627 27.8839 62.3966 27.1003 62.3966 26.1694V9.97583H65.9978V26.1694C65.9978 26.6116 66.1356 26.963 66.4133 27.2255C66.6909 27.4881 67.0375 27.6193 67.4529 27.6193H69.06V31.2078Z" fill="#041F6C"/>
<path d="M75.0311 31.2078H71.4298V16.2844H75.0311V31.2078Z" fill="#041F6C"/>
<path d="M95.0778 31.2078H91.4766V22.9242C91.4766 22.4557 91.3955 22.0337 91.2334 21.6601C91.0713 21.2865 90.8524 20.9674 90.5747 20.7008C90.2971 20.4343 89.9728 20.2283 89.5979 20.0869C89.223 19.9436 88.8197 19.8729 88.386 19.8729H82.0833V31.2058H78.482V18.0655C78.482 17.8171 78.5286 17.5849 78.6198 17.3688C78.713 17.1528 78.8407 16.9629 79.0069 16.8034C79.1731 16.6419 79.3676 16.5166 79.5885 16.4238C79.8094 16.3309 80.0466 16.2864 80.2958 16.2864H88.4144C88.8663 16.2864 89.3446 16.3369 89.8492 16.4379C90.3518 16.5389 90.8504 16.7024 91.3449 16.9286C91.8393 17.1548 92.3095 17.4395 92.7574 17.7848C93.2053 18.1301 93.6025 18.5482 93.949 19.0409C94.2956 19.5336 94.5692 20.1011 94.7739 20.7453C94.9785 21.3895 95.0778 22.1164 95.0778 22.9262V31.2098V31.2078Z" fill="#041F6C"/>
<path d="M113.662 16.2582H107.898L101.893 21.0825V9.97583H98.2918V31.2078H101.893V24.883L108.467 31.2078H113.662L105.184 23.0636L113.662 16.2582Z" fill="#041F6C"/>
<path d="M84.4728 9.776H80.1115V14.1217H84.4728V9.776Z" fill="#FA476E"/>
<path d="M73.2272 0H68.9368V4.27507H73.2272V0Z" fill="#FA476E"/>
<path d="M82.1893 1.81549H79.2224V4.77189H82.1893V1.81549Z" fill="#FA476E"/>
<path d="M78.0857 6.08447H71.4526V12.0579H78.0857V6.08447Z" fill="url(#paint0_linear_23_2658)"/>
<path d="M116.901 27.7789V28.1424H115.966V31.1937H115.518V28.1424H114.58V27.7789H116.901Z" fill="#041F6C"/>
<path d="M120.927 27.8051V31.1957H120.479V28.6674L119.348 31.1957H119.034L117.899 28.6634V31.1957H117.451V27.8051H117.934L119.192 30.606L120.451 27.8051H120.927Z" fill="#041F6C"/>
<path d="M75.8032 44.3037H74.7453V34.3238H75.8032V44.3037ZM82.1708 39.6994H75.6897V38.7725H82.1708V39.6994ZM82.0715 34.3238H83.1152V44.3037H82.0715V34.3238Z" fill="#FA476E"/>
<path d="M88.1513 44.3764C87.4258 44.3764 86.7753 44.2128 86.1977 43.8836C85.6201 43.5565 85.1641 43.1041 84.8318 42.5286C84.4974 41.9531 84.3312 41.2948 84.3312 40.5536C84.3312 39.8125 84.4974 39.1421 84.8318 38.5726C85.1661 38.0031 85.6181 37.5548 86.1916 37.2317C86.7631 36.9086 87.4177 36.7471 88.1513 36.7471C88.885 36.7471 89.5558 36.9086 90.1334 37.2317C90.7109 37.5548 91.1629 38.0011 91.4932 38.5726C91.8215 39.1421 91.9877 39.8044 91.9877 40.5536C91.9877 41.3028 91.8235 41.9531 91.4932 42.5286C91.1649 43.1041 90.7089 43.5545 90.1273 43.8836C89.5456 44.2108 88.887 44.3764 88.1534 44.3764H88.1513ZM88.1513 43.4777C88.6945 43.4777 89.1768 43.3566 89.5963 43.1142C90.0158 42.8719 90.3482 42.5306 90.5914 42.0884C90.8346 41.6461 90.9561 41.1352 90.9561 40.5557C90.9561 39.9761 90.8346 39.4531 90.5914 39.0149C90.3482 38.5787 90.0158 38.2374 89.5963 37.9951C89.1768 37.7527 88.7005 37.6316 88.1655 37.6316C87.6305 37.6316 87.1542 37.7527 86.7347 37.9951C86.3152 38.2374 85.9808 38.5766 85.7336 39.0149C85.4863 39.4531 85.3607 39.966 85.3607 40.5557C85.3607 41.1453 85.4843 41.6461 85.7336 42.0884C85.9808 42.5306 86.3152 42.8719 86.7347 43.1142C87.1542 43.3566 87.6264 43.4777 88.1513 43.4777Z" fill="#FA476E"/>
<path d="M102.374 36.7471C102.984 36.7471 103.517 36.8642 103.969 37.0964C104.421 37.3287 104.776 37.6841 105.027 38.1586C105.281 38.6332 105.406 39.233 105.406 39.9559V44.3037H104.391V40.0548C104.391 39.2653 104.202 38.6695 103.825 38.2657C103.449 37.8618 102.918 37.6598 102.231 37.6598C101.716 37.6598 101.27 37.7669 100.893 37.9809C100.516 38.195 100.226 38.5039 100.02 38.9078C99.8148 39.3117 99.7115 39.7984 99.7115 40.3699V44.3057H98.6962V40.0569C98.6962 39.2673 98.5057 38.6716 98.1247 38.2677C97.7437 37.8638 97.2086 37.6619 96.5216 37.6619C96.015 37.6619 95.5732 37.7689 95.1901 37.9829C94.8091 38.197 94.5153 38.506 94.3106 38.9098C94.1059 39.3137 94.0026 39.8004 94.0026 40.3719V44.3077H92.9872V36.8218H93.96V38.8472L93.8019 38.4898C94.0309 37.9486 94.3998 37.5225 94.9105 37.2136C95.4212 36.9046 96.0251 36.7511 96.7202 36.7511C97.4539 36.7511 98.0801 36.9349 98.5948 37.3004C99.1096 37.6659 99.444 38.2152 99.596 38.9462L99.1947 38.7887C99.4136 38.1808 99.8027 37.6881 100.36 37.3125C100.917 36.9369 101.588 36.7491 102.37 36.7491L102.374 36.7471Z" fill="#FA476E"/>
<path d="M110.286 44.3764C109.503 44.3764 108.816 44.2128 108.225 43.8836C107.633 43.5565 107.171 43.1041 106.836 42.5286C106.502 41.9531 106.336 41.2948 106.336 40.5536C106.336 39.8125 106.496 39.1562 106.816 38.5867C107.136 38.0173 107.574 37.5669 108.133 37.2398C108.693 36.9127 109.319 36.7471 110.014 36.7471C110.709 36.7471 111.348 36.9066 111.895 37.2257C112.444 37.5447 112.876 37.991 113.19 38.5665C113.504 39.1421 113.662 39.8044 113.662 40.5557C113.662 40.6041 113.66 40.6526 113.654 40.7051C113.65 40.7576 113.646 40.8121 113.646 40.8687H107.106V40.1134H113.101L112.699 40.4123C112.699 39.8711 112.582 39.3884 112.349 38.9644C112.116 38.5423 111.797 38.2111 111.396 37.9728C110.995 37.7346 110.533 37.6154 110.008 37.6154C109.483 37.6154 109.029 37.7346 108.62 37.9728C108.21 38.2111 107.89 38.5423 107.661 38.9704C107.432 39.3985 107.319 39.8872 107.319 40.4385V40.596C107.319 41.1655 107.444 41.6683 107.698 42.1005C107.951 42.5327 108.304 42.8699 108.756 43.1122C109.209 43.3545 109.726 43.4757 110.308 43.4757C110.766 43.4757 111.194 43.3949 111.589 43.2334C111.984 43.0718 112.326 42.8255 112.612 42.4923L113.184 43.1486C112.849 43.5484 112.432 43.8513 111.931 44.0613C111.431 44.2714 110.879 44.3743 110.28 44.3743L110.286 44.3764Z" fill="#FA476E"/>
<defs>
<linearGradient id="paint0_linear_23_2658" x1="71.4526" y1="9.07117" x2="78.0857" y2="9.07117" gradientUnits="userSpaceOnUse">
<stop stop-color="#FA476E"/>
<stop offset="0.46" stop-color="#FA7340"/>
<stop offset="1" stop-color="#FBAF05"/>
</linearGradient>
</defs>
</svg>
