<svg width="41" height="23" viewBox="0 0 41 23" fill="none" xmlns="http://www.w3.org/2000/svg">
<path d="M18.3991 12.683C18.3676 12.124 18.2762 11.5762 18.1476 11.0482C17.7905 9.60827 17.0963 8.29536 16.1478 7.19985C15.9992 7.02479 15.8392 6.85256 15.6678 6.68315C15.3536 6.36128 15.0164 6.06199 14.6479 5.79658C14.1622 5.41824 13.6337 5.09636 13.0794 4.82249C12.6795 4.62202 12.2623 4.45826 11.8252 4.31708C10.8967 4.01215 9.89393 3.84839 8.854 3.84839C5.03713 3.84839 1.73736 6.06199 0.20032 9.25816C-0.299645 10.2972 0.454588 11.4972 1.61736 11.4972H1.62308C2.21732 11.4972 2.77728 11.1753 3.02869 10.6417C4.04862 8.47041 6.27704 6.95985 8.854 6.95985C9.3654 6.95985 9.85679 7.02197 10.3253 7.13491C10.991 7.28738 11.611 7.54149 12.1823 7.88313C12.3595 7.99325 12.528 8.10336 12.6937 8.22477C12.8537 8.34618 13.0137 8.47324 13.1623 8.60876C14.0851 9.44169 14.7736 10.5372 15.0879 11.7767C15.2107 12.2623 15.2793 12.779 15.2793 13.3155C15.2793 13.7051 15.2421 14.0948 15.1678 14.4646C15.0993 14.8543 14.9964 15.2242 14.8536 15.5884C14.465 16.5964 13.8137 17.4801 12.9966 18.1606C11.8766 19.0895 10.431 19.6627 8.85686 19.6627C6.24276 19.6627 3.98863 18.1097 2.98584 15.8905C2.74014 15.3484 2.17161 15.018 1.57165 15.018C0.414591 15.018 -0.333929 16.2039 0.148895 17.2458C1.66022 20.504 4.99427 22.7769 8.85686 22.7769C11.491 22.7769 13.8765 21.7181 15.6107 20.0043C15.8021 19.8151 15.9792 19.6259 16.1506 19.4255C16.4078 19.1205 16.6477 18.8043 16.8706 18.4711C16.982 18.3017 17.0849 18.1295 17.1849 17.9601C17.282 17.7907 17.382 17.6072 17.4677 17.4321C17.7191 16.9211 17.9219 16.3874 18.0819 15.834C18.1134 15.7239 18.1362 15.6223 18.1619 15.5121C18.3391 14.8063 18.4276 14.0778 18.4276 13.3183C18.4276 13.1066 18.4219 12.892 18.4019 12.6859L18.3991 12.683Z" fill="#1E7AF5"/>
<path d="M29.184 4.49213C28.6926 4.63895 28.2127 4.8253 27.7555 5.05117C27.2584 5.29964 26.7785 5.58481 26.3271 5.90951C25.9157 6.2088 25.5328 6.54197 25.17 6.90055C25.0472 7.0276 24.9243 7.15466 24.8072 7.29019C23.4473 8.80921 22.573 10.7631 22.4388 12.9145C22.4216 13.1207 22.4131 13.3268 22.4131 13.5357C22.4131 14.2275 22.4873 14.9023 22.6273 15.5488C22.6702 15.7239 22.7073 15.8961 22.7559 16.0599C22.8987 16.5512 23.0702 17.0255 23.2787 17.4829C23.7387 18.457 24.3501 19.3379 25.0929 20.0975C26.0699 19.6344 26.9556 19.0217 27.7384 18.2989C26.927 17.6072 26.3042 16.7008 25.9357 15.6731C25.8185 15.3568 25.7328 15.0293 25.6643 14.6933C25.5957 14.3235 25.5586 13.9338 25.5586 13.5385C25.5586 11.6412 26.4071 9.93296 27.7498 8.77251C28.0384 8.52969 28.3355 8.30946 28.6555 8.11464C29.2526 7.75606 29.9097 7.49348 30.6182 7.33536C30.2811 6.30762 29.7925 5.35329 29.1783 4.49495L29.184 4.49213Z" fill="#1E7AF5"/>
<path d="M24.81 7.29022C23.8015 5.9886 22.2188 5.15002 20.4418 5.15002C18.6648 5.15002 17.1506 5.94624 16.1478 7.19986C15.3907 8.12879 14.9479 9.30335 14.9479 10.5796C14.9479 10.9861 14.9964 11.3871 15.0822 11.7767C15.4564 13.4369 16.6135 14.8176 18.1591 15.5093C18.8533 15.8312 19.6304 16.0006 20.4418 16.0006C21.2532 16.0006 21.956 15.8425 22.6331 15.546H22.6388C24.5701 14.7131 25.93 12.7988 25.93 10.5796C25.93 9.3457 25.5129 8.2022 24.81 7.29022ZM20.4418 12.8892C19.3161 12.8892 18.3676 12.0929 18.1477 11.0483C18.1219 10.8901 18.1048 10.7377 18.1048 10.5796C18.1048 9.30335 19.1504 8.26996 20.4418 8.26996C21.7331 8.26996 22.7788 9.30335 22.7788 10.5796C22.7788 11.8558 21.7274 12.8892 20.4418 12.8892Z" fill="#1E7AF5"/>
<path d="M25.9414 15.6674C25.21 16.4524 24.3044 17.0707 23.2844 17.4801C23.7444 18.4542 24.3558 19.3351 25.0986 20.0946C26.0757 19.6316 26.9613 19.0189 27.7441 18.2961C26.9327 17.6043 26.3099 16.698 25.9414 15.6703V15.6674ZM14.8507 15.5884C14.4622 16.5964 13.8108 17.4801 12.9937 18.1606C13.7622 18.9031 14.6422 19.5215 15.6078 20.0015C15.7992 19.8123 15.9764 19.6231 16.1478 19.4227C16.4049 19.1177 16.6449 18.8015 16.8677 18.4683C16.9792 18.2989 17.082 18.1267 17.182 17.9573C17.2791 17.7879 17.3791 17.6043 17.4648 17.4293C16.4621 17.0029 15.5764 16.3705 14.8507 15.5884ZM29.184 4.49214C27.2384 1.77596 24.0472 0 20.4418 0C16.8363 0 13.7737 1.70255 11.8224 4.31709C11.1824 5.16695 10.6767 6.11564 10.3225 7.13774C10.9881 7.2902 11.6081 7.54432 12.1795 7.88596C12.3566 7.99607 12.5252 8.10619 12.6909 8.2276C12.8509 8.349 13.0109 8.47606 13.1594 8.61159V8.60594C13.448 7.56126 13.9651 6.60692 14.6479 5.79659C16.0392 4.15615 18.1162 3.11429 20.4418 3.11429C22.7673 3.11429 24.9386 4.2098 26.3299 5.91235C27.0013 6.74527 27.4927 7.70525 27.7584 8.7697C28.047 8.52688 28.3441 8.30665 28.6641 8.11183C29.2612 7.75325 29.9183 7.49067 30.6268 7.33256C30.2897 6.30481 29.8011 5.35048 29.1869 4.49214H29.184ZM30.8325 10.9014C30.7525 10.9381 30.6782 10.9748 30.5982 11.0172C30.5354 11.0482 30.4754 11.0849 30.4125 11.1273C30.3154 11.1894 30.2154 11.2544 30.1297 11.3278C30.0754 11.3758 30.0182 11.4238 29.964 11.4802C29.8954 11.548 29.8354 11.6129 29.7726 11.6807C29.7097 11.7541 29.6497 11.8275 29.6011 11.9066C29.5697 11.9433 29.5469 11.98 29.5269 12.0167C29.5011 12.0534 29.484 12.0901 29.4583 12.1268C29.4469 12.1522 29.4269 12.1748 29.4154 12.2002C29.3469 12.3329 29.2869 12.4684 29.2383 12.6124C29.2269 12.6492 29.2126 12.6859 29.2069 12.7226C29.1812 12.7903 29.164 12.8637 29.1526 12.9343C29.1469 12.94 29.1469 12.9513 29.1469 12.9597C29.1297 13.0444 29.1155 13.1235 29.1097 13.2082C29.104 13.2138 29.104 13.2251 29.104 13.2336C29.0926 13.3296 29.0869 13.4341 29.0869 13.5385C29.0869 14.3094 29.3897 15.0152 29.8925 15.5263C30.6611 14.1145 31.1039 12.4995 31.1353 10.797C31.0296 10.828 30.9325 10.8647 30.8325 10.9071V10.9014ZM11.7424 13.0783C11.7424 13.0303 11.7367 12.9739 11.7252 12.9259C11.7195 12.8581 11.7081 12.7931 11.6938 12.731C11.6767 12.635 11.651 12.5419 11.6195 12.4515C11.5652 12.268 11.491 12.0986 11.3967 11.9348C11.3538 11.8558 11.311 11.7767 11.2538 11.7033C11.1481 11.5452 11.0253 11.3984 10.891 11.2657C10.7853 11.1612 10.6682 11.0652 10.5453 10.9805C10.2996 10.8111 10.0282 10.6699 9.73395 10.5795C9.73395 12.299 10.1511 13.9169 10.8967 15.3512C11.4253 14.8345 11.751 14.1117 11.751 13.3155C11.751 13.2364 11.7452 13.1574 11.7395 13.0783H11.7424Z" fill="#1E7AF5"/>
<path d="M34.895 13.5357C34.895 15.1253 33.5894 16.4072 31.9895 16.4072C31.1638 16.4072 30.421 16.0712 29.8896 15.5234C29.384 15.0124 29.084 14.3093 29.084 13.5357C29.084 12.2454 29.9468 11.1499 31.1324 10.7885C31.4038 10.7066 31.6924 10.6642 31.9895 10.6642C33.5894 10.6642 34.895 11.9546 34.895 13.5357Z" fill="#FBB945"/>
<path d="M11.7568 13.3126C11.7568 14.1089 11.4283 14.8317 10.8997 15.3484C10.3769 15.8594 9.65126 16.1841 8.85131 16.1841C7.24285 16.1841 5.9458 14.8994 5.9458 13.3126C5.9458 11.7258 7.24571 10.4412 8.85131 10.4412C9.15986 10.4412 9.4627 10.492 9.73982 10.5795C10.9112 10.9522 11.7568 12.0308 11.7568 13.3155V13.3126Z" fill="#FBB945"/>
<path d="M30.6239 7.33258C30.2868 6.30484 29.7983 5.3505 29.184 4.49217C30.0754 4.21829 31.0125 4.07147 31.9895 4.07147C35.7064 4.07147 38.9291 6.16931 40.5147 9.23278C41.0489 10.2662 40.2861 11.4944 39.1119 11.4944C38.5062 11.4944 37.972 11.1386 37.692 10.6078C36.6206 8.57491 34.4694 7.18294 31.9924 7.18294C31.5181 7.18294 31.0639 7.23658 30.6268 7.32976L30.6239 7.33258Z" fill="#1E7AF5"/>
<path d="M39.4862 15.0181C40.529 15.0181 41.2775 16.0543 40.8918 17.0114C40.8918 17.0171 40.8861 17.0256 40.8832 17.0312C40.8089 17.2147 40.7347 17.3898 40.6489 17.5648C39.9976 18.9314 39.0262 20.1173 37.832 21.0179C37.5863 21.2128 37.3263 21.3878 37.0635 21.5516C35.5922 22.4692 33.8523 22.9972 31.9895 22.9972C29.284 22.9972 26.8471 21.8791 25.0986 20.0918C26.0757 19.6288 26.9613 19.0161 27.7441 18.2933C28.8812 19.2843 30.3639 19.8857 31.9895 19.8857C33.7866 19.8857 35.415 19.1488 36.5864 17.9714C36.7149 17.8387 36.8378 17.7032 36.9549 17.5648C37.3606 17.0736 37.692 16.5286 37.9377 15.9357C38.1834 15.3428 38.7577 15.0181 39.3776 15.0181H39.4862Z" fill="#1E7AF5"/>
</svg>
