<svg width="128" height="45" viewBox="0 0 128 45" fill="none" xmlns="http://www.w3.org/2000/svg">
<path d="M59.0023 13.9275H61.1867V24.8838H59.0023V13.9275Z" fill="#365EA8"/>
<path d="M59.0133 10.0388H61.1978V12.2125H59.0133V10.0388Z" fill="#15A64A"/>
<path d="M30.0527 13.9712H32.2372V24.9275H30.0527V13.9712Z" fill="#14A74B"/>
<path d="M30.0638 10.0824H32.2482V12.2562H30.0638V10.0824Z" fill="#365EA8"/>
<path d="M33.5391 24.9275L39.5849 12.1469H34.3555V10.0715H43.0822L36.9923 22.8083H43.0602V24.9275H33.5391Z" fill="#14A74B"/>
<path d="M44.9026 9.68915H50.0769C54.0486 9.68915 57.237 13.1628 57.237 17.4449C57.237 21.7269 54.1479 25.2006 50.0769 25.2006H44.9026V9.68915ZM49.8231 23.0049C52.846 23.0049 54.9974 20.6127 54.9974 17.4449C54.9974 14.277 52.824 11.7974 49.8231 11.7974H47.0539V23.0049H49.8231Z" fill="#365EA8"/>
<path d="M70.4651 16.3525H78.2762C78.3424 16.7348 78.3644 17.1172 78.3644 17.5213C78.3644 21.7706 75.1429 25.2115 70.6637 25.2115C66.1845 25.2115 62.963 21.7706 62.963 17.5213C62.963 13.2721 66.2065 9.80933 70.6637 9.80933C73.1681 9.80933 75.3856 11.0218 76.7757 12.8898L75.0436 14.2224C74.0838 12.8242 72.451 11.9285 70.6637 11.9285C67.5525 11.9285 65.2577 14.288 65.2577 17.5104C65.2577 20.7329 67.5525 23.0705 70.6637 23.0705C73.7749 23.0705 75.7938 21.1807 76.0035 18.3406H70.4761V16.3416L70.4651 16.3525Z" fill="#365EA8"/>
<path d="M88.1282 12.0814H84.4213V10.0605H94.0307V12.0814H90.3237V24.9275H88.1392V12.0814H88.1282Z" fill="#365EA8"/>
<path d="M108.384 10.0715H110.569V22.8083H116.703V24.9275H108.384V10.0715Z" fill="#365EA8"/>
<path d="M97.9694 18.9632L99.6022 15.3366L101.224 18.9632H101.235L103.982 24.9493H106.487L99.6022 10.5193L92.7289 24.9493H95.2333L97.9694 18.9632Z" fill="#365EA8"/>
<path d="M26.4561 10.0715V16.418H20.5978V10.0715H20.5096H14.2762H14.1217L10.2382 19.8808L6.50922 10.0715H4.24754L7.29254 17.7835L6.28857 20.1648L2.36097 10.0715H0L6.17824 25.1896L8.27444 20.2194L8.53922 20.8858C9.15704 22.4369 11.3636 22.4478 11.9924 20.9076L15.5118 12.278H18.4023V24.9384H20.5868V18.4171H26.4451V24.9384H28.6295V10.0715H26.4451H26.4561Z" fill="#14A74B"/>
<path d="M80.0855 13.8511H82.27V24.8074H80.0855V13.8511Z" fill="#365EA8"/>
<path d="M80.0966 9.97321H82.281V12.147H80.0966V9.97321Z" fill="#15A64A"/>
<path d="M117.442 0L108.384 8.22542H110.58L117.111 2.33764C122.451 6.36842 125.893 12.7259 125.893 19.8808C125.893 32.0497 115.93 41.9245 103.629 41.9245C93.6887 41.9245 85.2818 35.4796 82.4134 26.5879H80.2179C83.1526 36.6485 92.5192 44.0109 103.629 44.0109C117.089 44.0109 127.989 33.2075 127.989 19.8918C127.989 11.6445 123.808 4.36941 117.431 0.0109235L117.442 0Z" fill="#14A74B"/>
</svg>
