<svg width="30" height="27" viewBox="0 0 30 27" fill="none" xmlns="http://www.w3.org/2000/svg">
<path d="M8.02636 27H6.13636C2.74786 27 0 24.2521 0 20.8636V6.13636C0 2.74786 2.74786 0 6.13636 0H9.23891C9.81082 0 10.3741 0.132545 10.8847 0.389046L14.758 2.32568C14.9273 2.41036 15.1151 2.45455 15.3053 2.45455H23.317C26.7055 2.45455 29.4533 5.20241 29.4533 8.59091V11.7082C28.1487 10.5374 26.4318 9.81818 24.5442 9.81818H21.7313L18.117 8.01041C17.2653 7.58455 16.3276 7.36364 15.3753 7.36364H12.8851C9.15668 7.36364 6.13514 10.3852 6.13514 14.1136V22.0909C6.13514 23.9785 6.85555 25.6954 8.02636 27Z" fill="#4680FF"/>
<path d="M24.5454 12.2727H21.4429C21.2527 12.2727 21.0637 12.2285 20.8931 12.1426L17.021 10.206C16.5105 9.95073 15.9472 9.81818 15.3765 9.81818H12.8863C10.514 9.81818 8.59088 11.7413 8.59088 14.1136V22.0909C8.59088 24.802 10.7889 27 13.5 27H24.5454C27.2565 27 29.4545 24.802 29.4545 22.0909V17.1818C29.4545 14.4708 27.2565 12.2727 24.5454 12.2727Z" fill="#4680FF"/>
</svg>
