<svg width="31" height="34" viewBox="0 0 31 34" fill="none" xmlns="http://www.w3.org/2000/svg">
<path d="M1.08784 17.6458C1.64895 13.585 3.96581 9.82756 7.2812 7.60194C8.88007 6.50565 10.7293 5.73675 12.6178 5.37633L13.2634 5.26219C13.4746 5.21714 13.6707 5.20512 13.8275 5.19611C13.8879 5.19311 13.9482 5.19011 14.0085 5.1841H14.0447L15.9543 5.03392L15.4837 6.85106L20.9802 4.60442L20.2351 3.68233L17.2545 0L16.9589 1.13834L16.1926 1.18339C15.8729 1.20442 15.5471 1.23445 15.2243 1.2765C15.1036 1.29152 14.989 1.30353 14.8743 1.31555C14.6813 1.33357 14.5003 1.35159 14.3434 1.38163L13.4082 1.57385C13.3177 1.59488 13.197 1.6189 13.0764 1.64293C12.9014 1.67597 12.7355 1.70901 12.6027 1.75406L11.6675 2.0424C9.43817 2.76926 7.32645 3.97968 5.57373 5.53852C2.13163 8.55406 0.0500827 13.0534 0.00181494 17.5737C-0.0313692 19.7903 0.390974 22.0069 1.22963 23.9922C1.48605 24.6049 1.78169 25.2027 2.12258 25.7793C2.17387 25.8754 2.22817 25.9686 2.28549 26.0617C1.96873 25.3528 1.70325 24.626 1.49812 23.8871C0.933987 21.8837 0.7922 19.7242 1.08482 17.6458H1.08784Z" fill="#F78613"/>
<path d="M9.3026 19.2677L16.2502 19.7542L21.4148 10.8878C21.6652 10.4583 21.5174 9.90564 21.086 9.65635C20.6546 9.40706 20.0995 9.55423 19.8491 9.98373L15.2486 17.877L9.42931 17.4685C8.92853 17.4265 8.49714 17.8079 8.46395 18.3035C8.42775 18.7991 8.80484 19.2316 9.3026 19.2647V19.2677Z" fill="white"/>
<path d="M22.1057 5.01288C21.9911 5.32825 21.7527 5.58655 21.439 5.71571L15.9425 7.96235C15.7947 8.02242 15.6378 8.05245 15.484 8.05245C15.1974 8.05245 14.9138 7.95334 14.6906 7.75811C14.3466 7.45775 14.2018 6.99221 14.3135 6.55069L14.3647 6.36146L14.1053 6.38249C14.045 6.3885 13.9665 6.3945 13.8851 6.39751C13.7765 6.40351 13.6377 6.41252 13.517 6.43655C13.502 6.43956 12.8292 6.5597 12.8292 6.5597C11.9996 6.71889 11.1821 6.96518 10.3887 7.28956C10.3887 7.28956 9.6345 7.49079 8.38255 8.32277C8.24077 8.40987 8.102 8.49998 7.96624 8.59309C6.81385 9.365 5.79721 10.3351 4.94649 11.4464C4.94649 11.4464 4.39141 11.9841 3.88158 13.0714C3.06706 14.5281 2.51198 16.141 2.28271 17.8109C2.25858 17.9791 2.24349 18.1473 2.22539 18.3185C2.41243 17.9251 2.81064 17.6517 3.27522 17.6517C3.9208 17.6517 4.44269 18.1744 4.44269 18.8141C4.44269 19.4539 3.9208 19.9765 3.27522 19.9765C2.74729 19.9765 2.30684 19.6251 2.16204 19.1445C2.09567 20.6403 2.26159 22.145 2.66282 23.5627C2.84684 24.2325 3.09421 24.9083 3.38985 25.5751C3.63119 26.1157 3.4351 26.7404 2.94941 27.0618C5.66749 31.2367 10.3827 34 15.7524 34C24.1752 34 31.0021 27.2 31.0021 18.8141C31.0021 12.6869 27.3548 7.4127 22.1057 5.01288ZM15.2517 17.877L19.8522 9.98373C20.1026 9.55422 20.6577 9.40705 21.0891 9.65634C21.5204 9.90563 21.6683 10.4583 21.4179 10.8878L16.2502 19.7542L9.30568 19.2676C8.8049 19.2316 8.43082 18.8021 8.46401 18.3065C8.50021 17.8079 8.9316 17.4265 9.43238 17.4685L15.2517 17.877ZM15.7524 32.3991C15.1069 32.3991 14.585 31.8795 14.585 31.2367C14.585 30.594 15.1069 30.0744 15.7524 30.0744C16.398 30.0744 16.9199 30.594 16.9199 31.2367C16.9199 31.8795 16.395 32.3991 15.7524 32.3991ZM28.2267 19.9765C27.5841 19.9765 27.0592 19.4569 27.0592 18.8141C27.0592 18.1714 27.5841 17.6517 28.2267 17.6517C28.8692 17.6517 29.3941 18.1744 29.3941 18.8141C29.3941 19.4539 28.8722 19.9765 28.2267 19.9765Z" fill="#144496"/>
</svg>
