<svg width="40" height="22" viewBox="0 0 40 22" fill="none" xmlns="http://www.w3.org/2000/svg">
<path d="M20.751 5.2288C20.7221 5.7133 20.344 5.95127 20.0589 6.24712C17.4681 8.93977 14.8753 11.6303 12.2824 14.3208L5.58235 21.2732C5.27865 21.5884 5.00594 21.9657 4.54315 22C2.59697 21.4555 1.02887 19.9569 0.328491 18.0189C0.342953 17.991 0.359481 17.9653 0.376009 17.9396L13.0696 4.86435C15.4228 2.94347 18.4639 3.04852 20.751 5.2288Z" fill="#005BDF"/>
<path d="M8.33428 9.78872L0.340892 18.021C0.119829 17.3586 0 16.649 0 15.9094C0 12.327 2.79944 9.41998 6.25381 9.41998C6.98311 9.41998 7.68349 9.54861 8.33428 9.78872Z" fill="#03238F"/>
<path d="M12.2452 15.6392C12.2452 18.6727 10.2391 21.2218 7.52854 21.9314H4.71671C6.18977 20.4521 8.95616 17.6116 12.1192 14.3465C12.2019 14.7645 12.2452 15.1955 12.2452 15.6392Z" fill="#4EB3E5"/>
<path d="M36.0436 7.01676C36.0436 7.23329 36.0333 7.44982 36.0126 7.66205C35.9424 8.44027 35.7399 9.18203 35.43 9.86591C32.6739 9.67511 30.5067 10.8221 28.6142 12.908C28.3023 13.251 27.9882 13.594 27.6742 13.9328C25.4202 16.3574 23.0753 18.6899 20.7841 21.0739C20.5341 21.3354 20.2076 21.5477 20.1188 21.9314H4.71671C6.18977 20.4522 8.95616 17.6116 12.1192 14.3465C15.6314 10.7213 19.6333 6.57299 22.8955 3.19002L24.3913 1.63574C24.5834 1.43637 24.7962 1.25414 25.0297 1.10836C25.0297 1.10836 25.0318 1.10836 25.0338 1.10622C25.0586 1.08907 25.0855 1.07406 25.1103 1.05905C25.1454 1.03761 25.1826 1.01618 25.2198 0.994738C26.292 0.362308 27.5482 0 28.8911 0C32.8413 0 36.0436 3.14071 36.0436 7.01676Z" fill="#0068FF"/>
<path d="M40 15.8901C40 18.7971 38.1922 21.2347 35.7564 21.8885C35.7006 21.9057 35.6448 21.9186 35.5891 21.9314H19.8254L29.4923 11.9197C30.5914 10.7814 32.0045 10.0031 33.5416 9.78876C33.647 9.77376 33.7524 9.76089 33.8598 9.75232C33.8825 9.74803 33.9032 9.74589 33.9259 9.74589C34.0767 9.73302 34.2296 9.72445 34.3825 9.72016C34.4011 9.71802 34.4218 9.71802 34.4404 9.71802H34.4631C34.7978 9.72016 35.1221 9.75446 35.4403 9.82092C38.0311 10.344 39.9938 12.863 39.9938 15.8923L40 15.8901Z" fill="#2EBCFA"/>
</svg>
