<svg width="33" height="34" viewBox="0 0 33 34" fill="none" xmlns="http://www.w3.org/2000/svg">
<path d="M21.3604 26.4226C20.0668 27.7147 18.3203 28.4394 16.4995 28.4394C14.6788 28.4394 12.9323 27.7147 11.6387 26.4226L0.31446 15C0.116433 15.6322 0.0110015 16.2903 0 16.9531V27.0659C0.00183359 28.9043 0.727018 30.667 2.01603 31.9665C3.30504 33.2661 5.05245 33.9982 6.87504 34H26.125C27.9475 33.9982 29.695 33.2661 30.984 31.9665C32.273 30.667 32.9982 28.9043 33 27.0659V16.9531C32.989 16.2903 32.8826 15.6322 32.6855 15L21.3613 26.4226H21.3604Z" fill="#144496"/>
<path d="M2 11.3021C2.14267 11.1373 11.7636 1.92229 11.7636 1.92229C13.0315 0.686797 14.7381 -0.00354935 16.5148 1.37242e-05C18.2915 0.0035768 19.9955 0.70194 21.258 1.94278C21.258 1.94278 30.8582 11.1382 31 11.2985L19.3548 22.8652C18.5858 23.5938 17.5638 24 16.5004 24C15.4371 24 14.4151 23.5938 13.6461 22.8652L2 11.3021Z" fill="#1AD3BB"/>
</svg>
