<svg width="121" height="36" viewBox="0 0 121 36" fill="none" xmlns="http://www.w3.org/2000/svg">
<path d="M18.3975 16.2987L14.1437 26.5835C12.8426 23.3039 10.0357 16.2987 10.0357 16.2987L6.34934 16.3188C6.34934 16.3188 9.76417 24.2692 10.5241 25.9574C10.5241 25.9574 9.48247 28.1303 9.41356 28.2818C8.61914 26.3957 3.93971 16.2987 3.93971 16.2987H0L8.77518 35.4668C8.77518 35.4668 11.4706 30.2608 11.9245 29.2289C12.0583 29.5338 12.721 31.1493 12.721 31.1493L16.1439 31.1574L22.1143 16.2966H18.3995L18.3975 16.2987Z" fill="#041F6C"/>
<path d="M37.0827 18.3624C36.8233 17.9888 36.5234 17.6718 36.1829 17.4092C35.8404 17.1467 35.4837 16.9327 35.1088 16.7671C34.7339 16.6015 34.359 16.4803 33.98 16.4016C33.601 16.3228 33.2403 16.2844 32.8998 16.2844H27.4787V9.97583H23.8774V31.2078H27.4787V19.8749H32.8998C33.3801 19.8749 33.7408 19.9961 33.98 20.2404C34.2191 20.4848 34.3407 20.8402 34.3407 21.3107V31.2078H37.942V21.3107C37.942 20.6948 37.863 20.1415 37.7069 19.6548C37.5509 19.1661 37.3421 18.736 37.0827 18.3644V18.3624Z" fill="#041F6C"/>
<path d="M44.535 16.2844H40.9337V31.2078H44.535V16.2844Z" fill="#041F6C"/>
<path d="M52.1569 27.7688L58.6745 19.3418V16.2622H47.5869V19.7033H53.914L47.516 28.0192V31.2078H58.6988V27.7688H52.1569Z" fill="#041F6C"/>
<path d="M69.06 31.2078H67.4529C66.9362 31.2078 66.3829 31.121 65.7972 30.9453C65.2115 30.7696 64.6643 30.4828 64.1557 30.083C63.647 29.6832 63.2275 29.1622 62.8951 28.524C62.5628 27.8839 62.3966 27.1003 62.3966 26.1694V9.97583H65.9978V26.1694C65.9978 26.6116 66.1357 26.963 66.4133 27.2255C66.6909 27.4881 67.0375 27.6193 67.4529 27.6193H69.06V31.2078Z" fill="#041F6C"/>
<path d="M75.0311 31.2079H71.4298V16.2845H75.0311V31.2079Z" fill="#041F6C"/>
<path d="M95.0779 31.2079H91.4766V22.9243C91.4766 22.4558 91.3955 22.0337 91.2334 21.6601C91.0713 21.2865 90.8524 20.9675 90.5748 20.7009C90.2971 20.4344 89.9728 20.2284 89.5979 20.087C89.223 19.9436 88.8197 19.873 88.386 19.873H82.0833V31.2058H78.482V18.0636C78.482 17.8152 78.5286 17.583 78.6198 17.3669C78.7131 17.1508 78.8407 16.961 79.0069 16.8015C79.1731 16.6399 79.3676 16.5147 79.5885 16.4218C79.8094 16.3289 80.0466 16.2845 80.2958 16.2845H88.4144C88.8663 16.2845 89.3446 16.335 89.8492 16.4359C90.3518 16.5369 90.8504 16.7005 91.3449 16.9267C91.8394 17.1528 92.3095 17.4376 92.7574 17.7829C93.2053 18.1282 93.6025 18.5462 93.949 19.0389C94.2956 19.5317 94.5692 20.0991 94.7739 20.7433C94.9765 21.3875 95.0779 22.1145 95.0779 22.9243V31.2079Z" fill="#041F6C"/>
<path d="M113.662 16.2582H107.9L101.893 21.0825V9.97583H98.2918V31.2078H101.893V24.883L108.467 31.2078H113.662L105.184 23.0636L113.662 16.2582Z" fill="#041F6C"/>
<path d="M84.4725 9.776H80.1112V14.1217H84.4725V9.776Z" fill="#FA476E"/>
<path d="M73.2271 0H68.9368V4.27507H73.2271V0Z" fill="#FA476E"/>
<path d="M82.1886 1.81549H79.2216V4.77189H82.1886V1.81549Z" fill="#FA476E"/>
<path d="M78.0854 6.08246H71.4523V12.0558H78.0854V6.08246Z" fill="url(#paint0_linear_23_2681)"/>
<path d="M116.901 27.7789V28.1424H115.966V31.1937H115.518V28.1424H114.58V27.7789H116.901Z" fill="#041F6C"/>
<path d="M120.927 27.8031V31.1937H120.479V28.6654L119.349 31.1937H119.034L117.9 28.6613V31.1937H117.452V27.8031H117.934L119.193 30.604L120.451 27.8031H120.927Z" fill="#041F6C"/>
<defs>
<linearGradient id="paint0_linear_23_2681" x1="71.4523" y1="9.07117" x2="78.0854" y2="9.07117" gradientUnits="userSpaceOnUse">
<stop stop-color="#FA476E"/>
<stop offset="0.46" stop-color="#FA7340"/>
<stop offset="1" stop-color="#FBAF05"/>
</linearGradient>
</defs>
</svg>
