<?xml version="1.0" encoding="UTF-8"?>
<svg id="Layer_1" data-name="Layer 1" xmlns="http://www.w3.org/2000/svg" viewBox="0 0 150 150">
  <defs>
    <style>
      .cls-1 {
        fill: #fff;
      }

      .cls-2 {
        fill: #fdab0a;
      }

      .cls-3 {
        fill: #0068ff;
      }
    </style>
  </defs>
  <rect class="cls-1" x="-2.96" y="-2.04" width="155.01" height="155.46"/>
  <g>
    <polygon class="cls-3" points="123.18 22.03 123.18 99.78 105.8 110.13 105.8 37.77 74.76 55.99 43.66 37.66 43.66 109.2 26.82 99.4 26.82 22.03 52.51 22.03 75.52 35.43 97.99 22.03 123.18 22.03"/>
    <polygon class="cls-2" points="26.82 49.24 43.66 37.66 43.66 109.2 26.82 99.4 26.82 49.24"/>
    <polygon class="cls-3" points="90.28 64.83 90.28 119.4 75.91 127.97 59.46 118.4 43.83 109.31 55.52 101.67 59.13 99.29 59.18 99.27 59.18 64.83 61.47 66.19 68.7 70.56 72.23 72.68 74.76 74.2 78.38 72.01 90.28 64.83"/>
  </g>
</svg>