<?xml version="1.0" encoding="UTF-8"?>
<svg id="Layer_1" data-name="Layer 1" xmlns="http://www.w3.org/2000/svg" xmlns:xlink="http://www.w3.org/1999/xlink" viewBox="0 0 574 181">
  <defs>
    <style>
      .cls-1 {
        fill: #fff;
      }

      .cls-2 {
        fill: #fdab0a;
      }

      .cls-3 {
        fill: url(#linear-gradient);
      }

      .cls-4 {
        fill: #242c65;
      }

      .cls-5 {
        fill: #0068ff;
      }
    </style>
    <linearGradient id="linear-gradient" x1="47.41" y1="114.47" x2="93.9" y2="114.47" gradientUnits="userSpaceOnUse">
      <stop offset="0" stop-color="#1d89ff"/>
      <stop offset=".15" stop-color="#187bfb"/>
      <stop offset=".42" stop-color="#0d58f0"/>
      <stop offset=".71" stop-color="#002ce3"/>
    </linearGradient>
  </defs>
  <polygon class="cls-4" points="214.44 95.48 189.19 25.92 169.4 25.92 169.4 130.19 185.46 130.19 185.46 58.58 207.55 117.14 221.32 117.14 243.41 57.19 243.41 130.19 259.47 130.19 259.47 25.92 239.68 25.92 214.44 95.48"/>
  <path class="cls-4" d="M309.74,54.67c-5.78,0-11.04,.94-15.78,2.83-4.73,1.89-8.56,4.53-11.47,7.92l11.4,9.61c2.2-1.67,4.69-2.95,7.46-3.84,2.77-.88,5.59-1.33,8.46-1.33,4.49,0,7.97,1.15,10.43,3.44,2.46,2.3,3.69,5.52,3.69,9.68v3.16h-19.29c-8.61,0-15.06,1.83-19.36,5.49-4.3,3.66-6.45,9.19-6.45,16.6,0,7.79,2.14,13.58,6.42,17.35,4.28,3.78,10.67,5.66,19.18,5.66,3.3,0,6.38-.38,9.25-1.15,2.87-.76,5.34-1.92,7.42-3.48,1.14-.85,2.07-1.85,2.83-2.97v6.52h15.85v-47.83c0-8.8-2.62-15.61-7.85-20.44-5.23-4.83-12.63-7.24-22.2-7.24Zm10.18,60.96c-2.68,1.19-6.72,1.79-12.12,1.79-4.45,0-7.77-.75-9.97-2.26-2.2-1.51-3.3-3.81-3.3-6.92s.85-5.16,2.55-6.6c1.7-1.43,4.24-2.15,7.64-2.15h19.22v10.54c0,2.53-1.34,4.4-4.01,5.59Z"/>
  <path class="cls-4" d="M444.7,54.67c-4.16,0-7.97,1.24-11.44,3.73-2.71,1.95-5.01,4.5-6.92,7.62v-10.27h-17.86v74.44h17.86v-44.61c0-4.54,1.18-8.09,3.55-10.65,2.37-2.56,5.7-3.84,10-3.84,2.2,0,4.15,.32,5.85,.97,1.7,.65,3.09,1.59,4.19,2.83l10.47-14.41c-1.96-1.91-4.26-3.36-6.88-4.34-2.63-.98-5.57-1.47-8.82-1.47Z"/>
  <rect class="cls-2" x="470.66" y="34.09" width="17.07" height="17.14" rx="8.53" ry="8.53"/>
  <rect class="cls-4" x="470.66" y="55.75" width="17.07" height="74.44"/>
  <polygon class="cls-4" points="569.27 130.19 544.55 93.36 568.12 55.75 549.19 55.75 535.65 79.48 520.93 55.75 502 55.75 526.19 91.98 500.85 130.19 519.36 130.19 535.21 105.97 550.41 130.19 569.27 130.19"/>
  <g>
    <path class="cls-4" d="M371.84,34.09l-17.14,9.58V110.82c0,6.36,1.43,11.23,4.3,14.63,2.87,3.4,7.48,5.09,13.84,5.09h16.02v-16.42h-12.8c-1.39,0-2.44-.5-3.16-1.51s-1.08-2.39-1.08-4.16V34.09Z"/>
    <rect class="cls-2" x="354.7" y="54.67" width="34.22" height="14.95"/>
  </g>
  <polygon class="cls-3" points="79.18 86.6 96.11 76.39 96.11 152.55 52.28 152.55 30.07 139.63 29.82 139.78 29.82 139.75 30.04 139.6 46.68 128.76 51.82 125.38 51.88 125.35 51.88 76.39 55.15 78.33 65.42 84.54 70.44 87.56 74.04 89.71 79.18 86.6"/>
  <polygon class="cls-5" points="142.88 15.55 142.88 126.09 118.17 140.8 118.17 37.92 74.04 63.83 29.82 37.77 29.82 139.47 5.88 125.53 5.88 15.55 42.41 15.55 75.12 34.6 107.06 15.55 142.88 15.55"/>
  <polygon class="cls-1" points="36.34 149.17 39.61 149.17 39.61 151.07 36.34 149.17"/>
  <polygon class="cls-2" points="5.88 54.23 29.82 37.77 29.82 139.47 5.88 125.53 5.88 54.23"/>
  <polygon class="cls-5" points="96.11 76.39 96.11 153.97 75.67 166.15 52.28 152.55 30.07 139.63 46.68 128.76 51.82 125.38 51.88 125.35 51.88 76.39 55.15 78.33 65.42 84.54 70.44 87.56 74.04 89.71 79.18 86.6 96.11 76.39"/>
</svg>