<svg width="280" height="280" viewBox="0 0 280 280" fill="none" xmlns="http://www.w3.org/2000/svg">
<g clip-path="url(#clip0_155_645)">
<path d="M146.526 244.61L147.118 254.5L276 180.469V169.635L146.526 244.61Z" fill="#E2E2ED"/>
<path d="M4.02637 172.211L147.118 254.5L146.527 244.61L146.226 244.777L4.16758 161.73L4.02637 172.211Z" fill="#CACAE0"/>
<path d="M4 161.66L4.16769 161.757L53.4594 190.571L56.919 192.592L61.6408 195.353L64.8798 197.241L75.2765 203.329L78.5244 205.217L146.068 244.707L146.085 244.689L146.359 244.53L198.846 214.172L202.085 212.293L208.307 208.702L211.89 206.62L212.825 206.081L216.064 204.211L276 169.635L227.82 141.147L223.999 138.888L207.336 129.033L204.07 127.181L191.458 119.981L188.184 118.12L133.182 86.7819L79.61 117.829L75.9561 119.946L75.1706 120.405L71.9492 122.275L60.6435 128.831L57.4309 130.692L8.0157 159.33L4 161.66Z" fill="#F2F2F9"/>
<path d="M129.061 206.046C117.631 214.075 140.543 226.409 150.64 219.58C160.745 212.751 137.101 200.4 129.061 206.046Z" fill="#CACAE0"/>
<path d="M205.959 165.533C194.53 173.561 217.441 185.895 227.538 179.067C237.643 172.238 213.999 159.886 205.959 165.533Z" fill="#CACAE0"/>
<path d="M120.367 182.366L120.65 191.348L182.95 155.572V146.132L120.367 182.366Z" fill="#E2E2ED"/>
<path d="M51.4824 151.575L120.65 191.348L120.367 182.366L120.217 182.454L51.553 142.312L51.4824 151.575Z" fill="#CACAE0"/>
<path d="M51.4736 142.276L51.5531 142.32L79.3276 158.563L80.8986 159.472L85.9204 162.418L87.4914 163.336L120.138 182.419L120.147 182.41L120.279 182.331L145.653 167.659L147.224 166.75L152.413 163.75L153.976 162.842L182.95 146.132L149.757 126.51L148.177 125.61L142.079 122.134L140.499 121.225L113.916 106.086L85.8675 122.337L84.3142 123.237L78.851 126.404L77.2977 127.304L53.4153 141.147L51.4736 142.276Z" fill="#F2F2F9"/>
<path d="M213.612 108.68C213.612 108.68 215.412 109.633 214.477 113.47C213.541 117.317 209.622 125.099 207.354 125.981C205.077 126.863 202.447 124.428 204.424 120.52C206.401 116.62 209.005 110.162 210.814 109.086C212.623 108.009 213.612 108.671 213.612 108.671V108.68Z" fill="#7CAFD1"/>
<path d="M204.565 121.878C204.565 121.878 199.614 126.713 197.39 129.36C195.166 132.007 195.069 132.492 196.013 133.507C196.957 134.512 199.808 132.086 201.9 130.666C203.992 129.245 209.031 126.431 208.757 123.969C208.484 121.508 205.81 120.811 204.565 121.887V121.878Z" fill="#7CAFD1"/>
<path d="M216.603 148.584C216.603 148.584 216.312 145.955 213.505 146.043C210.698 146.132 210.963 150.014 211.784 157.063C212.605 164.103 212.517 167.288 213.276 168.841C213.805 169.918 215.817 169.662 215.932 168.462C216.047 167.262 216.753 149.996 216.603 148.593V148.584Z" fill="#144FA5"/>
<path d="M216.021 167.147C216.021 167.147 214.608 168.629 212.817 167.2C212.817 167.2 211.519 168.047 209.94 168.815C208.607 169.468 206.957 169.962 206.93 170.888C206.868 172.908 215.35 171.356 216.312 170.826C217.274 170.297 216.021 167.147 216.021 167.147Z" fill="black"/>
<path d="M223.355 153.357C223.355 153.357 223.037 150.728 220.231 150.852C217.424 150.975 217.733 154.857 218.633 161.889C219.533 168.921 219.48 172.106 220.257 173.649C220.795 174.717 222.808 174.435 222.914 173.244C223.02 172.044 223.523 154.769 223.364 153.366L223.355 153.357Z" fill="#144FA5"/>
<path d="M222.984 171.92C222.984 171.92 221.581 173.42 219.78 172.008C219.78 172.008 218.492 172.864 216.929 173.649C215.606 174.32 213.955 174.832 213.946 175.758C213.911 177.778 222.366 176.129 223.328 175.59C224.29 175.052 222.993 171.911 222.993 171.911L222.984 171.92Z" fill="black"/>
<path d="M216.55 132.951C216.55 132.951 216.524 146.255 216.612 148.602C216.7 150.949 215.65 153.357 212.552 152.369C210.619 151.752 211.034 148.84 210.831 145.849C210.628 142.859 209.834 131.46 209.834 131.46C209.834 131.46 215.421 125.972 216.559 132.951H216.55Z" fill="#144FA5"/>
<path d="M223.39 137.247C223.39 137.247 223.364 150.552 223.452 152.899C223.54 155.245 222.49 157.654 219.392 156.666C217.459 156.048 217.874 153.137 217.671 150.146C217.468 147.155 216.674 135.756 216.674 135.756C216.674 135.756 222.261 130.269 223.399 137.247H223.39Z" fill="#144FA5"/>
<path d="M223.505 113.144C220.849 111.424 219.763 110.338 217.398 109.721C215.032 109.103 212.455 108.291 211.608 108.671C210.761 109.05 209.472 110.224 208.863 118.605C208.246 126.995 207.61 131.698 208.043 132.633C208.484 133.568 212.429 141.076 224.388 137.133C224.388 137.133 224.741 119.858 224.944 117.114C225.147 114.37 223.514 113.144 223.514 113.144H223.505Z" fill="#8CC1ED"/>
<path d="M214.565 107.603L214.75 109.553L214.953 111.724C214.953 111.724 214.962 111.803 214.971 111.847C215.042 112.235 215.253 112.562 215.545 112.791C215.836 113.012 216.207 113.126 216.595 113.091C216.851 113.065 217.089 112.976 217.292 112.844C217.742 112.544 218.007 112.023 217.954 111.45L217.566 107.339C217.522 106.88 217.283 106.492 216.939 106.253C216.657 106.051 216.304 105.945 215.924 105.98C215.474 106.024 215.086 106.262 214.839 106.598C214.636 106.88 214.521 107.242 214.556 107.621L214.565 107.603Z" fill="#F7CB9C"/>
<path d="M222.375 113.276C222.375 113.276 224.308 112.632 226.435 115.967C228.571 119.302 231.492 127.507 230.557 129.757C229.621 132.007 226.038 132.227 224.582 128.098C223.125 123.969 220.266 117.626 220.734 115.588C221.201 113.541 222.366 113.276 222.366 113.276H222.375Z" fill="#7CAFD1"/>
<path d="M225.429 128.548C225.429 128.548 225.323 135.465 225.605 138.915C225.888 142.364 226.17 142.77 227.547 142.823C228.924 142.876 229.241 139.135 229.718 136.665C230.195 134.186 231.792 128.636 229.868 127.084C227.944 125.522 225.543 126.925 225.429 128.557V128.548Z" fill="#7CAFD1"/>
<path d="M195.633 131.601C196.286 131.266 197.884 132.518 197.522 133.665C197.16 134.821 194.212 138.483 193.303 138.474C192.394 138.465 191.741 136.242 193.877 133.586C193.877 133.586 192.191 134.706 192.121 133.727C192.085 133.26 193.559 132.677 195.642 131.601H195.633Z" fill="#F7CB9C"/>
<path d="M225.941 141.747C226.179 141.05 228.201 140.847 228.73 141.932C229.26 143.017 229.674 147.702 229.012 148.329C228.351 148.946 226.338 147.799 226.038 144.403C226.038 144.403 225.597 146.37 224.873 145.717C224.52 145.399 225.191 143.961 225.941 141.747Z" fill="#F7CB9C"/>
<g opacity="0.25">
<path d="M214.776 108.697L215.024 111.388C215.024 111.441 215.032 111.485 215.041 111.538C215.394 111.141 217.186 109.033 216.515 107.833C216.083 107.065 215.332 107.877 214.768 108.697H214.776Z" fill="black"/>
</g>
<path d="M210.778 106.262C210.778 108.768 212.19 110.797 213.938 110.797C215.685 110.797 217.098 108.768 217.098 106.262C217.098 103.757 215.685 101.727 213.938 101.727C212.19 101.727 210.778 103.757 210.778 106.262Z" fill="#F7CB9C"/>
<path d="M217.106 107.109C217.106 107.109 215.394 106.439 215.888 103.88C215.888 103.88 210.946 106.686 209.419 103.21C207.892 99.7335 210.575 98.516 212.164 99.3101C213.788 100.122 214.97 98.1543 218.201 100.228C220.451 101.675 221.669 108.327 217.68 108.636C217.68 108.636 217.106 108.521 217.106 107.118V107.109Z" fill="#282828"/>
<path d="M216.595 106.88C216.162 107.542 216.206 108.344 216.692 108.662C217.177 108.98 217.927 108.706 218.369 108.044C218.801 107.383 218.757 106.58 218.271 106.262C217.786 105.945 217.036 106.218 216.595 106.88Z" fill="#F7CB9C"/>
<path d="M126.033 158.078L89.3449 137.168C88.0034 136.392 88.1711 135.042 89.7245 134.151L110.836 121.967C112.389 121.075 114.728 120.978 116.069 121.746L152.758 142.656C154.099 143.432 153.932 144.782 152.378 145.673L131.267 157.857C129.714 158.748 127.375 158.845 126.033 158.078Z" fill="#B2D3EA"/>
<path d="M156.023 135.615V50.0004L121.973 41.0895L115.698 37.4722C114.26 36.6429 111.744 36.7488 110.085 37.7016L104.234 41.0807H86.0703L91.4452 123.722C91.4011 124.287 91.7188 124.825 92.4072 125.222L126.386 150.852C127.825 151.681 130.34 151.575 131.999 150.622L154.646 137.556C155.608 137 156.067 136.286 156.014 135.615H156.023Z" fill="#396CAA"/>
<path d="M113.095 36.9164C112.045 36.9429 110.95 37.2076 110.085 37.7016L104.234 41.0807H86.0704V126.916C86.0263 127.481 86.344 128.019 87.0324 128.416L126.386 150.852C127.075 151.249 128.019 151.434 128.99 151.408L129.396 65.0253L113.086 36.9076L113.095 36.9164Z" fill="#D4ECFF"/>
<path d="M126.757 151.028C128.001 151.558 129.793 151.531 131.249 150.975V64.0019H126.757V151.028Z" fill="#5793CE"/>
<path d="M126.395 65.0341L87.0416 42.5982C85.603 41.7689 85.7795 40.3132 87.4476 39.3603L110.086 26.294C111.745 25.3323 114.26 25.2265 115.699 26.0646L155.053 48.5005C156.491 49.3299 156.315 50.7856 154.647 51.7384L132 64.8048C130.341 65.7664 127.825 65.8723 126.387 65.0341H126.395Z" fill="#D4ECFF"/>
<path d="M154.655 50.1416L132.008 63.2079C130.349 64.1695 127.834 64.2754 126.395 63.4372L87.0413 41.0013C86.7235 40.816 86.4853 40.5955 86.3264 40.3661C85.8322 41.1601 86.0528 42.0247 87.0413 42.5982L126.395 65.0341C127.834 65.8635 130.349 65.7576 132.008 64.8048L154.655 51.7385C155.944 50.9973 156.341 49.9563 155.776 49.1358C155.547 49.4975 155.176 49.8504 154.655 50.1504V50.1416Z" fill="#FAFDFF"/>
<path d="M127.507 55.9468L101.303 40.7631C100.633 40.3749 100.712 39.6956 101.489 39.2456L112.088 33.1315C112.865 32.6816 114.039 32.6375 114.718 33.0257L140.922 48.2094C141.593 48.5976 141.513 49.2769 140.737 49.7269L130.137 55.841C129.36 56.2909 128.186 56.335 127.507 55.9468Z" fill="#173D7A"/>
<path d="M113.359 41.4424L111.841 40.569C111.744 40.5161 111.762 40.419 111.868 40.3573L113.333 39.5103C113.439 39.4485 113.606 39.4397 113.695 39.4926L115.213 40.3661C115.31 40.419 115.292 40.5161 115.186 40.5778L113.721 41.4248C113.615 41.4866 113.447 41.4954 113.359 41.4424Z" fill="#D4ECFF"/>
<path d="M118.434 44.3627L116.916 43.4893C116.819 43.4364 116.837 43.3393 116.943 43.2775L118.408 42.4306C118.514 42.3688 118.681 42.36 118.77 42.4129L120.288 43.2864C120.385 43.3393 120.367 43.4364 120.261 43.4981L118.796 44.3451C118.69 44.4068 118.523 44.4157 118.434 44.3627Z" fill="#D4ECFF"/>
<path d="M123.5 47.2742L121.982 46.4007C121.885 46.3478 121.902 46.2507 122.008 46.189L123.473 45.342C123.579 45.2803 123.747 45.2714 123.835 45.3244L125.353 46.1978C125.45 46.2507 125.433 46.3478 125.327 46.4096L123.862 47.2565C123.756 47.3183 123.588 47.3271 123.5 47.2742Z" fill="#D4ECFF"/>
<path d="M128.575 50.1945L127.057 49.321C126.96 49.2681 126.978 49.171 127.083 49.1093L128.548 48.2623C128.654 48.2005 128.822 48.1917 128.91 48.2447L130.428 49.1181C130.525 49.171 130.508 49.2681 130.402 49.3298L128.937 50.1768C128.831 50.2386 128.663 50.2474 128.575 50.1945Z" fill="#D4ECFF"/>
<path d="M101.304 40.7631L101.339 40.7807C101.392 40.7455 101.436 40.7102 101.498 40.6749L112.098 34.5608C112.874 34.1108 114.048 34.0667 114.728 34.4549L140.896 49.621C141.514 49.1799 141.549 48.5711 140.931 48.2094L114.728 33.0257C114.057 32.6375 112.874 32.6816 112.098 33.1315L101.498 39.2456C100.721 39.6956 100.633 40.3749 101.313 40.7631H101.304Z" fill="#5793CE"/>
<path d="M136.43 82L151.328 73.4774C152.166 72.9921 152.846 71.6952 152.846 70.5747V65.2459C152.846 64.1254 152.166 63.6137 151.328 64.0989L136.43 72.6216C135.592 73.1068 134.912 74.4038 134.912 75.5242V80.8531C134.912 81.9736 135.592 82.4853 136.43 82Z" fill="#173D7A"/>
<path d="M152.061 63.9401C152.299 64.1607 152.44 64.5401 152.44 65.0518V70.3806C152.44 71.5011 151.761 72.798 150.922 73.2833L136.025 81.8059C135.76 81.9647 135.504 82 135.283 81.9647C135.566 82.2294 135.963 82.2647 136.422 82L151.32 73.4774C152.158 72.9921 152.838 71.6952 152.838 70.5747V65.2459C152.838 64.4871 152.52 64.0195 152.061 63.9401Z" fill="white"/>
<path d="M140.913 76.2124L142.281 75.4272C142.467 75.3213 142.608 75.039 142.608 74.7919V73.3362C142.608 73.0892 142.458 72.9833 142.281 73.0892L140.913 73.8744C140.728 73.9802 140.587 74.2626 140.587 74.5096V75.9653C140.587 76.2124 140.737 76.3182 140.913 76.2124Z" fill="#396CAA"/>
<path d="M145.476 73.5744L146.844 72.7892C147.029 72.6833 147.171 72.401 147.171 72.154V70.6983C147.171 70.4512 147.02 70.3453 146.844 70.4512L145.476 71.2364C145.291 71.3423 145.149 71.6246 145.149 71.8717V73.3274C145.149 73.5744 145.299 73.6803 145.476 73.5744Z" fill="white"/>
<path d="M136.43 120.484L151.328 111.962C152.166 111.476 152.846 110.179 152.846 109.059V103.73C152.846 102.61 152.166 102.098 151.328 102.583L136.43 111.106C135.592 111.591 134.912 112.888 134.912 114.008V119.337C134.912 120.458 135.592 120.97 136.43 120.484Z" fill="#173D7A"/>
<path d="M152.061 102.424C152.299 102.645 152.44 103.024 152.44 103.536V108.865C152.44 109.985 151.761 111.282 150.922 111.768L136.025 120.29C135.76 120.449 135.504 120.484 135.283 120.449C135.566 120.714 135.963 120.749 136.422 120.484L151.32 111.962C152.158 111.476 152.838 110.179 152.838 109.059V103.73C152.838 102.971 152.52 102.504 152.061 102.424Z" fill="white"/>
<path d="M140.913 114.697L142.281 113.911C142.467 113.806 142.608 113.523 142.608 113.276V111.82C142.608 111.573 142.458 111.468 142.281 111.573L140.913 112.359C140.728 112.464 140.587 112.747 140.587 112.994V114.45C140.587 114.697 140.737 114.802 140.913 114.697Z" fill="#396CAA"/>
<path d="M145.476 112.059L146.844 111.273C147.029 111.168 147.171 110.885 147.171 110.638V109.183C147.171 108.935 147.02 108.83 146.844 108.935L145.476 109.721C145.291 109.827 145.149 110.109 145.149 110.356V111.812C145.149 112.059 145.299 112.165 145.476 112.059Z" fill="white"/>
<path d="M136.43 139.726L151.328 131.204C152.166 130.719 152.846 129.422 152.846 128.301V122.972C152.846 121.852 152.166 121.34 151.328 121.825L136.43 130.348C135.592 130.833 134.912 132.13 134.912 133.251V138.58C134.912 139.7 135.592 140.212 136.43 139.726Z" fill="#173D7A"/>
<path d="M152.061 121.667C152.299 121.887 152.44 122.267 152.44 122.778V128.107C152.44 129.228 151.761 130.524 150.922 131.01L136.025 139.532C135.76 139.691 135.504 139.726 135.283 139.691C135.566 139.956 135.963 139.991 136.422 139.726L151.32 131.204C152.158 130.719 152.838 129.422 152.838 128.301V122.972C152.838 122.214 152.52 121.746 152.061 121.667Z" fill="white"/>
<path d="M140.913 133.939L142.281 133.154C142.467 133.048 142.608 132.765 142.608 132.518V131.063C142.608 130.816 142.458 130.71 142.281 130.816L140.913 131.601C140.728 131.707 140.587 131.989 140.587 132.236V133.692C140.587 133.939 140.737 134.045 140.913 133.939Z" fill="#396CAA"/>
<path d="M145.476 131.301L146.844 130.516C147.029 130.41 147.171 130.127 147.171 129.88V128.425C147.171 128.178 147.02 128.072 146.844 128.178L145.476 128.963C145.291 129.069 145.149 129.351 145.149 129.598V131.054C145.149 131.301 145.299 131.407 145.476 131.301Z" fill="white"/>
<path d="M136.43 101.242L151.328 92.7195C152.166 92.2343 152.846 90.9374 152.846 89.8169V84.488C152.846 83.3675 152.166 82.8558 151.328 83.3411L136.43 91.8637C135.592 92.349 134.912 93.6459 134.912 94.7664V100.095C134.912 101.216 135.592 101.727 136.43 101.242Z" fill="#173D7A"/>
<path d="M152.061 83.1823C152.299 83.4028 152.44 83.7822 152.44 84.2939V89.6228C152.44 90.7432 151.761 92.0402 150.922 92.5254L136.025 101.048C135.76 101.207 135.504 101.242 135.283 101.207C135.566 101.472 135.963 101.507 136.422 101.242L151.32 92.7195C152.158 92.2343 152.838 90.9373 152.838 89.8169V84.488C152.838 83.7293 152.52 83.2617 152.061 83.1823Z" fill="white"/>
<path d="M140.913 95.4545L142.281 94.6693C142.467 94.5634 142.608 94.2811 142.608 94.0341V92.5783C142.608 92.3313 142.458 92.2254 142.281 92.3313L140.913 93.1165C140.728 93.2224 140.587 93.5047 140.587 93.7517V95.2075C140.587 95.4545 140.737 95.5604 140.913 95.4545Z" fill="#396CAA"/>
<path d="M145.476 92.8166L146.844 92.0313C147.029 91.9255 147.171 91.6431 147.171 91.3961V89.9404C147.171 89.6933 147.02 89.5875 146.844 89.6933L145.476 90.4786C145.291 90.5844 145.149 90.8668 145.149 91.1138V92.5695C145.149 92.8165 145.299 92.9224 145.476 92.8166Z" fill="white"/>
<path d="M123.526 76.5477L89.1591 56.7144C88.3913 56.2733 87.7646 55.0822 87.7646 54.05V47.4948C87.7646 46.4714 88.3913 45.9949 89.1591 46.4449L123.526 66.2781C124.294 66.7193 124.921 67.9103 124.921 68.9426V75.4978C124.921 76.5212 124.294 76.9976 123.526 76.5477Z" fill="#5793CE"/>
<path opacity="0.4" d="M122.538 74.2538L90.1387 55.5586C89.7503 55.3293 89.4326 54.7293 89.4326 54.2088V49.2858C89.4326 48.7652 89.7503 48.527 90.1387 48.7476L122.538 67.4427C122.926 67.6721 123.244 68.272 123.244 68.7926V73.7156C123.244 74.2361 122.926 74.4743 122.538 74.2538Z" fill="#D4ECFF"/>
<path d="M96.8901 56.9614L92.0536 54.1735C91.6741 53.9529 91.3652 53.3706 91.3652 52.8589C91.3652 52.356 91.6741 52.1178 92.0536 52.3384L96.8901 55.1263C97.2696 55.3469 97.5785 55.9292 97.5785 56.4409C97.5785 56.9438 97.2696 57.182 96.8901 56.9614Z" fill="#D4ECFF"/>
<path d="M101.012 58.426C101.012 58.9289 100.659 59.1318 100.218 58.8848C99.7769 58.6289 99.4238 58.0202 99.4238 57.5085C99.4238 56.9968 99.7769 56.8027 100.218 57.0497C100.659 57.3055 101.012 57.9143 101.012 58.426Z" fill="#173D7A"/>
<path d="M103.809 60.0405C103.809 60.5434 103.456 60.7463 103.015 60.4993C102.574 60.2434 102.221 59.6347 102.221 59.123C102.221 58.6113 102.574 58.4172 103.015 58.6642C103.456 58.9201 103.809 59.5288 103.809 60.0405Z" fill="#173D7A"/>
<path d="M106.607 61.6462C106.607 62.1491 106.254 62.352 105.813 62.105C105.372 61.8492 105.019 61.2404 105.019 60.7287C105.019 60.217 105.372 60.0229 105.813 60.2699C106.254 60.5169 106.607 61.1345 106.607 61.6462Z" fill="#D4ECFF"/>
<path d="M109.396 63.2608C109.396 63.7637 109.043 63.9666 108.602 63.7196C108.161 63.4637 107.808 62.855 107.808 62.3432C107.808 61.8315 108.161 61.6374 108.602 61.8845C109.043 62.1403 109.396 62.7491 109.396 63.2608Z" fill="#173D7A"/>
<path d="M121.179 71.51L119.546 70.5659C119.299 70.4248 119.104 70.0454 119.104 69.7278V68.0074C119.104 67.6809 119.299 67.531 119.546 67.6721L121.179 68.6161C121.426 68.7573 121.62 69.1367 121.62 69.4543V71.1747C121.62 71.5011 121.426 71.6511 121.179 71.51Z" fill="#173D7A"/>
<path d="M123.526 88.1053L89.1591 68.272C88.3913 67.8309 87.7646 66.6398 87.7646 65.6076V59.0524C87.7646 58.029 88.3913 57.5525 89.1591 58.0025L123.526 77.8358C124.294 78.2769 124.921 79.4679 124.921 80.5002V87.0554C124.921 88.0788 124.294 88.5552 123.526 88.1053Z" fill="#5793CE"/>
<path opacity="0.4" d="M122.538 85.8026L90.1387 67.1075C89.7503 66.8781 89.4326 66.2781 89.4326 65.7576V60.8346C89.4326 60.314 89.7503 60.0758 90.1387 60.2964L122.538 78.9915C122.926 79.2209 123.244 79.8209 123.244 80.3414V85.2644C123.244 85.785 122.926 86.0232 122.538 85.8026Z" fill="#D4ECFF"/>
<path d="M96.8901 68.5103L92.0536 65.7223C91.6741 65.5017 91.3652 64.9195 91.3652 64.4077C91.3652 63.9049 91.6741 63.6666 92.0536 63.8872L96.8901 66.6752C97.2696 66.8957 97.5785 67.478 97.5785 67.9897C97.5785 68.4926 97.2696 68.7308 96.8901 68.5103Z" fill="#D4ECFF"/>
<path d="M101.012 69.9748C101.012 70.4777 100.659 70.6806 100.218 70.4336C99.7769 70.1777 99.4238 69.5689 99.4238 69.0572C99.4238 68.5455 99.7769 68.3514 100.218 68.5985C100.659 68.8543 101.012 69.4631 101.012 69.9748Z" fill="white"/>
<path d="M103.809 71.5894C103.809 72.0922 103.456 72.2952 103.015 72.0481C102.574 71.7923 102.221 71.1835 102.221 70.6718C102.221 70.1601 102.574 69.966 103.015 70.213C103.456 70.4689 103.809 71.0776 103.809 71.5894Z" fill="#173D7A"/>
<path d="M106.607 73.2039C106.607 73.7067 106.254 73.9097 105.813 73.6626C105.372 73.4068 105.019 72.798 105.019 72.2863C105.019 71.7746 105.372 71.5805 105.813 71.8275C106.254 72.0746 106.607 72.6921 106.607 73.2039Z" fill="#D4ECFF"/>
<path d="M109.396 74.8184C109.396 75.3213 109.043 75.5242 108.602 75.2772C108.161 75.0213 107.808 74.4126 107.808 73.9009C107.808 73.3892 108.161 73.1951 108.602 73.4421C109.043 73.6979 109.396 74.3067 109.396 74.8184Z" fill="#173D7A"/>
<path d="M121.179 83.0587L119.546 82.1147C119.299 81.9735 119.104 81.5942 119.104 81.2766V79.5561C119.104 79.2297 119.299 79.0797 119.546 79.2209L121.179 80.1649C121.426 80.3061 121.62 80.6854 121.62 81.0031V82.7235C121.62 83.0499 121.426 83.1999 121.179 83.0587Z" fill="#173D7A"/>
<path d="M123.526 99.6541L89.1591 79.8209C88.3913 79.3797 87.7646 78.1887 87.7646 77.1564V70.6012C87.7646 69.5778 88.3913 69.1014 89.1591 69.5513L123.526 89.3846C124.294 89.8257 124.921 91.0168 124.921 92.049V98.6042C124.921 99.6276 124.294 100.104 123.526 99.6541Z" fill="#5793CE"/>
<path opacity="0.4" d="M122.538 97.3602L90.1387 78.6651C89.7503 78.4357 89.4326 77.8358 89.4326 77.3152V72.3922C89.4326 71.8717 89.7503 71.6335 90.1387 71.854L122.538 90.5492C122.926 90.7785 123.244 91.3785 123.244 91.899V96.822C123.244 97.3426 122.926 97.5808 122.538 97.3602Z" fill="#D4ECFF"/>
<path d="M96.8901 80.0679L92.0536 77.2799C91.6741 77.0594 91.3652 76.4771 91.3652 75.9654C91.3652 75.4625 91.6741 75.2243 92.0536 75.4448L96.8901 78.2328C97.2696 78.4533 97.5785 79.0356 97.5785 79.5473C97.5785 80.0502 97.2696 80.2884 96.8901 80.0679Z" fill="#D4ECFF"/>
<path d="M101.012 81.5325C101.012 82.0354 100.659 82.2383 100.218 81.9912C99.7769 81.7354 99.4238 81.1266 99.4238 80.6149C99.4238 80.1032 99.7769 79.9091 100.218 80.1561C100.659 80.412 101.012 81.0208 101.012 81.5325Z" fill="white"/>
<path d="M103.809 83.147C103.809 83.6499 103.456 83.8528 103.015 83.6057C102.574 83.3499 102.221 82.7411 102.221 82.2294C102.221 81.7177 102.574 81.5236 103.015 81.7706C103.456 82.0265 103.809 82.6353 103.809 83.147Z" fill="#173D7A"/>
<path d="M106.607 84.7527C106.607 85.2556 106.254 85.4585 105.813 85.2115C105.372 84.9556 105.019 84.3468 105.019 83.8351C105.019 83.3234 105.372 83.1293 105.813 83.3764C106.254 83.6322 106.607 84.241 106.607 84.7527Z" fill="#D4ECFF"/>
<path d="M109.396 86.3672C109.396 86.8701 109.043 87.0731 108.602 86.826C108.161 86.5702 107.808 85.9614 107.808 85.4497C107.808 84.938 108.161 84.7439 108.602 84.9909C109.043 85.2468 109.396 85.8555 109.396 86.3672Z" fill="#173D7A"/>
<path d="M121.179 94.6164L119.546 93.6724C119.299 93.5312 119.104 93.1518 119.104 92.8342V91.1138C119.104 90.7874 119.299 90.6374 119.546 90.7786L121.179 91.7226C121.426 91.8637 121.62 92.2431 121.62 92.5607V94.2811C121.62 94.6076 121.426 94.7576 121.179 94.6164Z" fill="#173D7A"/>
<path d="M123.526 111.212L89.1591 91.3785C88.3913 90.9373 87.7646 89.7463 87.7646 88.714V82.1588C87.7646 81.1354 88.3913 80.659 89.1591 81.1089L123.526 100.942C124.294 101.383 124.921 102.574 124.921 103.607V110.162C124.921 111.185 124.294 111.662 123.526 111.212Z" fill="#5793CE"/>
<path opacity="0.4" d="M122.538 108.909L90.1387 90.2139C89.7503 89.9845 89.4326 89.3846 89.4326 88.8641V83.941C89.4326 83.4205 89.7503 83.1823 90.1387 83.4028L122.538 102.098C122.926 102.327 123.244 102.927 123.244 103.448V108.371C123.244 108.891 122.926 109.13 122.538 108.909Z" fill="#D4ECFF"/>
<path d="M96.8901 91.6167L92.0536 88.8288C91.6741 88.6082 91.3652 88.0259 91.3652 87.5142C91.3652 87.0113 91.6741 86.7731 92.0536 86.9936L96.8901 89.7816C97.2696 90.0022 97.5785 90.5845 97.5785 91.0962C97.5785 91.5991 97.2696 91.8373 96.8901 91.6167Z" fill="#D4ECFF"/>
<path d="M101.012 93.0812C101.012 93.5841 100.659 93.787 100.218 93.54C99.7769 93.2842 99.4238 92.6754 99.4238 92.1637C99.4238 91.652 99.7769 91.4579 100.218 91.7049C100.659 91.9608 101.012 92.5695 101.012 93.0812Z" fill="#173D7A"/>
<path d="M103.809 94.6958C103.809 95.1987 103.456 95.4016 103.015 95.1546C102.574 94.8987 102.221 94.29 102.221 93.7782C102.221 93.2665 102.574 93.0724 103.015 93.3195C103.456 93.5753 103.809 94.1841 103.809 94.6958Z" fill="#173D7A"/>
<path d="M106.607 96.3103C106.607 96.8132 106.254 97.0161 105.813 96.7691C105.372 96.522 105.019 95.9045 105.019 95.3927C105.019 94.881 105.372 94.6869 105.813 94.934C106.254 95.1898 106.607 95.7986 106.607 96.3103Z" fill="#D4ECFF"/>
<path d="M109.396 97.9249C109.396 98.4277 109.043 98.6307 108.602 98.3836C108.161 98.1278 107.808 97.519 107.808 97.0073C107.808 96.4956 108.161 96.3015 108.602 96.5485C109.043 96.8044 109.396 97.4131 109.396 97.9249Z" fill="#173D7A"/>
<path d="M121.179 106.165L119.546 105.221C119.299 105.08 119.104 104.701 119.104 104.383V102.663C119.104 102.336 119.299 102.186 119.546 102.327L121.179 103.271C121.426 103.413 121.62 103.792 121.62 104.11V105.83C121.62 106.156 121.426 106.306 121.179 106.165Z" fill="#D4ECFF"/>
<path d="M123.526 122.761L89.1591 102.927C88.3913 102.486 87.7646 101.295 87.7646 100.263V93.7077C87.7646 92.6842 88.3913 92.2078 89.1591 92.6578L123.526 112.491C124.294 112.932 124.921 114.123 124.921 115.155V121.711C124.921 122.734 124.294 123.211 123.526 122.761Z" fill="#5793CE"/>
<path opacity="0.4" d="M122.538 120.467L90.1387 101.772C89.7503 101.542 89.4326 100.942 89.4326 100.422V95.4986C89.4326 94.9781 89.7503 94.7399 90.1387 94.9605L122.538 113.656C122.926 113.885 123.244 114.485 123.244 115.005V119.928C123.244 120.449 122.926 120.687 122.538 120.467Z" fill="#D4ECFF"/>
<path d="M96.8901 103.174L92.0536 100.386C91.6741 100.166 91.3652 99.5835 91.3652 99.0718C91.3652 98.5689 91.6741 98.3307 92.0536 98.5513L96.8901 101.339C97.2696 101.56 97.5785 102.142 97.5785 102.654C97.5785 103.157 97.2696 103.395 96.8901 103.174Z" fill="#D4ECFF"/>
<path d="M101.012 104.639C101.012 105.142 100.659 105.345 100.218 105.098C99.7769 104.842 99.4238 104.233 99.4238 103.721C99.4238 103.21 99.7769 103.016 100.218 103.263C100.659 103.518 101.012 104.127 101.012 104.639Z" fill="#173D7A"/>
<path d="M103.809 106.253C103.809 106.756 103.456 106.959 103.015 106.712C102.574 106.456 102.221 105.848 102.221 105.336C102.221 104.824 102.574 104.63 103.015 104.877C103.456 105.133 103.809 105.742 103.809 106.253Z" fill="white"/>
<path d="M106.607 107.859C106.607 108.362 106.254 108.565 105.813 108.318C105.372 108.071 105.019 107.453 105.019 106.942C105.019 106.43 105.372 106.236 105.813 106.483C106.254 106.739 106.607 107.347 106.607 107.859Z" fill="#D4ECFF"/>
<path d="M109.396 109.474C109.396 109.977 109.043 110.179 108.602 109.932C108.161 109.677 107.808 109.068 107.808 108.556C107.808 108.044 108.161 107.85 108.602 108.097C109.043 108.353 109.396 108.962 109.396 109.474Z" fill="white"/>
<path d="M121.179 117.723L119.546 116.779C119.299 116.638 119.104 116.258 119.104 115.941V114.22C119.104 113.894 119.299 113.744 119.546 113.885L121.179 114.829C121.426 114.97 121.62 115.35 121.62 115.667V117.388C121.62 117.714 121.426 117.864 121.179 117.723Z" fill="#D4ECFF"/>
<path d="M123.526 134.318L89.1591 114.485C88.3913 114.044 87.7646 112.853 87.7646 111.82V105.265C87.7646 104.242 88.3913 103.765 89.1591 104.215L123.526 124.049C124.294 124.49 124.921 125.681 124.921 126.713V133.268C124.921 134.292 124.294 134.768 123.526 134.318Z" fill="#5793CE"/>
<path opacity="0.4" d="M122.538 132.015L90.1387 113.32C89.7503 113.091 89.4326 112.491 89.4326 111.97V107.047C89.4326 106.527 89.7503 106.289 90.1387 106.509L122.538 125.204C122.926 125.434 123.244 126.034 123.244 126.554V131.477C123.244 131.998 122.926 132.236 122.538 132.015Z" fill="#D4ECFF"/>
<path d="M96.8901 114.723L92.0536 111.935C91.6741 111.715 91.3652 111.132 91.3652 110.621C91.3652 110.118 91.6741 109.88 92.0536 110.1L96.8901 112.888C97.2696 113.109 97.5785 113.691 97.5785 114.203C97.5785 114.706 97.2696 114.944 96.8901 114.723Z" fill="#D4ECFF"/>
<path d="M101.012 116.188C101.012 116.691 100.659 116.893 100.218 116.646C99.7769 116.391 99.4238 115.782 99.4238 115.27C99.4238 114.758 99.7769 114.564 100.218 114.811C100.659 115.067 101.012 115.676 101.012 116.188Z" fill="#173D7A"/>
<path d="M103.809 117.802C103.809 118.305 103.456 118.508 103.015 118.261C102.574 118.005 102.221 117.396 102.221 116.885C102.221 116.373 102.574 116.179 103.015 116.426C103.456 116.682 103.809 117.291 103.809 117.802Z" fill="#173D7A"/>
<path d="M106.607 119.417C106.607 119.92 106.254 120.123 105.813 119.876C105.372 119.62 105.019 119.011 105.019 118.499C105.019 117.987 105.372 117.793 105.813 118.04C106.254 118.287 106.607 118.905 106.607 119.417Z" fill="#D4ECFF"/>
<path d="M109.396 121.031C109.396 121.534 109.043 121.737 108.602 121.49C108.161 121.234 107.808 120.625 107.808 120.114C107.808 119.602 108.161 119.408 108.602 119.655C109.043 119.911 109.396 120.52 109.396 121.031Z" fill="#173D7A"/>
<path d="M121.179 129.272L119.546 128.328C119.299 128.186 119.104 127.807 119.104 127.489V125.769C119.104 125.443 119.299 125.293 119.546 125.434L121.179 126.378C121.426 126.519 121.62 126.898 121.62 127.216V128.936C121.62 129.263 121.426 129.413 121.179 129.272Z" fill="#173D7A"/>
<path d="M123.526 145.867L89.1591 126.034C88.3913 125.593 87.7646 124.402 87.7646 123.369V116.814C87.7646 115.791 88.3913 115.314 89.1591 115.764L123.526 135.597C124.294 136.039 124.921 137.23 124.921 138.262V144.817C124.921 145.841 124.294 146.317 123.526 145.867Z" fill="#5793CE"/>
<path opacity="0.4" d="M122.538 143.573L90.1387 124.878C89.7503 124.649 89.4326 124.049 89.4326 123.528V118.605C89.4326 118.085 89.7503 117.846 90.1387 118.067L122.538 136.762C122.926 136.991 123.244 137.591 123.244 138.112V143.035C123.244 143.555 122.926 143.794 122.538 143.573Z" fill="#D4ECFF"/>
<path d="M96.8901 126.281L92.0536 123.493C91.6741 123.272 91.3652 122.69 91.3652 122.178C91.3652 121.675 91.6741 121.437 92.0536 121.658L96.8901 124.446C97.2696 124.666 97.5785 125.249 97.5785 125.76C97.5785 126.263 97.2696 126.501 96.8901 126.281Z" fill="#D4ECFF"/>
<path d="M101.894 128.372C101.894 129.325 101.224 129.713 100.394 129.236C99.5643 128.76 98.8936 127.595 98.8936 126.642C98.8936 125.69 99.5643 125.301 100.394 125.778C101.224 126.254 101.894 127.419 101.894 128.372Z" fill="white"/>
<path d="M107.684 131.751C107.684 132.254 107.331 132.457 106.89 132.21C106.449 131.954 106.096 131.345 106.096 130.833C106.096 130.322 106.449 130.127 106.89 130.374C107.331 130.63 107.684 131.239 107.684 131.751Z" fill="#173D7A"/>
<path d="M110.482 133.365C110.482 133.868 110.129 134.071 109.688 133.824C109.247 133.577 108.894 132.96 108.894 132.448C108.894 131.936 109.247 131.742 109.688 131.989C110.129 132.245 110.482 132.854 110.482 133.365Z" fill="#D4ECFF"/>
<path d="M113.28 134.98C113.28 135.483 112.927 135.686 112.486 135.439C112.044 135.183 111.691 134.574 111.691 134.062C111.691 133.551 112.044 133.357 112.486 133.604C112.927 133.859 113.28 134.468 113.28 134.98Z" fill="#173D7A"/>
<path d="M121.179 140.829L119.546 139.885C119.299 139.744 119.104 139.365 119.104 139.047V137.327C119.104 137 119.299 136.85 119.546 136.991L121.179 137.935C121.426 138.077 121.62 138.456 121.62 138.774V140.494C121.62 140.82 121.426 140.97 121.179 140.829Z" fill="#D4ECFF"/>
<path d="M138.892 139.559C138.892 139.559 136.932 139.109 135.176 141.562C133.411 144.006 135.15 148.796 132.493 152.061C129.836 155.325 130.834 158.775 130.834 158.775C130.834 158.775 133.402 162.427 137.744 160.151C142.087 157.875 144.611 152.916 144.611 152.916C144.611 152.916 143.419 149.634 144.267 147.04C145.114 144.447 138.901 139.568 138.901 139.568L138.892 139.559Z" fill="#282828"/>
<path d="M146.967 192.23C146.967 192.23 146.897 188.754 143.764 188.551C140.639 188.348 140.595 192.098 140.683 194.506C140.772 196.915 142.413 209.602 142.66 211.366C142.952 213.448 145.361 214.11 145.555 211.896C145.661 210.704 145.732 209.425 145.899 207.475C146.376 201.988 147.02 194.312 146.958 192.23H146.967Z" fill="#F7CB9C"/>
<path d="M145.538 211.569C145.538 211.569 149.536 213.784 149.545 215.028C149.545 216.272 141.663 214.181 141.443 213.484C141.222 212.787 142.616 210.757 142.616 210.757C142.616 210.757 143.093 212.787 145.538 211.569Z" fill="#0A1416"/>
<path d="M140.498 192.618C140.498 192.618 140.807 189.151 137.718 188.613C134.629 188.074 134.179 191.789 134.003 194.197C133.826 196.597 134.064 209.39 134.117 211.172C134.179 213.272 136.5 214.189 136.933 212.019C137.171 210.846 137.383 209.584 137.762 207.661C138.839 202.252 140.322 194.7 140.489 192.627L140.498 192.618Z" fill="#F7CB9C"/>
<path d="M136.959 211.693C136.959 211.693 140.693 214.331 140.569 215.566C140.445 216.801 132.829 213.863 132.679 213.148C132.529 212.434 134.144 210.563 134.144 210.563C134.144 210.563 134.4 212.628 136.959 211.693Z" fill="#0A1416"/>
<path d="M144.541 164.906C144.541 164.906 148.168 172.732 149.889 182.693C151.61 192.653 152.528 194.33 152.528 194.33C152.528 194.33 136.015 198 126.545 193.597C126.545 193.597 129.502 186.583 130.208 178.82C130.922 171.056 135.477 165.25 135.477 165.25L144.532 164.906H144.541Z" fill="#144FA5"/>
<path d="M150.551 161.457C150.251 161.88 149.713 163.009 150.957 163.486C152.96 164.245 160.303 161.501 160.983 160.61C161.663 159.71 161.186 159.251 159.138 159.357C157.091 159.454 151.901 159.551 150.551 161.465V161.457Z" fill="#7CAFD1"/>
<path d="M160.189 159.322C159.818 159.56 159.977 160.768 160.692 160.927C161.398 161.086 164.195 160.671 164.469 160.195C164.743 159.719 163.79 158.704 161.76 159.013C161.76 159.013 162.845 158.475 162.36 158.148C162.121 157.989 161.38 158.58 160.189 159.33V159.322Z" fill="#F7CB9C"/>
<path d="M150.498 163.239C148.583 161.836 142.634 157.284 141.258 154.743C139.881 152.202 142.67 150.358 144.488 151.249C146.315 152.14 150.445 158.325 151.866 160.239C153.402 162.295 152.149 164.456 150.489 163.239H150.498Z" fill="#7CAFD1"/>
<path d="M138.601 139.682C138.601 139.682 137.091 140.009 136.253 141.509C135.247 143.3 134.461 146.679 137.683 148.981C143.605 153.216 138.601 139.682 138.601 139.682Z" fill="#2A1E6B"/>
<path d="M140.922 149.934C143.652 149.934 145.864 147.469 145.864 144.429C145.864 141.388 143.652 138.924 140.922 138.924C138.192 138.924 135.979 141.388 135.979 144.429C135.979 147.469 138.192 149.934 140.922 149.934Z" fill="#282828"/>
<path d="M145.291 160.751C144.823 161.951 144.62 162.965 144.532 163.689C144.435 164.465 144.532 164.906 144.532 164.906C143.658 166.309 142.405 166.874 141.169 166.962C140.234 167.032 139.28 166.847 138.424 166.565C138.089 166.459 137.771 166.336 137.48 166.212C136.341 165.727 135.45 165.391 135.45 165.242C135.476 164.024 135.335 162.286 134.947 161.139C133.773 157.672 131.417 154.76 132.264 153.834C133.42 152.563 136.862 152.016 136.862 152.016L139.916 151.09C139.916 151.09 143.04 150.799 143.931 151.249C144.479 151.522 144.69 152.44 145.114 153.19C145.705 154.24 146.403 155.272 146.403 156.56C146.403 158.977 145.344 160.592 145.291 160.742V160.751Z" fill="#8CC1ED"/>
<path d="M142.007 148.752V152.678C142.007 153.049 141.884 153.393 141.69 153.675C141.381 154.099 140.878 154.381 140.313 154.381C139.827 154.381 139.386 154.178 139.077 153.843C138.795 153.534 138.618 153.128 138.618 152.678V148.752C138.618 147.817 139.377 147.049 140.322 147.049C140.789 147.049 141.213 147.243 141.522 147.543C141.831 147.852 142.016 148.276 142.016 148.743L142.007 148.752Z" fill="#F7CB9C"/>
<g opacity="0.25">
<path d="M142.007 149.749V151.752C141.301 151.655 139.112 151.196 138.821 149.273C138.521 147.314 141.213 149.158 142.007 149.749Z" fill="black"/>
</g>
<path d="M145.715 145.496C145.715 148.276 143.888 150.525 141.637 150.525C139.386 150.525 137.56 148.276 137.56 145.496C137.56 142.717 139.386 140.468 141.637 140.468C143.888 140.468 145.715 142.717 145.715 145.496Z" fill="#F7CB9C"/>
<path d="M138.203 146.696C138.671 147.508 138.601 148.426 138.045 148.752C137.489 149.07 136.659 148.673 136.182 147.861C135.715 147.049 135.785 146.132 136.341 145.805C136.897 145.488 137.727 145.885 138.203 146.696Z" fill="#F7CB9C"/>
<path d="M131.973 166.388C131.452 166.415 130.234 166.706 130.64 167.977C131.293 170.023 138.018 174.046 139.139 174.011C140.26 173.976 140.322 173.323 138.971 171.788C137.621 170.253 134.303 166.256 131.973 166.388Z" fill="#7CAFD1"/>
<path d="M139.651 172.591C139.236 172.441 138.389 173.332 138.706 173.985C139.024 174.638 141.089 176.57 141.628 176.482C142.166 176.393 142.369 175.017 140.869 173.623C140.869 173.623 141.963 174.144 141.919 173.552C141.901 173.27 140.975 173.058 139.642 172.591H139.651Z" fill="#F7CB9C"/>
<path d="M130.552 167.456C130.455 165.083 130.305 157.601 131.435 154.937C132.564 152.281 135.751 153.305 136.183 155.281C136.624 157.266 134.356 164.35 133.756 166.653C133.103 169.132 130.64 169.503 130.552 167.447V167.456Z" fill="#7CAFD1"/>
</g>
<defs>
<clipPath id="clip0_155_645">
<rect width="272" height="229" fill="white" transform="translate(4 25.5)"/>
</clipPath>
</defs>
</svg>
