<svg width="129" height="24" viewBox="0 0 129 24" fill="none" xmlns="http://www.w3.org/2000/svg">
<g clip-path="url(#clip0_155_95)">
<path d="M19.4834 2.37806L18.6366 6.57355C17.6743 5.83241 16.6543 5.1815 15.5829 4.6337C14.5051 4.0859 13.2605 3.80878 11.8492 3.80878C10.534 3.80878 9.47548 4.13102 8.67356 4.77549C7.87164 5.41995 7.47389 6.15465 7.47389 6.98601C7.47389 7.50803 7.63427 7.94627 7.96146 8.30073C8.28864 8.65518 8.7313 8.95808 9.28944 9.19654C9.84757 9.44144 10.5597 9.69922 11.4322 9.97634L11.8812 10.1117C12.9077 10.4339 13.8251 10.7755 14.6206 11.1428C15.4225 11.5102 16.1731 12.116 16.8724 12.9667C17.5717 13.8174 17.9245 14.9001 17.9245 16.2212C17.9245 17.7422 17.469 19.0891 16.5645 20.2749C15.6599 21.4608 14.473 22.3695 13.0039 23.0204C11.5348 23.6713 9.96305 23.9935 8.28223 23.9935C6.6014 23.9935 5.06813 23.7357 3.78506 23.2202C2.49557 22.7046 1.23816 22.073 0 21.3319L0.846827 17.0397C1.90536 17.9033 3.04088 18.6638 4.25338 19.3211C5.46588 19.9785 6.83236 20.3007 8.3528 20.3007C9.21245 20.3007 10.0272 20.1332 10.797 19.8045C11.5669 19.4694 12.1892 19.0118 12.6639 18.4318C13.1387 17.8517 13.376 17.2008 13.376 16.4919C13.376 15.6026 13.0296 14.9194 12.3431 14.4425C11.6503 13.9656 10.5533 13.5209 9.03924 13.1085C8.32072 12.9087 7.78824 12.7347 7.44823 12.5929C5.99836 12.0515 4.87567 11.3426 4.06734 10.479C3.259 9.61544 2.86125 8.50696 2.86125 7.15357C2.86125 6.09665 3.16277 5.02038 3.76581 3.92479C4.36886 2.82919 5.34399 1.89471 6.69763 1.13424C8.05127 0.373767 9.75776 -0.00646973 11.8235 -0.00646973C13.3055 -0.00646973 14.5949 0.186871 15.6984 0.573552C16.8018 0.960233 18.0656 1.55959 19.4899 2.37162L19.4834 2.37806Z" fill="#4680FF"/>
<path d="M36.163 12.4318C36.163 13.3663 35.9321 14.1654 35.4702 14.8357C35.0083 15.5059 34.3347 16.0279 33.4558 16.3888C32.5768 16.7562 31.5119 16.9366 30.2673 16.9366H24.532C24.7437 18.3351 25.2954 19.2438 26.2 19.6627C27.0981 20.0816 27.8936 20.2943 28.5801 20.2943C30.5047 20.2943 32.5255 19.4887 34.6426 17.884L33.6995 22.5628C32.9618 22.8851 32.2946 23.1493 31.7044 23.3555C31.1141 23.5618 30.5047 23.7164 29.8824 23.8324C29.2601 23.942 28.5865 24 27.868 24C26.1679 24 24.7501 23.6391 23.6082 22.9109C22.4727 22.1826 21.6322 21.2546 21.0998 20.1139C20.5609 18.9796 20.2979 17.768 20.2979 16.4919C20.2979 15.2159 20.5481 14.0816 21.042 12.9667C21.536 11.8453 22.2225 10.8722 23.0949 10.0408C23.9674 9.20945 24.9811 8.55854 26.1294 8.09452C27.2778 7.63051 28.4518 7.3985 29.6579 7.3985C30.8639 7.3985 31.9417 7.60473 32.9361 8.02363C33.9305 8.44254 34.7196 9.029 35.297 9.79592C35.8743 10.5628 36.1694 11.4458 36.1694 12.4447L36.163 12.4318ZM32.2048 12.464C32.2048 11.9098 31.9546 11.4586 31.4606 11.1171C30.9666 10.7755 30.3635 10.6015 29.6579 10.6015C28.5672 10.6015 27.5665 10.9624 26.6683 11.6842C25.7702 12.406 25.1607 13.2825 24.8399 14.3136H28.5159C30.9794 14.3136 32.2112 13.695 32.2112 12.464H32.2048Z" fill="#4680FF"/>
<path d="M53.4911 12.0966C53.4911 12.5929 53.4334 13.0827 53.3243 13.5596L51.2522 23.6133H47.0758L49.0132 14.0429C49.0774 13.7465 49.1094 13.4307 49.1094 13.1085C49.1094 12.5542 48.9555 12.1095 48.6539 11.7744C48.3524 11.4393 47.929 11.2782 47.3837 11.2782C46.5241 11.2782 45.7542 11.594 45.0806 12.2255C44.407 12.8571 43.8681 13.624 43.4639 14.5327C43.0598 15.435 42.7711 16.305 42.5914 17.1364L41.2635 23.6133H37.1191L40.3525 7.77227H44.0798L43.9451 10.0215L44.0092 10.0859C44.5032 9.42855 45.1576 8.8163 45.9723 8.24917C46.7871 7.67559 47.7943 7.39203 48.994 7.39203C49.8857 7.39203 50.6748 7.57892 51.3548 7.95272C52.0348 8.32651 52.5545 8.86142 52.9202 9.56389C53.2858 10.2664 53.4655 11.1171 53.4655 12.1031L53.4911 12.0966Z" fill="#4680FF"/>
<path d="M75.3804 0.367346L70.6907 23.6198H66.8287L66.9955 21.3061C66.2192 22.0859 65.4301 22.724 64.609 23.2395C63.7942 23.7487 62.8448 24.0064 61.7734 24.0064C59.9963 24.0064 58.6555 23.3491 57.7574 22.0344C56.8592 20.7197 56.4102 19.1794 56.4102 17.4135C56.4102 16.1246 56.6475 14.8808 57.1223 13.6692C57.597 12.4576 58.2385 11.3878 59.0469 10.4468C59.8552 9.51235 60.779 8.77121 61.8247 8.22341C62.8704 7.68206 63.9161 7.40494 64.9618 7.40494C65.9562 7.40494 66.7838 7.59828 67.4382 7.97852C68.0925 8.35875 68.7276 8.85499 69.3371 9.46724L71.1398 0.360901H75.3804V0.367346ZM68.6891 12.6831C68.2593 12.1869 67.8167 11.7744 67.3612 11.4522C66.9057 11.13 66.3219 10.9688 65.6034 10.9688C64.7437 10.9688 63.9354 11.2653 63.1848 11.8582C62.4342 12.4511 61.8504 13.2116 61.4398 14.1461C61.0228 15.0806 60.8175 16.0215 60.8175 16.9753C60.8175 17.8067 61.0356 18.5349 61.4783 19.1665C61.9209 19.7981 62.5176 20.1074 63.2682 20.1074C63.7622 20.1074 64.3524 19.9463 65.026 19.6305C65.6996 19.3147 66.3989 18.5994 67.1238 17.4909C67.8487 16.3824 68.3684 14.7777 68.6891 12.6831Z" fill="#4680FF"/>
<path d="M84.0797 13.7272L83.6178 16.0279C83.4317 16.9366 82.6362 17.5875 81.7188 17.5875H75.4189L75.8809 15.2868C76.0669 14.3781 76.8624 13.7272 77.7798 13.7272H84.0797Z" fill="#28D278"/>
<path d="M113.064 0.367371L108.509 23.6198H104.134L107.399 7.02473L107.335 6.96028L97.8274 19.2954L93.157 6.28359H93.0928L89.6286 23.6262H85.4521L90.1546 0.367371H95.011L99.1554 11.7487L108.009 0.367371H113.064Z" fill="#28D278"/>
<path d="M129 12.4318C129 13.3663 128.769 14.1654 128.307 14.8357C127.845 15.5059 127.172 16.0279 126.293 16.3888C125.414 16.7562 124.349 16.9366 123.104 16.9366H117.369C117.581 18.3351 118.132 19.2438 119.037 19.6627C119.935 20.0816 120.731 20.2943 121.417 20.2943C123.342 20.2943 125.362 19.4887 127.48 17.884L126.536 22.5628C125.799 22.8851 125.131 23.1493 124.541 23.3555C123.951 23.5618 123.342 23.7164 122.719 23.8324C122.097 23.942 121.423 24 120.705 24C119.005 24 117.587 23.6391 116.445 22.9109C115.31 22.1826 114.469 21.2546 113.937 20.1139C113.398 18.9796 113.135 17.768 113.135 16.4919C113.135 15.2159 113.385 14.0816 113.879 12.9667C114.373 11.8453 115.059 10.8722 115.932 10.0408C116.804 9.20945 117.818 8.55854 118.966 8.09452C120.115 7.63051 121.289 7.3985 122.495 7.3985C123.701 7.3985 124.779 7.60473 125.773 8.02363C126.767 8.44254 127.556 9.029 128.134 9.79592C128.711 10.5628 129.006 11.4458 129.006 12.4447L129 12.4318ZM125.042 12.464C125.042 11.9098 124.791 11.4586 124.297 11.1171C123.804 10.7755 123.2 10.6015 122.495 10.6015C121.404 10.6015 120.403 10.9624 119.505 11.6842C118.607 12.406 117.998 13.2825 117.677 14.3136H121.353C123.816 14.3136 125.048 13.695 125.048 12.464H125.042Z" fill="#28D278"/>
</g>
<defs>
<clipPath id="clip0_155_95">
<rect width="129" height="24" fill="white"/>
</clipPath>
</defs>
</svg>
