<svg width="280" height="280" viewBox="0 0 280 280" fill="none" xmlns="http://www.w3.org/2000/svg">
<path d="M137.056 252.567L136.461 262.515L7.18802 188.085V177.194L137.056 252.567Z" fill="#E2E2ED"/>
<path d="M279.974 179.781L136.461 262.515L137.055 252.567L137.348 252.744L279.832 169.246L279.974 179.781Z" fill="#CACAE0"/>
<path d="M280 169.175L279.831 169.273L222.19 203.048L218.943 204.95L208.51 211.067L205.254 212.969L137.516 252.665L137.49 252.656L137.224 252.496L84.5775 221.975L81.3215 220.081L70.551 213.84L67.3038 211.956L7.1875 177.194L76.0605 136.379L79.3342 134.503L91.9856 127.275L95.2771 125.399L150.434 93.9005L208.616 127.702L211.846 129.578L223.193 136.165L226.413 138.041L275.972 166.828L280 169.175Z" fill="#F2F2F9"/>
<path d="M188.902 202.914L188.397 211.271L79.733 148.701V139.553L188.902 202.914Z" fill="#E2E2ED"/>
<path d="M252.843 173.941L188.397 211.271L188.903 202.914L189.151 203.057L252.727 165.086L252.843 173.941Z" fill="#CACAE0"/>
<path d="M252.869 165.024L252.727 165.104L189.293 202.994L189.275 202.986L189.044 202.852L144.791 177.186L142.05 175.603L133 170.349L130.268 168.767L79.733 139.553L143.948 101.742L252.869 165.024Z" fill="#F2F2F9"/>
<path d="M144.348 211.155C131.377 220.285 157.381 234.323 168.852 226.553C180.323 218.783 153.486 204.727 144.348 211.155Z" fill="#CACAE0"/>
<path d="M222.6 100.054L222.653 100.09L173.334 22.4861C170.974 18.7788 167.478 16.7518 165.127 17.7297L115.764 38.2398L115.817 38.2754C115.258 38.5332 114.903 39.1555 114.903 40.089V116.777C114.903 118.529 116.136 120.662 117.662 121.542L220.754 181.188C222.28 182.068 223.514 181.366 223.514 179.614V102.935C223.514 102.001 223.159 100.961 222.6 100.063V100.054Z" fill="url(#paint0_linear_155_646)"/>
<path style="mix-blend-mode:color-dodge" d="M222.44 181.126V104.446C222.44 103.513 222.085 102.473 221.526 101.575L221.58 101.61L172.26 23.9976C169.9 20.2903 166.405 18.2633 164.054 19.2413L114.948 39.6446C115.045 38.9601 115.356 38.4889 115.817 38.2755L115.764 38.24L165.127 17.7388C167.487 16.7608 170.983 18.779 173.334 22.4951L222.653 100.09L222.6 100.055C223.159 100.961 223.514 101.993 223.514 102.926V179.615C223.514 180.655 223.07 181.313 222.405 181.499C222.422 181.375 222.44 181.259 222.44 181.126Z" fill="url(#paint1_radial_155_646)"/>
<path d="M208.867 78.1662C208.867 72.3964 204.795 65.3641 199.782 62.457L137.546 27.1089C132.524 24.2017 128.461 26.531 128.461 32.3008V44.5873L208.867 90.4171V78.1662Z" fill="#4680FF"/>
<path d="M137.546 121.969L199.782 157.317C204.804 160.224 208.867 157.895 208.867 152.125V86.3541L128.461 40.5243V106.269C128.461 112.038 132.533 119.071 137.546 121.978V121.969Z" fill="white"/>
<path style="mix-blend-mode:color-dodge" d="M199.782 62.457L137.546 27.1089C132.524 24.2017 128.461 26.531 128.461 32.3008V33.181C128.461 27.4111 132.533 25.0908 137.546 27.989L199.782 63.3371C204.804 66.2443 208.867 73.2676 208.867 79.0464V78.1662C208.867 72.3964 204.795 65.3641 199.782 62.457Z" fill="url(#paint2_radial_155_646)"/>
<path d="M188.097 87.1987L154.65 68.1378C154.463 68.0311 154.339 67.8266 154.339 67.6043V64.4571C154.339 63.986 154.845 63.6926 155.253 63.9237L188.7 82.9847C188.887 83.0913 189.011 83.2958 189.011 83.5181V86.6653C189.011 87.1365 188.505 87.4298 188.097 87.1987Z" fill="#DFE7F2"/>
<path d="M186.999 96.9871L164.863 84.3806C164.632 84.2473 164.49 84.0072 164.49 83.7405V80.8689C164.49 80.3088 165.094 79.9532 165.582 80.2288L187.717 92.8353C187.948 92.9687 188.09 93.2087 188.09 93.4755V96.347C188.09 96.9071 187.487 97.2627 186.999 96.9871Z" fill="#DFE7F2"/>
<path d="M175.128 100.685L152.682 87.91C152.504 87.8033 152.389 87.6166 152.389 87.4032V84.176C152.389 83.7315 152.868 83.4559 153.249 83.6693L175.696 96.4447C175.873 96.5514 175.988 96.7381 175.988 96.9515V100.179C175.988 100.623 175.509 100.899 175.128 100.685Z" fill="#DFE7F2"/>
<path opacity="0.2" d="M173.361 121.702C170.956 122.698 167.399 120.636 165.003 116.866L114.903 41.2002V113.603C114.903 115.355 116.136 117.488 117.662 118.369L220.754 178.023C222.28 178.903 223.514 178.201 223.514 176.449V104.046L173.361 121.711V121.702Z" fill="black"/>
<path d="M173.361 124.876C170.956 125.872 167.399 123.809 165.003 120.04L114.903 41.2002V116.777C114.903 118.529 116.136 120.662 117.662 121.542L220.754 181.188C222.28 182.068 223.514 181.366 223.514 179.614V104.046L173.361 124.885V124.876Z" fill="url(#paint3_linear_155_646)"/>
<path style="mix-blend-mode:color-dodge" d="M172.288 126.823C169.884 127.819 166.326 125.756 163.931 121.987L114.904 41.2002L165.013 120.031C167.408 123.809 170.975 125.863 173.37 124.867L223.523 104.028L172.297 126.806L172.288 126.823Z" fill="url(#paint4_radial_155_646)"/>
<path opacity="0.2" d="M117.388 121.454L117.335 121.418L164.702 99.3611C166.964 98.4187 170.318 100.357 172.589 103.922L220.001 180.806L219.948 180.77L117.397 121.445L117.388 121.454Z" fill="black"/>
<path d="M117.388 121.454L117.335 121.418L164.702 101.699C166.964 100.757 170.318 102.695 172.589 106.26L220.001 180.806L219.948 180.77L117.397 121.445L117.388 121.454Z" fill="url(#paint5_linear_155_646)"/>
<path style="mix-blend-mode:color-dodge" d="M171.934 107.398C169.671 103.842 166.309 101.895 164.047 102.837L118.196 121.925L117.38 121.454L117.327 121.418L164.694 101.699C166.957 100.757 170.31 102.695 172.581 106.26L219.993 180.815L219.94 180.779L217.828 179.561L171.943 107.398H171.934Z" fill="url(#paint6_radial_155_646)"/>
<path d="M72.9394 164.117C73.0636 164.117 73.179 164.081 73.2854 164.001L74.217 163.299C74.4743 163.103 74.5275 162.739 74.3323 162.481C74.1371 162.223 73.7823 162.17 73.5161 162.365L72.5846 163.059C72.3273 163.254 72.2741 163.619 72.4604 163.877C72.5757 164.028 72.7531 164.108 72.9306 164.108L72.9394 164.117Z" fill="#C6CDDB"/>
<path d="M24.5785 184.626C24.8979 184.626 25.1551 184.369 25.1551 184.049C25.1551 183.729 24.8979 183.462 24.5785 183.462C23.7889 183.462 23.0347 183.417 22.325 183.337C21.9967 183.302 21.7217 183.533 21.6862 183.853C21.6507 184.173 21.8814 184.458 22.2008 184.493C22.946 184.573 23.7445 184.618 24.5696 184.626H24.5785ZM26.894 184.555C26.894 184.555 26.9207 184.555 26.9295 184.555C27.6748 184.502 28.4644 184.431 29.2717 184.324C29.5911 184.28 29.8129 183.995 29.7774 183.675C29.7331 183.355 29.4403 183.133 29.1298 183.168C28.3491 183.266 27.5861 183.346 26.8586 183.391C26.5392 183.408 26.2996 183.693 26.3174 184.013C26.3351 184.324 26.5924 184.555 26.894 184.555ZM19.9917 184.102C20.249 184.102 20.4885 183.924 20.5595 183.657C20.6393 183.346 20.4441 183.026 20.1336 182.955C19.3706 182.768 18.6786 182.528 18.0576 182.235C17.7648 182.093 17.4188 182.226 17.2857 182.519C17.1526 182.813 17.2769 183.16 17.5696 183.293C18.2528 183.613 19.0246 183.88 19.8586 184.084C19.9029 184.093 19.9562 184.102 20.0005 184.102H19.9917ZM31.4897 183.969C31.4897 183.969 31.5607 183.969 31.5962 183.96C32.3414 183.826 33.1133 183.675 33.894 183.497C34.2045 183.426 34.4086 183.115 34.3376 182.804C34.2666 182.493 33.9561 182.297 33.6456 182.359C32.8826 182.528 32.1285 182.679 31.401 182.813C31.0816 182.866 30.8776 183.168 30.9308 183.488C30.984 183.773 31.2236 183.969 31.4986 183.969H31.4897ZM36.0056 182.964C36.0588 182.964 36.1031 182.964 36.1564 182.946C36.8927 182.751 37.6468 182.537 38.401 182.315C38.7115 182.226 38.8801 181.897 38.7913 181.586C38.7026 181.275 38.3832 181.097 38.0638 181.195C37.3186 181.417 36.5733 181.63 35.8547 181.817C35.5442 181.897 35.3579 182.217 35.4377 182.528C35.5087 182.786 35.7394 182.964 35.9967 182.964H36.0056ZM15.8662 182.102C16.0259 182.102 16.1856 182.03 16.3009 181.906C16.5139 181.666 16.4872 181.293 16.2477 181.088C15.7065 180.617 15.2629 180.066 14.9347 179.452C14.7838 179.168 14.429 179.061 14.145 179.212C13.8611 179.363 13.7547 179.719 13.9055 180.003C14.2959 180.741 14.8282 181.399 15.4758 181.959C15.5823 182.057 15.7243 182.102 15.8573 182.102H15.8662ZM40.4504 181.639C40.5125 181.639 40.5746 181.63 40.6367 181.613C41.3642 181.373 42.1006 181.115 42.8369 180.848C43.1386 180.741 43.2983 180.404 43.183 180.101C43.0765 179.799 42.7394 179.648 42.4377 179.755C41.7013 180.021 40.9827 180.27 40.2641 180.51C39.9624 180.608 39.7939 180.937 39.8914 181.248C39.9713 181.488 40.202 181.648 40.4415 181.648L40.4504 181.639ZM44.8065 180.057C44.8775 180.057 44.9485 180.048 45.0195 180.012C45.7292 179.737 46.4478 179.443 47.1753 179.132C47.4681 179.008 47.6101 178.67 47.4859 178.368C47.3617 178.074 47.0245 177.932 46.7229 178.056C46.0042 178.359 45.2945 178.643 44.5936 178.928C44.292 179.043 44.15 179.381 44.2653 179.683C44.3541 179.915 44.5758 180.057 44.8065 180.057ZM49.0739 178.261C49.1538 178.261 49.2336 178.243 49.3135 178.208C50.0144 177.896 50.7152 177.567 51.425 177.23C51.7178 177.096 51.842 176.75 51.7 176.456C51.567 176.163 51.2209 176.038 50.9282 176.181C50.2273 176.51 49.5264 176.83 48.8344 177.141C48.5416 177.274 48.4085 177.612 48.5416 177.905C48.6392 178.119 48.8521 178.252 49.0739 178.252V178.261ZM13.7103 178.119C13.7103 178.119 13.7724 178.119 13.7991 178.119C14.1184 178.074 14.3314 177.772 14.287 177.452C14.2338 177.079 14.1983 176.678 14.1983 176.261C14.1983 175.941 14.216 175.612 14.2515 175.283C14.287 174.963 14.0475 174.678 13.7369 174.643C13.4176 174.598 13.1337 174.847 13.0982 175.158C13.0627 175.532 13.0449 175.896 13.0449 176.252C13.0449 176.723 13.0804 177.185 13.1425 177.612C13.1869 177.896 13.4353 178.11 13.7192 178.11L13.7103 178.119ZM53.2615 176.278C53.3502 176.278 53.4389 176.261 53.5188 176.216C54.2019 175.869 54.8939 175.523 55.5948 175.158C55.8787 175.007 55.9941 174.66 55.8432 174.376C55.6924 174.091 55.3464 173.976 55.0625 174.127C54.3705 174.483 53.6873 174.838 53.0131 175.176C52.7292 175.318 52.605 175.665 52.7558 175.958C52.8622 176.163 53.0663 176.278 53.2792 176.278H53.2615ZM57.3692 174.127C57.4668 174.127 57.5555 174.1 57.6442 174.056C58.3185 173.682 58.9928 173.309 59.6759 172.918C59.9509 172.758 60.0485 172.402 59.8888 172.127C59.7291 171.851 59.3743 171.753 59.0992 171.913C58.425 172.295 57.7596 172.678 57.0853 173.042C56.8014 173.193 56.7038 173.549 56.8546 173.834C56.9611 174.029 57.1563 174.136 57.3692 174.136V174.127ZM14.1096 173.522C14.3668 173.522 14.5975 173.353 14.6685 173.096C14.8548 172.42 15.1032 171.7 15.396 170.971C15.5202 170.669 15.3694 170.331 15.0766 170.215C14.775 170.1 14.4378 170.242 14.3225 170.535C14.012 171.309 13.7458 172.073 13.5506 172.793C13.4619 173.105 13.6482 173.425 13.9587 173.505C14.012 173.522 14.0652 173.522 14.1096 173.522ZM61.3882 171.824C61.4858 171.824 61.5923 171.798 61.681 171.744C62.3464 171.353 63.0029 170.944 63.6683 170.535C63.9433 170.366 64.0232 170.011 63.8546 169.735C63.686 169.459 63.3312 169.379 63.0561 169.548C62.3996 169.957 61.7431 170.357 61.0866 170.749C60.8115 170.909 60.7228 171.273 60.8825 171.549C60.989 171.735 61.1841 171.833 61.3793 171.833L61.3882 171.824ZM65.3273 169.379C65.4338 169.379 65.5403 169.353 65.6379 169.291C66.2855 168.873 66.9332 168.446 67.5808 168.01C67.847 167.833 67.918 167.468 67.7405 167.201C67.5631 166.935 67.1993 166.863 66.9332 167.041C66.2855 167.468 65.6467 167.895 64.9991 168.304C64.7329 168.482 64.6531 168.837 64.8217 169.113C64.937 169.282 65.1233 169.379 65.3096 169.379H65.3273ZM15.8219 169.219C16.0348 169.219 16.2388 169.104 16.3364 168.899C16.6647 168.25 17.0373 167.575 17.4365 166.899C17.5962 166.623 17.5075 166.268 17.2325 166.099C16.9575 165.939 16.6026 166.028 16.434 166.303C16.0259 166.997 15.6444 167.69 15.2984 168.366C15.1565 168.65 15.2718 169.006 15.5557 169.148C15.6355 169.193 15.7331 169.211 15.813 169.211L15.8219 169.219ZM69.1778 166.81C69.2931 166.81 69.4085 166.775 69.506 166.703C70.136 166.268 70.7747 165.814 71.4046 165.361C71.6619 165.174 71.724 164.81 71.5377 164.552C71.3514 164.294 70.9877 164.232 70.7304 164.419C70.1005 164.872 69.4706 165.317 68.8406 165.752C68.5745 165.939 68.5124 166.295 68.6898 166.561C68.8052 166.721 68.9826 166.81 69.1689 166.81H69.1778ZM18.164 165.228C18.3504 165.228 18.5367 165.139 18.652 164.97C19.0601 164.356 19.4949 163.725 19.9562 163.085C20.1425 162.827 20.0893 162.463 19.8231 162.276C19.5658 162.089 19.2021 162.143 19.0157 162.409C18.5367 163.067 18.0931 163.707 17.685 164.339C17.5075 164.605 17.5785 164.97 17.8447 165.148C17.9423 165.21 18.0576 165.245 18.164 165.245V165.228ZM20.87 161.467C21.0474 161.467 21.216 161.387 21.3313 161.245L22.7509 159.413C22.946 159.156 22.9017 158.791 22.6444 158.595C22.3871 158.4 22.0233 158.444 21.8282 158.702L20.4086 160.534C20.2135 160.791 20.2578 161.156 20.5151 161.351C20.6216 161.431 20.7458 161.476 20.87 161.476V161.467ZM23.709 157.804C23.8865 157.804 24.055 157.724 24.1704 157.582L25.5899 155.751C25.785 155.502 25.7407 155.128 25.4923 154.933C25.235 154.737 24.8712 154.781 24.6761 155.039L23.2565 156.871C23.0614 157.129 23.1057 157.493 23.3541 157.689C23.4606 157.769 23.5848 157.813 23.709 157.813V157.804ZM26.5569 154.141C26.7343 154.141 26.9029 154.061 27.0183 153.919L28.4378 152.088C28.633 151.83 28.5886 151.465 28.3402 151.27C28.0918 151.074 27.7192 151.119 27.524 151.368L26.1045 153.199C25.9093 153.457 25.9536 153.821 26.202 154.017C26.3085 154.097 26.4327 154.141 26.5569 154.141ZM29.4048 150.479C29.5823 150.479 29.7508 150.399 29.8662 150.256L31.2857 148.425C31.4809 148.176 31.4365 147.803 31.1792 147.607C30.9219 147.411 30.5582 147.456 30.363 147.714L28.9435 149.545C28.7483 149.803 28.7927 150.167 29.0411 150.363C29.1475 150.443 29.2717 150.487 29.3959 150.487L29.4048 150.479ZM32.2438 146.816C32.4213 146.816 32.5899 146.736 32.7052 146.593L34.1247 144.762C34.3199 144.504 34.2755 144.14 34.0182 143.944C33.7609 143.749 33.3972 143.793 33.202 144.051L31.7825 145.882C31.5873 146.14 31.6317 146.505 31.889 146.7C31.9954 146.78 32.1196 146.825 32.2438 146.825V146.816ZM35.0829 143.144C35.2603 143.144 35.4289 143.064 35.5442 142.922L36.9637 141.081C37.1589 140.824 37.1145 140.459 36.8573 140.264C36.6 140.068 36.2362 140.112 36.041 140.37L34.6304 142.202C34.4352 142.459 34.4796 142.824 34.7368 143.02C34.8433 143.1 34.9675 143.144 35.0917 143.144H35.0829ZM37.9041 139.463C38.0816 139.463 38.2502 139.383 38.3655 139.232C38.8357 138.61 39.3059 137.996 39.7761 137.383C39.9713 137.125 39.9181 136.761 39.6696 136.565C39.4124 136.37 39.0486 136.423 38.8534 136.672C38.3921 137.285 37.9219 137.899 37.4517 138.512C37.2565 138.77 37.3009 139.134 37.5581 139.33C37.6646 139.41 37.7888 139.454 37.913 139.454L37.9041 139.463ZM40.7077 135.774C40.8851 135.774 41.0537 135.694 41.169 135.543C41.6392 134.92 42.1094 134.307 42.5619 133.685C42.7571 133.427 42.7039 133.062 42.4466 132.867C42.1893 132.671 41.8256 132.724 41.6304 132.982C41.169 133.596 40.7077 134.209 40.2375 134.832C40.0423 135.089 40.0955 135.454 40.3528 135.649C40.4593 135.729 40.5835 135.765 40.6988 135.765L40.7077 135.774ZM43.4935 132.067C43.6709 132.067 43.8484 131.987 43.9637 131.835C44.4339 131.204 44.8864 130.591 45.3477 129.968C45.534 129.711 45.4808 129.346 45.2235 129.151C44.9662 128.964 44.6025 129.017 44.4073 129.275C43.9548 129.888 43.4935 130.511 43.0321 131.133C42.8369 131.391 42.8902 131.755 43.1475 131.951C43.2539 132.031 43.3693 132.067 43.4935 132.067ZM46.2438 128.333C46.4212 128.333 46.5986 128.253 46.714 128.093C47.1753 127.461 47.6278 126.83 48.0714 126.208C48.2577 125.95 48.1956 125.586 47.9383 125.399C47.6722 125.212 47.3173 125.274 47.131 125.532C46.6874 126.155 46.2349 126.777 45.7736 127.408C45.5872 127.666 45.6405 128.03 45.8978 128.217C46.0042 128.288 46.1196 128.333 46.2349 128.333H46.2438ZM48.9497 124.563C49.136 124.563 49.3135 124.474 49.4288 124.314C49.8813 123.674 50.3249 123.043 50.7596 122.412C50.9459 122.145 50.8749 121.78 50.6177 121.603C50.3515 121.416 49.9878 121.487 49.8103 121.745C49.3756 122.376 48.932 123.007 48.4795 123.639C48.2932 123.896 48.3553 124.261 48.6215 124.448C48.7279 124.519 48.8432 124.554 48.9586 124.554L48.9497 124.563ZM51.5936 120.749C51.7799 120.749 51.9662 120.66 52.0726 120.491C52.5162 119.842 52.9421 119.202 53.368 118.562C53.5454 118.295 53.4744 117.931 53.2083 117.753C52.9421 117.575 52.5783 117.646 52.4009 117.913C51.9751 118.544 51.5492 119.184 51.1056 119.833C50.9282 120.1 50.9903 120.465 51.2564 120.642C51.354 120.714 51.4694 120.74 51.5847 120.74L51.5936 120.749ZM54.1576 116.882C54.3439 116.882 54.5302 116.793 54.6455 116.615C55.0714 115.957 55.4883 115.299 55.8965 114.65C56.065 114.375 55.9852 114.019 55.719 113.85C55.444 113.681 55.0891 113.761 54.9206 114.028C54.5124 114.668 54.1043 115.326 53.6785 115.975C53.501 116.242 53.5809 116.606 53.847 116.784C53.9446 116.846 54.0511 116.882 54.1664 116.882H54.1576ZM56.624 112.952C56.8191 112.952 57.0143 112.855 57.1208 112.677C57.5289 112.001 57.9281 111.334 58.3096 110.676C58.4693 110.401 58.3806 110.045 58.0967 109.876C57.8217 109.716 57.4668 109.805 57.2982 110.09C56.9167 110.748 56.5264 111.405 56.1183 112.072C55.9497 112.348 56.0384 112.703 56.3134 112.872C56.411 112.926 56.5086 112.961 56.6151 112.961L56.624 112.952ZM58.9573 108.943C59.1613 108.943 59.3565 108.836 59.463 108.64C59.8445 107.956 60.2171 107.271 60.572 106.587C60.7228 106.302 60.6163 105.947 60.3324 105.804C60.0485 105.653 59.6937 105.76 59.5517 106.045C59.1968 106.711 58.8331 107.387 58.4516 108.072C58.2919 108.356 58.3984 108.703 58.6734 108.863C58.7621 108.916 58.8597 108.934 58.9573 108.934V108.943ZM61.1132 104.835C61.3261 104.835 61.5301 104.72 61.6366 104.515C61.9826 103.804 62.3198 103.102 62.6391 102.408C62.7722 102.115 62.6391 101.768 62.3552 101.635C62.0625 101.502 61.7165 101.635 61.5834 101.919C61.2729 102.604 60.9446 103.297 60.5986 104C60.4566 104.284 60.572 104.64 60.8648 104.782C60.9446 104.827 61.0333 104.844 61.122 104.844L61.1132 104.835ZM63.0384 100.612C63.2691 100.612 63.482 100.479 63.5707 100.257C63.8724 99.5279 64.1651 98.7989 64.4313 98.0787C64.5466 97.7765 64.3869 97.4386 64.0853 97.332C63.7836 97.2164 63.4465 97.3764 63.34 97.6787C63.0827 98.381 62.7988 99.0922 62.4972 99.8124C62.373 100.106 62.5149 100.452 62.8077 100.577C62.8787 100.604 62.9585 100.621 63.0295 100.621L63.0384 100.612ZM64.6442 96.2651C64.8926 96.2651 65.1144 96.1051 65.1943 95.865C65.4338 95.1094 65.6645 94.3537 65.8597 93.6158C65.9395 93.3046 65.7621 92.9846 65.4516 92.9045C65.141 92.8245 64.8216 93.0023 64.7418 93.3135C64.5466 94.0336 64.3337 94.7715 64.0941 95.5094C63.9966 95.8117 64.1651 96.1406 64.4668 96.2384C64.5289 96.2562 64.5821 96.2651 64.6442 96.2651ZM65.8331 91.7844C66.0992 91.7844 66.3476 91.5977 66.4009 91.3221C66.5606 90.5397 66.7025 89.7663 66.809 89.0017C66.8533 88.6816 66.6315 88.3882 66.3121 88.3438C65.9927 88.2905 65.7 88.5216 65.6556 88.8417C65.5491 89.5796 65.4161 90.3352 65.2653 91.0909C65.2031 91.4021 65.3983 91.7132 65.7177 91.7755C65.7621 91.7755 65.7976 91.7844 65.8331 91.7844ZM66.4718 87.1969C66.7735 87.1969 67.0308 86.9658 67.0485 86.6546C67.1017 85.9345 67.1284 85.2144 67.1284 84.512V84.2898C67.1284 83.9697 66.8622 83.7119 66.5428 83.7119C66.2234 83.7119 65.9661 83.9786 65.9661 84.2987V84.512C65.9661 85.1877 65.9395 85.8812 65.8952 86.5657C65.8685 86.8858 66.117 87.1614 66.4363 87.188C66.4541 87.188 66.463 87.188 66.4807 87.188L66.4718 87.1969ZM66.4275 82.5651C66.4275 82.5651 66.463 82.5651 66.4807 82.5651C66.8001 82.5384 67.0396 82.2539 67.0041 81.9338C66.9332 81.1515 66.8267 80.3602 66.6936 79.5868C66.6404 79.2667 66.3299 79.0623 66.0194 79.1156C65.7 79.1689 65.4959 79.4712 65.5491 79.7913C65.6822 80.5381 65.7798 81.2937 65.8508 82.0405C65.8774 82.3428 66.1347 82.574 66.4275 82.574V82.5651ZM65.6201 78.0043C65.6734 78.0043 65.7177 78.0043 65.7709 77.9865C66.0815 77.9065 66.2678 77.5865 66.1791 77.2753C65.975 76.5196 65.7355 75.7639 65.4693 75.0171C65.3628 74.7149 65.0257 74.5637 64.7241 74.6704C64.4224 74.7771 64.2627 75.1149 64.3781 75.4172C64.6353 76.1284 64.866 76.8574 65.0612 77.5865C65.1322 77.8443 65.3628 78.0132 65.6201 78.0132V78.0043ZM64.0498 73.648C64.1296 73.648 64.2095 73.6302 64.2893 73.5947C64.5821 73.4613 64.7063 73.1146 64.5732 72.8212C64.2538 72.1189 63.899 71.4077 63.5086 70.7142C63.3578 70.4297 63.0029 70.3319 62.719 70.4831C62.4351 70.6342 62.3375 70.9898 62.4883 71.2743C62.8609 71.95 63.1981 72.6256 63.5086 73.3013C63.6062 73.5147 63.8191 73.6391 64.0409 73.6391L64.0498 73.648ZM61.8229 69.5851C61.9294 69.5851 62.0358 69.5585 62.1334 69.4962C62.3996 69.3184 62.4794 68.9628 62.302 68.6872C61.885 68.0382 61.4326 67.3892 60.9623 66.7491C60.776 66.4913 60.4123 66.4379 60.1461 66.6246C59.8888 66.8113 59.8356 67.1758 60.0219 67.4425C60.4744 68.056 60.918 68.6872 61.3172 69.3184C61.4326 69.4873 61.6189 69.5851 61.8052 69.5851H61.8229ZM59.0815 65.8512C59.2146 65.8512 59.3477 65.8067 59.4541 65.7178C59.7025 65.5133 59.738 65.1488 59.534 64.8999C59.0549 64.322 58.5314 63.7264 57.9902 63.1307C57.7773 62.8907 57.4047 62.8818 57.1652 63.0952C56.9256 63.3085 56.9167 63.6819 57.1297 63.9131C57.662 64.4909 58.1677 65.0688 58.629 65.6378C58.7444 65.7801 58.9129 65.8512 59.0726 65.8512H59.0815ZM55.9586 62.4284C56.1094 62.4284 56.2602 62.375 56.3667 62.2595C56.5973 62.0283 56.5973 61.6638 56.3667 61.4327C55.8255 60.8904 55.2666 60.348 54.681 59.8146C54.4415 59.5924 54.0777 59.6101 53.8648 59.8502C53.643 60.0902 53.6607 60.4547 53.9003 60.6681C54.4769 61.2015 55.027 61.726 55.5505 62.2595C55.6658 62.375 55.8166 62.4284 55.9586 62.4284ZM52.5606 59.2812C52.7203 59.2812 52.8889 59.2101 53.0042 59.0767C53.2171 58.8367 53.1817 58.4633 52.9421 58.2588C52.3654 57.7609 51.7621 57.2631 51.15 56.7652C50.9015 56.5607 50.5378 56.6052 50.3338 56.8541C50.1297 57.1031 50.1741 57.4676 50.4225 57.672C51.0258 58.161 51.6202 58.65 52.188 59.1478C52.2945 59.2456 52.4364 59.2901 52.5695 59.2901L52.5606 59.2812Z" fill="#C6CDDB"/>
<path d="M48.888 56.3386C49.0654 56.3386 49.234 56.2586 49.3493 56.1075C49.5445 55.8497 49.4913 55.4852 49.2428 55.2896C48.9323 55.0584 48.6218 54.8184 48.3113 54.5872C48.054 54.3916 47.6903 54.445 47.4951 54.7117C47.3088 54.9695 47.362 55.334 47.6193 55.5296C47.9298 55.7608 48.2403 55.9919 48.542 56.2231C48.6484 56.3031 48.7726 56.3386 48.8969 56.3386H48.888Z" fill="#C6CDDB"/>
<path d="M72.159 165.965C71.1058 165.348 71.1159 163.366 72.1817 161.539C73.2475 159.712 74.9654 158.732 76.0186 159.349C77.0719 159.966 77.0618 161.947 75.996 163.774C74.9302 165.601 73.2123 166.582 72.159 165.965Z" fill="white"/>
<path d="M5.82123 19.8527L53.9072 42.4964L49.347 57.2189L5.82123 19.8527Z" fill="#1A5AE5"/>
<path d="M5.82127 19.8527L53.9073 42.4964L61.9186 43.0476L66.6562 38.6469L5.82127 19.8527Z" fill="#4680FF"/>
<path d="M5.82186 19.8527L44.7786 47.8129L49.3477 57.2189L5.82186 19.8527Z" fill="#4680FF"/>
<g style="mix-blend-mode:multiply">
<path d="M5.82186 19.8527L44.7786 47.8129L49.3477 57.2189L5.82186 19.8527Z" fill="#4680FF"/>
</g>
<path d="M5.8206 19.8527L44.7773 47.8129L38.7001 54.5162L31.2476 57.2455L5.8206 19.8527Z" fill="#4680FF"/>
<path d="M31.2483 57.2456L38.7007 54.5163L44.778 47.8129L49.3471 57.2189L53.9073 42.4965L61.9186 43.0477L66.6562 38.647L61.7412 42.9143L53.7742 42.4432L49.3027 56.6055L44.778 47.8129L38.683 54.2318L31.2483 57.2456Z" fill="#4680FF"/>
<path d="M88.6685 183.382C102.997 193.464 74.2871 208.968 61.6179 200.38C48.9577 191.801 78.5811 176.278 88.6685 183.382Z" fill="#CACAE0"/>
<path d="M65.9465 188.761C65.9465 188.761 65.1036 191.454 64.8286 192.939C64.5536 194.424 65.3698 196.451 66.0707 196.637C66.7627 196.815 68.4572 194.975 68.4572 193.339C68.4572 191.703 68.6436 189.472 68.6436 189.472C68.6436 189.472 67.2418 186.289 65.9465 188.769V188.761Z" fill="#0A1416"/>
<path d="M74.8817 171.958C74.8817 171.958 75.7068 168.713 72.8677 167.717C70.0287 166.721 69.0173 170.189 68.485 172.447C67.9438 174.705 66.196 186.894 65.9742 188.592C65.7081 190.592 67.7664 191.828 68.5116 189.828C68.9108 188.752 69.3101 187.578 69.9755 185.818C71.8297 180.848 74.4026 173.896 74.8905 171.949L74.8817 171.958Z" fill="#144FA5"/>
<path d="M86.0251 171.193C86.0251 171.193 85.9541 167.842 82.9554 167.655C79.9478 167.459 79.9123 171.069 79.9921 173.389C80.0809 175.71 81.6512 187.925 81.8907 189.623C82.1746 191.623 84.4814 192.263 84.6677 190.13C84.7653 188.983 84.8362 187.747 85.0048 185.871C85.4661 180.581 86.0783 173.202 86.0251 171.193Z" fill="#144FA5"/>
<path d="M84.6574 190.103C84.6574 190.103 88.4989 192.237 88.5078 193.428C88.5078 194.628 80.94 192.61 80.7271 191.943C80.5142 191.277 81.8538 189.321 81.8538 189.321C81.8538 189.321 82.3152 191.268 84.6574 190.103Z" fill="#0A1416"/>
<path d="M80.3376 144.522C80.3376 144.522 80.6215 151.261 79.4859 156.56C78.3503 161.859 75.7064 170.402 74.8813 171.958C74.0563 173.514 72.619 174.59 70.6672 173.798C68.7153 173.016 68.8928 170.776 70.2413 165.895C70.9422 163.352 70.1082 156.933 71.4124 151.803C72.6013 147.083 75.9637 143.509 75.9637 143.509L80.3376 144.522Z" fill="#144FA5"/>
<path d="M86.0161 170.989C85.6878 172.722 84.6321 174.172 82.5383 174.003C80.4445 173.834 79.9477 171.647 79.7968 166.579C79.7791 166.108 79.7259 165.521 79.646 164.854C79.4597 163.352 79.1403 161.414 78.8298 159.316C78.5193 157.173 78.2176 154.853 78.1023 152.657C77.845 147.794 78.6346 143.491 78.6346 143.491L83.115 143.162C83.115 143.162 85.3862 149.519 85.8653 154.915C86.3443 160.312 86.3444 169.255 86.0161 170.989Z" fill="#144FA5"/>
<path d="M76.3356 121.745C75.0936 122.225 74.3128 123.31 74.0378 126.839C73.7539 130.36 72.7159 132.325 72.7159 132.325C72.7159 132.325 74.8185 133.347 78.6867 132.236C82.5549 131.124 82.8122 130.538 82.8122 130.538C82.8122 130.538 84.3027 118.687 76.3445 121.745H76.3356Z" fill="#282828"/>
<path d="M90.3003 137.828C90.256 138.272 90.3181 139.357 91.4625 139.188C93.299 138.921 97.6729 133.756 97.806 132.787C97.9391 131.827 97.389 131.676 95.8896 132.618C94.3903 133.552 90.5221 135.819 90.3003 137.828Z" fill="#8CC1ED"/>
<path d="M96.6706 132.147C96.4843 132.484 97.1231 133.329 97.7175 133.151C98.3208 132.973 100.255 131.48 100.255 131.009C100.255 130.537 99.1193 130.173 97.7175 131.249C97.7175 131.249 98.3119 130.386 97.8062 130.342C97.5667 130.324 97.2473 131.08 96.6618 132.147H96.6706Z" fill="#F7CB9C"/>
<path d="M91.7113 139.126C91.4363 139.304 91.0459 139.322 90.5846 139.117C89.6974 138.726 87.9141 137.899 86.1043 136.948C85.4655 136.61 84.8267 136.254 84.2234 135.899C82.9281 135.125 81.8014 134.343 81.2069 133.667C79.5745 131.783 81.5796 129.693 83.283 130.111C84.9509 130.52 89.449 134.814 91.0814 136.254C91.108 136.281 91.1435 136.308 91.1701 136.334C92.359 137.366 92.3767 138.708 91.7025 139.135L91.7113 139.126Z" fill="#8CC1ED"/>
<g opacity="0.25">
<path d="M86.1035 136.948C85.4647 136.61 84.8259 136.254 84.2226 135.898L84.684 133.294C84.684 133.294 86.4583 135.009 86.1035 136.948Z" fill="black"/>
</g>
<path d="M78.9002 130.28C76.8667 130.28 75.2183 128.433 75.2183 126.155C75.2183 123.876 76.8667 122.03 78.9002 122.03C80.9336 122.03 82.582 123.876 82.582 126.155C82.582 128.433 80.9336 130.28 78.9002 130.28Z" fill="#422D96"/>
<path d="M84.5867 138.37C84.4182 138.69 84.4448 138.61 84.2407 139.055C84.1165 139.321 84.0101 139.579 83.9125 139.828C83.5044 140.868 83.3269 141.74 83.2559 142.371C83.1761 143.046 83.2116 143.429 83.2116 143.429C82.4575 144.638 81.4283 145.118 80.3548 145.198C79.5475 145.26 78.7224 145.1 77.986 144.86C77.7021 144.762 77.4271 144.664 77.1698 144.549C76.185 144.122 75.6172 143.873 75.6172 143.873C75.6261 143.74 75.5196 143.384 75.5196 143.251C75.5462 142.193 75.3155 141.153 74.9784 140.157C73.967 137.161 71.9353 134.636 72.6628 133.836C73.6654 132.734 76.6286 132.262 76.6286 132.262L79.2636 131.462C79.2636 131.462 80.7629 130.564 82.2623 130.155C83.7616 129.755 84.2673 131.293 85.1279 133.863C85.8466 135.987 85.3675 136.832 84.5779 138.361L84.5867 138.37Z" fill="#8CC1ED"/>
<path d="M79.707 129.382V132.316C79.707 132.591 79.6183 132.849 79.4675 133.062C79.2368 133.382 78.8642 133.587 78.4383 133.587C78.0746 133.587 77.7463 133.436 77.5157 133.187C77.3027 132.956 77.1697 132.653 77.1697 132.316V129.382C77.1697 128.679 77.7375 128.11 78.4383 128.11C78.7932 128.11 79.1037 128.253 79.3344 128.484C79.5651 128.715 79.707 129.035 79.707 129.382Z" fill="#F7CB9C"/>
<g opacity="0.25">
<path d="M79.9746 154.63L79.6464 164.854C79.46 163.352 79.1407 161.414 78.8301 159.315L79.9746 154.63Z" fill="black"/>
</g>
<g opacity="0.25">
<path d="M83.9043 139.828C83.4962 140.868 83.3187 141.74 83.2478 142.371C82.813 142.869 82.3783 143.358 82.121 143.615C81.7662 143.971 81.0209 144.62 80.3466 145.207C79.5393 145.269 78.7142 145.109 77.9778 144.869L75.5469 141.046L75.7155 134.494C75.7155 134.494 76.9309 136.592 77.2503 137.33C77.6939 138.361 78.6521 141.606 78.6521 141.606L83.4696 139.197L83.9043 139.828Z" fill="black"/>
</g>
<path d="M76.8326 144.798C76.7705 145.242 76.8149 146.327 77.9594 146.193C79.7959 145.98 84.3205 140.93 84.4802 139.979C84.6399 139.019 84.0899 138.859 82.5728 139.757C81.0468 140.655 77.1165 142.797 76.8415 144.807L76.8326 144.798Z" fill="#8CC1ED"/>
<path d="M83.3537 139.304C83.1585 139.633 83.7707 140.495 84.374 140.335C84.9772 140.175 86.9557 138.735 86.9734 138.263C86.9912 137.792 85.8556 137.392 84.4272 138.432C84.4272 138.432 85.0482 137.588 84.5425 137.526C84.303 137.499 83.9658 138.246 83.3537 139.295V139.304Z" fill="#F7CB9C"/>
<path d="M76.7355 145.598C75.6354 143.873 72.264 138.344 71.9358 135.863C71.6164 133.383 74.4377 132.76 75.6265 134.049C76.8153 135.339 78.2171 141.615 78.7672 143.607C79.3616 145.74 77.6848 147.101 76.7266 145.598H76.7355Z" fill="#8CC1ED"/>
<g opacity="0.25">
<path d="M79.708 130.128V131.622C79.1846 131.551 77.5521 131.204 77.3303 129.773C77.1085 128.306 79.1136 129.693 79.708 130.128Z" fill="black"/>
</g>
<path d="M82.4756 126.946C82.4756 129.026 81.1093 130.707 79.4325 130.707C77.7557 130.707 76.3894 129.017 76.3894 126.946C76.3894 124.874 77.7557 123.185 79.4325 123.185C81.1093 123.185 82.4756 124.874 82.4756 126.946Z" fill="#F7CB9C"/>
<path d="M76.8683 127.844C77.2232 128.448 77.1699 129.142 76.753 129.382C76.336 129.622 75.7149 129.32 75.3689 128.715C75.0141 128.11 75.0673 127.417 75.4843 127.177C75.9012 126.937 76.5223 127.239 76.8683 127.844Z" fill="#E5B991"/>
<path d="M76.3805 127.248C76.3805 127.248 77.3121 126.706 77.4186 125.07C77.4186 125.07 77.0282 126.226 78.98 126.35C80.9319 126.483 81.5884 125.701 82.582 126.154C82.582 126.154 81.7126 122.109 78.6074 122.803C75.5022 123.496 76.3717 127.239 76.3717 127.239L76.3805 127.248Z" fill="#282828"/>
<path d="M176.447 186.636C176.447 186.636 164.15 194.068 162.039 195.464C159.918 196.86 157.106 197.242 156.29 193.819C155.784 191.685 158.703 190.432 161.347 188.565C163.99 186.698 174.069 179.586 174.069 179.586C174.069 179.586 182.258 181.675 176.447 186.645V186.636Z" fill="#144FA5"/>
<path d="M168.373 198.397C168.373 198.397 168.426 195.535 165.41 195.241C162.393 194.948 162.145 199.153 162.047 206.825C161.959 214.489 161.426 217.894 162.021 219.663C162.438 220.89 164.629 220.89 164.922 219.619C165.215 218.347 168.337 199.918 168.373 198.397Z" fill="#144FA5"/>
<path d="M165.198 218.223C165.198 218.223 163.477 219.619 161.755 217.841C161.755 217.841 160.247 218.57 158.455 219.174C156.938 219.69 155.102 219.992 154.951 220.988C154.614 223.139 163.894 222.65 165.003 222.215C166.112 221.779 165.198 218.223 165.198 218.223Z" fill="black"/>
<path d="M183.154 190.894C183.154 190.894 170.857 198.326 168.746 199.722C166.625 201.118 163.813 201.5 162.997 198.077C162.491 195.944 165.41 194.69 168.054 192.823C170.698 190.956 180.776 183.844 180.776 183.844C180.776 183.844 188.965 185.933 183.154 190.903V190.894Z" fill="#144FA5"/>
<path d="M161.346 194.548C161.346 194.548 161.24 191.685 158.214 191.561C155.189 191.436 155.162 195.641 155.482 203.305C155.801 210.968 155.455 214.391 156.156 216.125C156.635 217.325 158.826 217.209 159.048 215.929C159.27 214.649 161.39 196.077 161.346 194.548Z" fill="#144FA5"/>
<path d="M159.244 214.515C159.244 214.515 157.603 216 155.793 214.32C155.793 214.32 154.329 215.129 152.573 215.831C151.082 216.427 149.272 216.836 149.166 217.832C148.944 220.001 158.188 219.005 159.271 218.516C160.353 218.027 159.244 214.524 159.244 214.524V214.515Z" fill="black"/>
<path d="M175.86 163.743C175.86 163.743 177.422 165.138 175.976 167.93C174.53 170.721 169.686 175.691 167.769 175.94C165.853 176.189 164.282 173.806 166.545 171.166C168.807 168.526 171.336 163.254 172.933 162.765C174.53 162.276 175.869 163.751 175.869 163.751L175.86 163.743Z" fill="#78ABCE"/>
<path d="M167.851 171.94C167.851 171.94 162.554 170.464 159.848 169.993C157.142 169.522 156.769 169.655 156.45 170.704C156.131 171.762 158.943 172.749 160.753 173.611C162.563 174.473 166.511 176.821 168.09 175.647C169.678 174.473 169.084 172.349 167.851 171.931V171.94Z" fill="#78ABCE"/>
<path d="M184.458 165.112C182.79 162.8 175.125 159.342 172.543 162.969C171.567 164.347 171.283 166.739 171.07 169.708C170.52 177.247 170.192 181.79 170.591 182.635C170.981 183.479 174.566 191.365 185.292 187.818C185.292 187.818 186.507 181.123 186.64 176.065C186.729 172.811 186.09 167.37 184.458 165.112Z" fill="#8CC1ED"/>
<path d="M176.172 158.151L175.924 160.08L175.649 162.231C175.649 162.231 175.649 162.311 175.64 162.347C175.622 162.738 175.755 163.103 175.995 163.387C176.225 163.663 176.563 163.858 176.944 163.903C177.201 163.938 177.45 163.903 177.672 163.814C178.168 163.618 178.55 163.165 178.621 162.605L179.135 158.524C179.189 158.071 179.047 157.644 178.763 157.333C178.532 157.075 178.213 156.897 177.84 156.853C177.397 156.799 176.971 156.942 176.66 157.217C176.394 157.448 176.217 157.777 176.172 158.151Z" fill="#F7CB9C"/>
<g opacity="0.25">
<path d="M175.932 160.08L175.657 162.231C175.657 162.231 175.657 162.311 175.648 162.347C175.994 162.098 177.759 160.756 177.449 159.698C177.245 159.022 176.517 159.529 175.932 160.071V160.08Z" fill="black"/>
</g>
<path d="M172.792 156.026C172.251 158.462 173.182 160.738 174.868 161.12C176.562 161.502 178.372 159.831 178.913 157.395C179.455 154.959 178.523 152.683 176.837 152.301C175.143 151.919 173.333 153.59 172.792 156.026Z" fill="#F7CB9C"/>
<path d="M179.144 159.049C179.144 159.049 177.28 159.644 177.218 158.542C177.147 157.448 177.493 156.541 177.493 156.541C177.493 156.541 172.561 157.359 171.434 153.483C170.307 149.598 174.22 149.829 173.909 151.732C173.909 151.732 177.511 149.029 180.723 151.287C183.934 153.545 182.666 160.684 178.851 160.773C178.851 160.773 178.7 160.711 178.682 160.347C178.673 160.089 179.135 159.057 179.135 159.057L179.144 159.049Z" fill="#282828"/>
<path d="M178.301 157.893C177.734 158.444 177.601 159.227 178.009 159.644C178.417 160.062 179.197 159.956 179.765 159.404C180.333 158.853 180.466 158.071 180.058 157.653C179.65 157.235 178.869 157.342 178.301 157.893Z" fill="#E5B991"/>
<path d="M184.751 164.863C184.751 164.863 186.295 166.277 184.804 169.05C183.323 171.824 178.408 176.723 176.482 176.945C174.557 177.167 173.022 174.767 175.32 172.153C177.618 169.539 180.226 164.312 181.823 163.841C183.42 163.369 184.742 164.863 184.742 164.863H184.751Z" fill="#78ABCE"/>
<path d="M177.458 173.158C177.458 173.158 172.676 170.446 170.165 169.326C167.655 168.206 167.264 168.25 166.696 169.193C166.138 170.135 168.622 171.78 170.165 173.06C171.709 174.34 174.974 177.576 176.793 176.821C178.611 176.065 178.549 173.869 177.458 173.158Z" fill="#78ABCE"/>
<path d="M168.053 168.481C168.452 168.908 167.822 170.401 166.864 170.357C165.906 170.313 162.481 168.819 162.304 168.117C162.126 167.414 163.688 166.454 166.172 167.539C166.172 167.539 164.966 166.481 165.702 166.223C166.057 166.099 166.802 167.112 168.062 168.481H168.053Z" fill="#F7CB9C"/>
<path d="M157.593 169.682C158.081 170.002 157.832 171.602 156.892 171.797C155.951 171.993 152.27 171.371 151.924 170.731C151.578 170.09 152.864 168.775 155.534 169.228C155.534 169.228 154.106 168.49 154.763 168.063C155.073 167.859 156.049 168.659 157.602 169.682H157.593Z" fill="#F7CB9C"/>
<defs>
<linearGradient id="paint0_linear_155_646" x1="175.312" y1="148.454" x2="145.863" y2="-36.8649" gradientUnits="userSpaceOnUse">
<stop offset="0.44" stop-color="#4680FF"/>
<stop offset="0.5" stop-color="#408FE5"/>
<stop offset="0.61" stop-color="#37A7BE"/>
<stop offset="0.71" stop-color="#30B99F"/>
<stop offset="0.81" stop-color="#2BC789"/>
<stop offset="0.91" stop-color="#28CF7C"/>
<stop offset="1" stop-color="#28D278"/>
</linearGradient>
<radialGradient id="paint1_radial_155_646" cx="0" cy="0" r="1" gradientUnits="userSpaceOnUse" gradientTransform="translate(179.793 55.6384) rotate(180) scale(43.9871 44.0784)">
<stop stop-color="white"/>
<stop offset="0.07" stop-color="#D8D8D8"/>
<stop offset="0.16" stop-color="#A5A5A5"/>
<stop offset="0.26" stop-color="#797979"/>
<stop offset="0.37" stop-color="#545454"/>
<stop offset="0.47" stop-color="#353535"/>
<stop offset="0.59" stop-color="#1D1D1D"/>
<stop offset="0.7" stop-color="#0D0D0D"/>
<stop offset="0.84" stop-color="#030303"/>
<stop offset="1"/>
</radialGradient>
<radialGradient id="paint2_radial_155_646" cx="0" cy="0" r="1" gradientUnits="userSpaceOnUse" gradientTransform="translate(168.668 52.4553) scale(74.3203 74.4746)">
<stop stop-color="#711F56"/>
<stop offset="0.16" stop-color="#6B1D51"/>
<stop offset="0.36" stop-color="#5C1946"/>
<stop offset="0.58" stop-color="#421232"/>
<stop offset="0.82" stop-color="#1F0818"/>
<stop offset="1"/>
</radialGradient>
<linearGradient id="paint3_linear_155_646" x1="-309.513" y1="-92.6815" x2="-261.783" y2="-167.367" gradientUnits="userSpaceOnUse">
<stop offset="0.09" stop-color="#E5E9FF"/>
<stop offset="0.37" stop-color="#CED3F4"/>
<stop offset="0.51" stop-color="#DDE1FB"/>
<stop offset="0.57" stop-color="#E5E9FF"/>
<stop offset="0.77" stop-color="#ECEEFF"/>
<stop offset="1" stop-color="#FBFBFF"/>
</linearGradient>
<radialGradient id="paint4_radial_155_646" cx="0" cy="0" r="1" gradientUnits="userSpaceOnUse" gradientTransform="translate(186.669 71.9697) rotate(180) scale(33.9263 33.9968)">
<stop stop-color="white"/>
<stop offset="0.07" stop-color="#D8D8D8"/>
<stop offset="0.16" stop-color="#A5A5A5"/>
<stop offset="0.26" stop-color="#797979"/>
<stop offset="0.37" stop-color="#545454"/>
<stop offset="0.47" stop-color="#353535"/>
<stop offset="0.59" stop-color="#1D1D1D"/>
<stop offset="0.7" stop-color="#0D0D0D"/>
<stop offset="0.84" stop-color="#030303"/>
<stop offset="1"/>
</radialGradient>
<linearGradient id="paint5_linear_155_646" x1="152.006" y1="180.361" x2="191.263" y2="111.726" gradientUnits="userSpaceOnUse">
<stop offset="0.09" stop-color="#E5E9FF"/>
<stop offset="0.37" stop-color="#CED3F4"/>
<stop offset="0.51" stop-color="#DDE1FB"/>
<stop offset="0.57" stop-color="#E5E9FF"/>
<stop offset="0.77" stop-color="#ECEEFF"/>
<stop offset="1" stop-color="#FBFBFF"/>
</linearGradient>
<radialGradient id="paint6_radial_155_646" cx="0" cy="0" r="1" gradientUnits="userSpaceOnUse" gradientTransform="translate(178.685 136.772) rotate(180) scale(30.3598 30.4228)">
<stop stop-color="white"/>
<stop offset="0.07" stop-color="#D8D8D8"/>
<stop offset="0.16" stop-color="#A5A5A5"/>
<stop offset="0.26" stop-color="#797979"/>
<stop offset="0.37" stop-color="#545454"/>
<stop offset="0.47" stop-color="#353535"/>
<stop offset="0.59" stop-color="#1D1D1D"/>
<stop offset="0.7" stop-color="#0D0D0D"/>
<stop offset="0.84" stop-color="#030303"/>
<stop offset="1"/>
</radialGradient>
</defs>
</svg>
