<svg width="280" height="280" viewBox="0 0 280 280" fill="none" xmlns="http://www.w3.org/2000/svg">
<g clip-path="url(#clip0_155_644)">
<path d="M279.784 177.505V188.465L178.554 245.035L177.927 234.885L279.784 177.505Z" fill="#E2E2ED"/>
<path d="M0.03125 144.965L178.554 245.035L177.927 234.885L0.175145 134.215L0.03125 144.965Z" fill="#CACAE0"/>
<path d="M4.23464 131.745L56.3453 102.355L59.7372 100.445L71.6599 93.715L75.0518 91.795L101.559 76.845L139.239 98.285L139.311 98.245L280 177.445L177.968 234.815L177.68 234.985L177.659 234.995L149.898 219.335L149.836 219.365L149.816 219.375L78.5875 178.855L75.1751 176.905L64.1979 170.665L60.7855 168.715L0.17473 134.235L0 134.135L4.23464 131.745Z" fill="#F2F2F9"/>
<path d="M13.9268 112.335V133.245L54.3511 155.925L135.796 111.255V89.855L95.3407 75.945L54.3511 93.195L13.9268 112.335Z" fill="#CACAE0"/>
<path d="M13.9268 112.335V133.245L54.3511 155.925V93.195L13.9268 112.335Z" fill="#DADAEF"/>
<path d="M95.3407 67.195L135.796 89.855L54.3511 135.015L13.9268 112.335L95.3407 67.195Z" fill="#F2F2F9"/>
<path d="M115.62 145.445C127.666 153.685 103.523 166.345 92.8643 159.335C82.2057 152.325 107.13 139.645 115.62 145.445Z" fill="#CACAE0"/>
<path d="M89.7913 128.485C89.7913 128.485 89.0821 125.015 92.8029 123.995C96.5133 122.975 97.7775 128.035 99.6276 137.345C101.467 146.655 102.906 150.685 102.547 152.965C102.3 154.545 99.5557 155.035 98.9081 153.555C98.2606 152.075 90.1922 130.335 89.8016 128.485H89.7913Z" fill="#144FA5"/>
<path d="M70.8788 118.705C70.8788 118.705 86.5428 127.895 89.2357 129.615C91.9286 131.345 95.5157 131.815 96.5538 127.575C97.2014 124.945 93.4806 123.385 90.1094 121.085C86.7381 118.775 73.9006 109.975 73.9006 109.975C73.9006 109.975 63.4682 112.555 70.8685 118.695L70.8788 118.705Z" fill="#144FA5"/>
<path d="M78.1046 112.805C78.1046 112.805 94.776 120.115 97.6641 121.515C100.552 122.915 104.17 122.975 104.684 118.645C105.003 115.955 101.128 114.845 97.4997 112.945C93.8715 111.045 80.0575 103.795 80.0575 103.795C80.0575 103.795 70.0157 107.565 78.1149 112.805H78.1046Z" fill="#144FA5"/>
<path d="M98.8666 116.005C98.8666 116.005 101.169 114.465 103.718 117.285C106.267 120.105 103.009 122.545 96.8007 126.615C90.5927 130.695 88.2081 132.985 86.2964 133.315C84.9705 133.545 83.2951 131.385 84.1174 130.435C84.9396 129.485 97.6435 116.825 98.8666 115.995V116.005Z" fill="#144FA5"/>
<path d="M79.6364 86.035C79.6364 86.035 79.0402 88.555 82.5862 90.345C86.1322 92.135 94.8173 93.675 96.9963 92.555C99.1753 91.435 99.0623 87.905 94.766 86.855C90.4696 85.805 83.9738 82.295 81.9593 82.935C79.9447 83.575 79.6261 86.025 79.6261 86.025L79.6364 86.035Z" fill="#78ABCE"/>
<path d="M93.9851 88.575C93.9851 88.575 98.415 83.305 100.882 80.885C103.349 78.475 103.832 78.335 104.931 79.175C106.031 80.015 103.842 83.025 102.598 85.185C101.355 87.355 98.97 92.545 96.4621 92.495C93.9543 92.445 93.0189 89.875 93.9851 88.565V88.575Z" fill="#78ABCE"/>
<path d="M69.2141 86.835C71.3417 83.985 81.1061 79.695 84.3848 84.185C85.6285 85.895 85.9882 88.845 86.2657 92.525C86.9647 101.845 87.3758 107.465 86.8824 108.505C86.3788 109.545 81.8153 119.305 68.1555 114.915C68.1555 114.915 66.6035 106.635 66.439 100.385C66.3259 96.355 67.1379 89.625 69.2141 86.835Z" fill="#8CC1ED"/>
<path d="M79.7597 78.225L80.068 80.615L80.4175 83.275C80.4175 83.275 80.4277 83.375 80.4277 83.425C80.4483 83.905 80.2838 84.365 79.9755 84.715C79.6774 85.055 79.256 85.295 78.7627 85.355C78.4338 85.395 78.1254 85.355 77.8376 85.245C77.2004 85.005 76.7276 84.445 76.6351 83.745L75.9773 78.695C75.9053 78.135 76.0903 77.605 76.4501 77.215C76.7481 76.895 77.1593 76.675 77.6218 76.615C78.1871 76.545 78.7318 76.725 79.1327 77.065C79.4616 77.355 79.698 77.755 79.7597 78.215V78.225Z" fill="#F7CB9C"/>
<g opacity="0.25">
<path d="M80.0785 80.615L80.428 83.275C80.428 83.275 80.4383 83.375 80.4383 83.425C79.9963 83.115 77.7454 81.465 78.1462 80.155C78.4032 79.315 79.3385 79.945 80.0785 80.615Z" fill="black"/>
</g>
<path d="M84.0764 75.595C84.7651 78.605 83.5831 81.425 81.4246 81.895C79.2662 82.365 76.9639 80.305 76.2752 77.295C75.5866 74.285 76.7686 71.465 78.927 70.995C81.0854 70.525 83.3878 72.585 84.0764 75.595Z" fill="#F7CB9C"/>
<path d="M75.9769 79.335C75.9769 79.335 78.3408 80.065 78.4334 78.715C78.5156 77.355 78.0736 76.235 78.0736 76.235C78.0736 76.235 84.3536 77.245 85.7926 72.445C87.2315 67.645 82.2466 67.925 82.6372 70.275C82.6372 70.275 78.0531 66.935 73.952 69.725C69.8613 72.515 71.475 81.345 76.3366 81.455C76.3366 81.455 76.5319 81.385 76.5524 80.935C76.5627 80.615 75.9769 79.335 75.9769 79.335Z" fill="#282828"/>
<path d="M77.0563 77.905C77.7758 78.585 77.9403 79.555 77.4263 80.075C76.9124 80.595 75.9052 80.465 75.1857 79.785C74.4662 79.105 74.3018 78.135 74.8157 77.615C75.3296 77.095 76.3369 77.225 77.0563 77.905Z" fill="#F7CB9C"/>
<path d="M68.8337 86.525C68.8337 86.525 66.8705 88.275 68.7617 91.705C70.6529 95.135 76.9124 101.185 79.3586 101.465C81.8048 101.745 83.768 98.765 80.8387 95.535C77.9094 92.305 74.5895 85.835 72.5544 85.255C70.5193 84.675 68.8337 86.525 68.8337 86.525Z" fill="#78ABCE"/>
<path d="M80.8287 96.465C80.8287 96.465 86.9956 99.695 89.8941 101.585C92.8028 103.485 93.0289 103.915 92.3917 105.135C91.7544 106.345 88.301 104.825 85.8753 104.045C83.4496 103.265 77.7658 101.985 77.3341 99.575C76.9024 97.175 79.3178 95.785 80.8287 96.465Z" fill="#78ABCE"/>
<path d="M92.2373 103.245C91.5076 103.115 90.3359 104.755 91.0245 105.735C91.7132 106.715 95.66 109.315 96.5337 109.045C97.4073 108.775 97.3868 106.495 94.5294 104.615C94.5294 104.615 96.4925 105.175 96.2664 104.245C96.1534 103.795 94.5602 103.675 92.2373 103.255V103.245Z" fill="#F7CB9C"/>
<path d="M102.989 78.965C102.721 79.635 104.15 81.075 105.27 80.595C106.391 80.115 109.762 76.855 109.659 75.965C109.546 75.075 107.244 74.665 104.808 77.035C104.808 77.035 105.754 75.275 104.757 75.305C104.284 75.325 103.862 76.825 102.989 78.965Z" fill="#F7CB9C"/>
<path d="M98.2401 151.915C98.2401 151.915 100.707 153.235 102.464 150.695C102.464 150.695 104.51 151.245 106.894 151.595C108.919 151.885 111.283 151.855 111.694 153.025C112.609 155.575 100.861 157.015 99.3707 156.725C97.8906 156.445 98.2298 151.915 98.2298 151.915H98.2401Z" fill="black"/>
<path d="M85.5569 128.955C85.5569 128.955 84.7141 131.635 87.5714 132.915C87.5714 132.915 87.3453 134.975 87.3761 137.315C87.407 139.305 87.8181 141.565 86.6978 142.155C84.2618 143.435 80.9111 132.385 80.9625 130.925C81.0139 129.455 85.5569 128.955 85.5569 128.955Z" fill="black"/>
<path d="M207.877 166.245L169.118 144.475C167.381 143.505 167.597 141.805 169.601 140.675L174.997 137.645C177.001 136.525 180.023 136.395 181.76 137.375L220.52 159.145C222.257 160.115 222.041 161.815 220.036 162.945L214.64 165.975C212.636 167.095 209.614 167.225 207.877 166.245Z" fill="#CACAE0"/>
<path d="M207.199 47.825L171.523 41.005L182.018 60.985C182.018 77.945 188.606 97.775 200.076 115.335L217.159 141.495L204.219 148.765V151.205L213.191 147.545C213.849 147.275 214.486 146.985 215.113 146.675L216.645 145.815L226.779 140.155L228.321 139.295C231.24 137.545 233.768 135.195 235.845 132.335C240.408 126.085 242.875 117.395 242.875 107.015V81.105L207.199 47.825Z" fill="#2C917B"/>
<path d="M231.261 87.575L195.585 54.305L159.909 47.495V73.405C159.909 90.365 166.498 110.195 177.968 127.755L195.585 154.725L213.202 147.545C224.672 142.875 231.261 130.445 231.261 113.485V87.575Z" fill="#68DFA5"/>
<path d="M225.33 90.395L195.585 62.655L165.84 56.975V78.575C165.84 92.715 171.339 109.245 180.897 123.895L195.585 146.385L210.273 140.405C219.842 136.505 225.33 126.145 225.33 112.005V90.405V90.395Z" fill="#55C597"/>
<path d="M159.909 47.495L195.585 54.315L207.199 47.825L171.524 41.005L159.909 47.495Z" fill="#52CEA0"/>
<path d="M231.261 87.575L242.885 81.095L207.199 47.825L195.585 54.315L231.261 87.575Z" fill="#47A98B"/>
<path d="M195.235 118.085L199.192 115.855C199.336 115.775 199.47 115.665 199.593 115.535L195.636 117.765C195.513 117.895 195.379 117.995 195.235 118.085Z" fill="#DBDBF5"/>
<mask id="mask0_155_644" style="mask-type:luminance" maskUnits="userSpaceOnUse" x="195" y="115" width="5" height="4">
<path d="M195.235 118.085L199.192 115.855C199.336 115.775 199.47 115.665 199.593 115.535L195.636 117.765C195.513 117.895 195.379 117.995 195.235 118.085Z" fill="white"/>
</mask>
<g mask="url(#mask0_155_644)">
<path d="M195.235 118.085L199.192 115.855C199.336 115.775 199.47 115.665 199.593 115.535L195.636 117.765C195.513 117.895 195.379 117.995 195.235 118.085Z" fill="#DBDBF5"/>
</g>
<path d="M187.794 93.375L183.837 95.605C183.991 95.515 184.166 95.455 184.351 95.415C184.957 95.285 185.656 95.455 186.345 95.845L190.302 93.615C189.613 93.225 188.914 93.065 188.308 93.185C188.123 93.225 187.948 93.285 187.794 93.375Z" fill="#DBDBF5"/>
<mask id="mask1_155_644" style="mask-type:luminance" maskUnits="userSpaceOnUse" x="183" y="93" width="8" height="3">
<path d="M187.794 93.375L183.837 95.605C183.991 95.515 184.166 95.455 184.351 95.415C184.957 95.285 185.656 95.455 186.345 95.845L190.302 93.615C189.613 93.225 188.914 93.065 188.308 93.185C188.123 93.225 187.948 93.285 187.794 93.375Z" fill="white"/>
</mask>
<g mask="url(#mask1_155_644)">
<path d="M186.356 95.845L190.313 93.615C189.624 93.225 188.925 93.065 188.319 93.185C188.134 93.225 187.959 93.285 187.805 93.375L183.848 95.605C184.002 95.515 184.177 95.455 184.362 95.415C184.968 95.285 185.667 95.455 186.356 95.845Z" fill="#DBDBF5"/>
</g>
<path d="M192.768 106.945L196.715 104.715L193.21 96.945L189.253 99.185L192.768 106.945Z" fill="#DBDBF5"/>
<path d="M189.253 99.185L193.21 96.955C192.532 95.455 191.432 94.245 190.312 93.615L186.354 95.845C187.475 96.475 188.575 97.695 189.253 99.185Z" fill="#DBDBF5"/>
<mask id="mask2_155_644" style="mask-type:luminance" maskUnits="userSpaceOnUse" x="186" y="93" width="8" height="7">
<path d="M189.253 99.185L193.21 96.955C192.532 95.455 191.432 94.245 190.312 93.615L186.354 95.845C187.475 96.475 188.575 97.695 189.253 99.185Z" fill="white"/>
</mask>
<g mask="url(#mask2_155_644)">
<path d="M189.253 99.185L193.21 96.955C192.532 95.455 191.432 94.245 190.312 93.615L186.354 95.845C187.475 96.475 188.575 97.695 189.253 99.185Z" fill="#DBDBF5"/>
</g>
<path d="M195.636 117.765L199.593 115.535L211.803 95.225L207.846 97.455L195.636 117.765Z" fill="#DBDBF5"/>
<path d="M206.407 87.185L202.45 89.415C203.129 89.035 204.033 89.135 204.958 89.655C205.647 90.045 206.335 90.655 206.952 91.465C208.555 93.595 208.956 96.275 207.846 97.455L211.803 95.225C212.913 94.055 212.513 91.365 210.909 89.235C210.303 88.425 209.604 87.805 208.915 87.425C207.99 86.905 207.086 86.805 206.407 87.185Z" fill="#DBDBF5"/>
<mask id="mask3_155_644" style="mask-type:luminance" maskUnits="userSpaceOnUse" x="202" y="86" width="11" height="12">
<path d="M206.407 87.185L202.45 89.415C203.129 89.035 204.033 89.135 204.958 89.655C205.647 90.045 206.335 90.655 206.952 91.465C208.555 93.595 208.956 96.275 207.846 97.455L211.803 95.225C212.913 94.055 212.513 91.365 210.909 89.235C210.303 88.425 209.604 87.805 208.915 87.425C207.99 86.905 207.086 86.805 206.407 87.185Z" fill="white"/>
</mask>
<g mask="url(#mask3_155_644)">
<path d="M207.846 97.455L211.803 95.225C212.913 94.055 212.513 91.365 210.909 89.235C210.303 88.425 209.604 87.805 208.915 87.425C207.99 86.905 207.086 86.805 206.407 87.185L202.45 89.415C203.129 89.035 204.033 89.135 204.958 89.655C205.647 90.045 206.335 90.655 206.952 91.465C208.555 93.595 208.956 96.275 207.846 97.455Z" fill="#DBDBF5"/>
</g>
<path d="M186.355 95.845C185.666 95.455 184.967 95.295 184.361 95.415C182.757 95.745 182.336 97.965 183.436 100.385L189.839 114.515C190.497 115.955 191.576 117.205 192.737 117.855C193.899 118.505 194.988 118.475 195.646 117.775L207.857 97.465C208.967 96.295 208.566 93.605 206.963 91.475C206.356 90.665 205.657 90.045 204.969 89.665C203.848 89.035 202.738 89.015 202.06 89.745L192.779 106.965L189.274 99.195C188.595 97.705 187.496 96.485 186.375 95.855L186.355 95.845Z" fill="white"/>
<path d="M222.443 111.275C222.103 110.385 221.394 109.595 221.394 108.645C221.394 107.915 221.805 107.265 222.052 106.575C222.175 106.235 222.258 105.885 222.299 105.525C222.36 104.995 222.33 104.445 222.103 103.955C221.774 103.235 221.045 102.725 220.253 102.575C219.462 102.425 218.619 102.625 217.93 103.055C217.519 103.305 217.18 103.655 216.933 104.065C216.831 104.235 216.81 104.405 216.594 104.395C216.461 104.395 216.183 104.135 216.173 103.995C216.235 106.035 217.139 107.965 217.324 109.995C217.437 111.205 217.283 112.465 217.663 113.615C217.93 114.405 218.455 115.175 219.164 115.665C219.852 116.145 220.808 115.775 221.384 115.285C222.525 114.315 222.956 112.645 222.432 111.275H222.443Z" fill="#4D4D4D"/>
<path d="M230.018 78.765C229.915 76.925 229.792 75.035 229.021 73.355C228.25 71.675 226.657 70.215 224.765 70.125C222.494 70.005 221.692 72.225 220.51 73.675C217.961 76.805 215.515 80.015 213.192 83.305C212.719 83.975 212.236 84.655 211.959 85.425C211.753 85.995 211.671 86.615 211.774 87.205C211.712 88.865 212.082 90.915 212.308 92.075C212.37 92.385 215.011 102.675 216.327 105.275C216.491 105.605 216.625 105.705 217.005 105.765C217.643 105.865 218.331 105.675 218.907 105.415C219.246 105.265 219.554 105.075 219.842 104.835C220.706 104.115 219.986 103.035 219.842 102.115C219.678 101.045 219.667 99.965 219.709 98.895C219.78 97.115 219.976 95.325 219.811 93.545C219.637 91.675 219.051 89.845 218.105 88.205C220.932 85.935 224.457 84.545 227.222 82.195C228.085 81.455 228.866 80.635 229.648 79.815C229.761 79.695 229.884 79.565 229.946 79.415C230.038 79.205 230.028 78.965 230.018 78.745V78.765Z" fill="#144FA5"/>
<path d="M208.094 97.975C208.022 97.555 207.847 97.185 207.683 96.795C207.539 96.455 207.333 96.385 207.066 96.115C206.922 95.965 206.809 95.785 206.645 95.645C206.182 95.255 205.566 95.055 204.949 95.085C204.661 95.105 204.281 95.155 204.014 95.235C203.695 95.335 203.551 95.665 203.387 95.935C203.16 96.315 202.873 96.655 202.585 96.995C202.554 97.025 202.533 97.055 202.503 97.095C201.156 98.715 199.841 100.355 198.566 102.035C197.744 103.125 195.668 105.195 197.713 106.175C198.381 106.495 199.162 106.465 199.892 106.315C201.937 105.885 203.757 104.505 204.692 102.685C204.99 102.105 205.226 101.245 205.781 100.835C206.357 100.415 207.107 100.315 207.601 99.755C208.022 99.265 208.197 98.595 208.094 97.975Z" fill="#4D4D4D"/>
<path d="M238.364 74.455C238.23 73.835 238.014 73.245 237.696 72.695C237.655 73.105 237.583 74.145 237.264 74.445C236.976 74.695 236.154 74.495 235.763 74.505C234.9 74.535 228.219 74.865 227.284 74.815C225.29 74.725 223.306 74.525 221.333 74.215C219.791 73.975 218.249 73.675 216.687 73.705C215.197 73.735 213.624 73.815 212.319 74.575C209.677 76.115 208.917 79.625 208.074 82.265C207.149 85.155 204.189 93.805 203.551 95.205C203.274 95.815 202.822 96.225 203.243 96.845C203.582 97.345 204.148 97.705 204.733 97.875C204.754 97.875 204.785 97.885 204.805 97.895C205.7 98.125 206.655 97.985 207.539 97.705C207.642 97.675 207.755 97.635 207.837 97.565C207.93 97.485 207.981 97.375 208.033 97.265C209.657 93.665 212.185 90.505 213.717 86.865C214.241 85.625 214.642 84.335 215.33 83.185C216.06 81.955 217.098 82.485 218.239 82.765C219.524 83.075 220.829 83.315 222.134 83.525C225.711 84.105 229.411 84.515 232.947 83.705C234.037 83.455 235.126 83.085 236.031 82.435C238.158 80.915 238.621 78.295 238.559 75.875C238.549 75.395 238.497 74.925 238.395 74.455H238.364Z" fill="#144FA5"/>
<path d="M228.794 77.385L228.414 77.345V77.495L213.726 69.245C213.295 69.005 212.534 69.035 212.03 69.315L203.273 74.235C203.273 74.235 203.222 74.265 203.201 74.285V74.165L202.862 74.215V74.905C202.862 75.065 202.955 75.215 203.15 75.325L217.93 83.625C218.362 83.865 219.122 83.835 219.626 83.555L228.383 78.635C228.671 78.475 228.815 78.255 228.794 78.055V77.385Z" fill="#A3A3A3"/>
<path d="M226.421 79.605L227.202 79.165V78.725L226.421 79.165V79.605Z" fill="#DDDDDD"/>
<path d="M227.038 79.065V78.815L227.202 78.725V79.165L226.421 79.605V79.415L227.038 79.065Z" fill="#B2B2B2"/>
<path d="M228.384 77.925L219.627 82.845C219.123 83.125 218.362 83.155 217.931 82.915L203.151 74.615C202.719 74.375 202.77 73.945 203.274 73.665L212.031 68.745C212.535 68.465 213.295 68.435 213.727 68.675L228.507 76.975C228.939 77.215 228.887 77.645 228.384 77.925Z" fill="#F2F2F9"/>
<path d="M217.633 81.945L205.104 74.905C204.795 74.725 204.826 74.425 205.196 74.225L209.38 71.875C209.739 71.675 210.284 71.655 210.592 71.825L223.122 78.865C223.43 79.045 223.399 79.345 223.029 79.545L218.846 81.895C218.486 82.095 217.941 82.115 217.633 81.945Z" fill="#DBDBDB"/>
<path d="M210.767 72.355L210.233 72.065C210.151 72.015 210.007 72.025 209.904 72.075L209.873 72.095H209.791V72.145C209.791 72.145 209.812 72.205 209.842 72.225L210.408 72.545C210.49 72.595 210.634 72.585 210.737 72.535L210.767 72.515C210.819 72.485 210.85 72.445 210.85 72.415V72.365H210.757L210.767 72.355Z" fill="#38424D"/>
<path d="M210.418 72.485L209.853 72.165C209.77 72.115 209.781 72.035 209.873 71.985L209.904 71.965C209.997 71.915 210.151 71.905 210.233 71.955L210.798 72.275C210.88 72.325 210.87 72.405 210.778 72.455L210.747 72.475C210.654 72.525 210.5 72.535 210.418 72.485Z" fill="#999999"/>
<path d="M211.765 72.915L211.23 72.625C211.148 72.575 211.004 72.585 210.901 72.635L210.87 72.655H210.788V72.705C210.788 72.705 210.809 72.765 210.839 72.785L211.405 73.105C211.487 73.155 211.631 73.145 211.734 73.095L211.765 73.075C211.816 73.045 211.847 73.005 211.847 72.975V72.925H211.754L211.765 72.915Z" fill="#38424D"/>
<path d="M211.415 73.045L210.85 72.725C210.767 72.675 210.778 72.595 210.87 72.545L210.901 72.525C210.994 72.475 211.137 72.465 211.23 72.515L211.806 72.835C211.888 72.885 211.878 72.965 211.785 73.015L211.754 73.035C211.662 73.085 211.508 73.095 211.425 73.045H211.415Z" fill="#999999"/>
<path d="M212.762 73.475L212.227 73.185C212.145 73.135 212.001 73.145 211.898 73.195L211.867 73.215H211.785V73.265C211.785 73.265 211.806 73.325 211.837 73.345L212.412 73.665C212.494 73.715 212.638 73.705 212.741 73.655L212.772 73.635C212.823 73.605 212.854 73.565 212.854 73.535V73.485H212.762V73.475Z" fill="#38424D"/>
<path d="M212.422 73.605L211.847 73.285C211.765 73.235 211.775 73.155 211.867 73.105L211.898 73.085C211.991 73.035 212.145 73.025 212.227 73.075L212.792 73.395C212.875 73.445 212.864 73.525 212.772 73.575L212.741 73.595C212.648 73.645 212.494 73.655 212.412 73.605H212.422Z" fill="#999999"/>
<path d="M213.768 74.035L213.234 73.745C213.152 73.695 213.008 73.705 212.905 73.755L212.874 73.775H212.792V73.825C212.792 73.825 212.813 73.885 212.843 73.905L213.419 74.225C213.501 74.275 213.645 74.265 213.748 74.215L213.779 74.195C213.83 74.165 213.861 74.125 213.861 74.095V74.045H213.768V74.035Z" fill="#38424D"/>
<path d="M213.419 74.165L212.844 73.845C212.762 73.795 212.772 73.715 212.864 73.665L212.895 73.645C212.988 73.595 213.142 73.585 213.224 73.635L213.8 73.955C213.882 74.005 213.872 74.085 213.779 74.135L213.748 74.155C213.656 74.205 213.502 74.215 213.419 74.165Z" fill="#999999"/>
<path d="M214.765 74.595L214.231 74.305C214.149 74.255 214.005 74.265 213.902 74.315L213.871 74.335H213.789V74.385C213.789 74.385 213.81 74.445 213.84 74.465L214.406 74.785C214.488 74.835 214.632 74.825 214.735 74.775L214.765 74.755C214.817 74.725 214.848 74.685 214.848 74.655V74.605H214.755L214.765 74.595Z" fill="#38424D"/>
<path d="M214.416 74.725L213.851 74.405C213.768 74.355 213.779 74.275 213.871 74.225L213.902 74.205C213.995 74.155 214.138 74.145 214.231 74.195L214.807 74.515C214.889 74.565 214.879 74.645 214.786 74.695L214.755 74.715C214.663 74.765 214.508 74.775 214.426 74.725H214.416Z" fill="#999999"/>
<path d="M215.763 75.165L215.228 74.875C215.146 74.825 215.002 74.835 214.899 74.885L214.868 74.905H214.786V74.955C214.786 74.955 214.807 75.015 214.838 75.035L215.413 75.355C215.495 75.405 215.639 75.395 215.742 75.345L215.773 75.325C215.824 75.295 215.855 75.255 215.855 75.225V75.175H215.763V75.165Z" fill="#38424D"/>
<path d="M215.414 75.295L214.838 74.975C214.756 74.925 214.766 74.845 214.859 74.795L214.889 74.775C214.982 74.725 215.126 74.715 215.218 74.765L215.794 75.085C215.876 75.135 215.866 75.215 215.773 75.265L215.742 75.285C215.65 75.335 215.496 75.345 215.414 75.295Z" fill="#999999"/>
<path d="M216.76 75.725L216.225 75.435C216.143 75.385 215.999 75.395 215.896 75.445L215.865 75.465H215.783V75.515C215.783 75.515 215.804 75.575 215.835 75.595L216.4 75.915C216.482 75.965 216.626 75.955 216.729 75.905L216.76 75.885C216.811 75.855 216.842 75.815 216.842 75.785V75.735H216.749L216.76 75.725Z" fill="#38424D"/>
<path d="M216.421 75.855L215.856 75.535C215.773 75.485 215.784 75.405 215.876 75.355L215.907 75.335C215.999 75.285 216.143 75.275 216.236 75.325L216.811 75.645C216.894 75.695 216.883 75.775 216.791 75.825L216.76 75.845C216.668 75.895 216.513 75.905 216.431 75.855H216.421Z" fill="#999999"/>
<path d="M217.766 76.285L217.232 75.995C217.15 75.945 217.006 75.955 216.903 76.005L216.872 76.025H216.79V76.075C216.79 76.075 216.811 76.135 216.841 76.155L217.417 76.475C217.499 76.525 217.643 76.515 217.746 76.465L217.777 76.445C217.828 76.415 217.859 76.375 217.859 76.345V76.295H217.766V76.285Z" fill="#38424D"/>
<path d="M217.417 76.415L216.842 76.095C216.76 76.045 216.77 75.965 216.862 75.915L216.893 75.895C216.986 75.845 217.14 75.835 217.222 75.885L217.798 76.205C217.88 76.255 217.87 76.335 217.777 76.385L217.746 76.405C217.654 76.455 217.5 76.465 217.417 76.415Z" fill="#999999"/>
<path d="M218.764 76.845L218.229 76.555C218.147 76.505 218.003 76.515 217.9 76.565L217.869 76.585H217.787V76.635C217.787 76.635 217.808 76.695 217.839 76.715L218.404 77.035C218.486 77.085 218.63 77.075 218.733 77.025L218.764 77.005C218.815 76.975 218.846 76.935 218.846 76.905V76.855H218.753L218.764 76.845Z" fill="#38424D"/>
<path d="M218.415 76.975L217.839 76.655C217.757 76.605 217.767 76.525 217.86 76.475L217.89 76.455C217.983 76.405 218.127 76.395 218.219 76.445L218.785 76.765C218.867 76.815 218.856 76.895 218.764 76.945L218.733 76.965C218.641 77.015 218.486 77.025 218.404 76.975H218.415Z" fill="#999999"/>
<path d="M219.761 77.405L219.226 77.115C219.144 77.065 219 77.075 218.897 77.125L218.866 77.145H218.784V77.195C218.784 77.195 218.805 77.255 218.836 77.275L219.411 77.595C219.493 77.645 219.637 77.635 219.74 77.585L219.771 77.565C219.822 77.535 219.853 77.495 219.853 77.465V77.415H219.761V77.405Z" fill="#38424D"/>
<path d="M219.412 77.535L218.836 77.215C218.754 77.165 218.764 77.085 218.857 77.035L218.887 77.015C218.98 76.965 219.134 76.955 219.216 77.005L219.792 77.325C219.874 77.375 219.864 77.455 219.771 77.505L219.741 77.525C219.648 77.575 219.494 77.585 219.412 77.535Z" fill="#999999"/>
<path d="M220.758 77.965L220.223 77.675C220.141 77.625 219.997 77.635 219.894 77.685L219.863 77.705H219.781V77.755C219.781 77.755 219.802 77.815 219.833 77.835L220.408 78.155C220.49 78.205 220.634 78.195 220.737 78.145L220.768 78.125C220.819 78.095 220.85 78.055 220.85 78.025V77.975H220.758V77.965Z" fill="#38424D"/>
<path d="M220.418 78.095L219.843 77.775C219.761 77.725 219.771 77.645 219.863 77.595L219.894 77.575C219.987 77.525 220.141 77.515 220.223 77.565L220.799 77.885C220.881 77.935 220.871 78.015 220.778 78.065L220.747 78.085C220.655 78.135 220.501 78.145 220.418 78.095Z" fill="#999999"/>
<path d="M221.765 78.525L221.23 78.235C221.148 78.185 221.004 78.195 220.901 78.245L220.87 78.265H220.788V78.315C220.788 78.315 220.809 78.375 220.839 78.395L221.415 78.715C221.497 78.765 221.641 78.755 221.744 78.705L221.775 78.685C221.826 78.655 221.857 78.615 221.857 78.585V78.535H221.765V78.525Z" fill="#38424D"/>
<path d="M221.416 78.655L220.84 78.335C220.758 78.285 220.768 78.205 220.86 78.155L220.891 78.135C220.984 78.085 221.128 78.075 221.22 78.125L221.796 78.445C221.878 78.495 221.868 78.575 221.775 78.625L221.744 78.645C221.652 78.695 221.498 78.705 221.416 78.655Z" fill="#999999"/>
<path d="M222.763 79.095L222.228 78.805C222.146 78.755 222.002 78.765 221.899 78.815L221.868 78.835H221.786V78.885C221.786 78.885 221.807 78.945 221.838 78.965L222.403 79.285C222.485 79.335 222.629 79.325 222.732 79.275L222.763 79.255C222.814 79.225 222.845 79.185 222.845 79.155V79.105H222.752L222.763 79.095Z" fill="#38424D"/>
<path d="M222.413 79.225L221.848 78.905C221.766 78.855 221.776 78.775 221.868 78.725L221.899 78.705C221.992 78.655 222.136 78.645 222.228 78.695L222.804 79.015C222.886 79.065 222.876 79.145 222.783 79.195L222.752 79.215C222.66 79.265 222.506 79.275 222.423 79.225H222.413Z" fill="#999999"/>
<path d="M210.274 72.605V72.655L209.678 72.315C209.678 72.315 209.555 72.295 209.493 72.315L209.01 72.585V72.565H208.846V72.625C208.846 72.625 208.846 72.665 208.877 72.675L209.586 73.075C209.586 73.075 209.709 73.095 209.771 73.075L210.377 72.735C210.377 72.735 210.418 72.695 210.418 72.675V72.625L210.285 72.615L210.274 72.605Z" fill="#38424D"/>
<path d="M209.586 73.015L208.877 72.615C208.877 72.615 208.836 72.545 208.887 72.515L209.494 72.175C209.545 72.145 209.627 72.145 209.679 72.175L210.388 72.575C210.388 72.575 210.429 72.645 210.378 72.675L209.771 73.015C209.72 73.045 209.637 73.045 209.586 73.015Z" fill="#999999"/>
<path d="M211.281 73.175V73.225L210.685 72.885C210.685 72.885 210.562 72.865 210.5 72.885L210.017 73.155V73.135H209.853V73.195C209.853 73.195 209.853 73.235 209.883 73.245L210.593 73.645C210.593 73.645 210.716 73.665 210.778 73.645L211.384 73.305C211.384 73.305 211.425 73.265 211.425 73.245V73.195L211.292 73.185L211.281 73.175Z" fill="#38424D"/>
<path d="M210.582 73.575L209.873 73.175C209.873 73.175 209.832 73.105 209.883 73.075L210.49 72.735C210.541 72.705 210.623 72.705 210.675 72.735L211.384 73.135C211.384 73.135 211.425 73.205 211.374 73.235L210.767 73.575C210.716 73.605 210.634 73.605 210.582 73.575Z" fill="#999999"/>
<path d="M212.278 73.735V73.785L211.682 73.445C211.682 73.445 211.559 73.425 211.497 73.445L211.014 73.715V73.695H210.85V73.755C210.85 73.755 210.85 73.795 210.88 73.805L211.59 74.205C211.59 74.205 211.713 74.225 211.775 74.205L212.381 73.865C212.381 73.865 212.422 73.825 212.422 73.805V73.755L212.289 73.745L212.278 73.735Z" fill="#38424D"/>
<path d="M211.59 74.145L210.881 73.745C210.881 73.745 210.84 73.675 210.891 73.645L211.498 73.305C211.549 73.275 211.631 73.275 211.683 73.305L212.392 73.705C212.392 73.705 212.433 73.775 212.381 73.805L211.775 74.145C211.724 74.175 211.641 74.175 211.59 74.145Z" fill="#999999"/>
<path d="M213.275 74.305V74.355L212.679 74.015C212.679 74.015 212.556 73.995 212.494 74.015L212.011 74.285V74.265H211.847V74.325C211.847 74.325 211.847 74.365 211.878 74.375L212.587 74.775C212.587 74.775 212.71 74.795 212.772 74.775L213.378 74.435C213.378 74.435 213.419 74.395 213.419 74.375V74.325L213.286 74.315L213.275 74.305Z" fill="#38424D"/>
<path d="M212.587 74.705L211.878 74.305C211.878 74.305 211.837 74.235 211.888 74.205L212.495 73.865C212.546 73.835 212.628 73.835 212.68 73.865L213.389 74.265C213.389 74.265 213.43 74.335 213.379 74.365L212.772 74.705C212.721 74.735 212.638 74.735 212.587 74.705Z" fill="#999999"/>
<path d="M214.272 74.865V74.915L213.676 74.575C213.676 74.575 213.553 74.555 213.491 74.575L213.008 74.845V74.825H212.844V74.885C212.844 74.885 212.844 74.925 212.875 74.935L213.584 75.335C213.584 75.335 213.707 75.355 213.769 75.335L214.375 74.995C214.375 74.995 214.416 74.955 214.416 74.935V74.885L214.283 74.875L214.272 74.865Z" fill="#38424D"/>
<path d="M213.584 75.265L212.875 74.865C212.875 74.865 212.834 74.795 212.885 74.765L213.492 74.425C213.543 74.395 213.625 74.395 213.677 74.425L214.386 74.825C214.386 74.825 214.427 74.895 214.376 74.925L213.769 75.265C213.718 75.295 213.636 75.295 213.584 75.265Z" fill="#999999"/>
<path d="M215.28 75.415V75.465L214.684 75.125C214.684 75.125 214.561 75.105 214.499 75.125L214.016 75.395V75.375H213.852V75.435C213.852 75.435 213.852 75.475 213.882 75.485L214.592 75.885C214.592 75.885 214.715 75.905 214.777 75.885L215.383 75.545C215.383 75.545 215.424 75.505 215.424 75.485V75.435L215.291 75.425L215.28 75.415Z" fill="#38424D"/>
<path d="M214.581 75.825L213.872 75.425C213.872 75.425 213.831 75.355 213.882 75.325L214.489 74.985C214.54 74.955 214.622 74.955 214.674 74.985L215.383 75.385C215.383 75.385 215.424 75.455 215.373 75.485L214.766 75.825C214.715 75.855 214.633 75.855 214.581 75.825Z" fill="#999999"/>
<path d="M216.277 75.985V76.035L215.681 75.695C215.681 75.695 215.558 75.675 215.496 75.695L215.013 75.965V75.945H214.849V76.005C214.849 76.005 214.849 76.045 214.879 76.055L215.589 76.455C215.589 76.455 215.712 76.475 215.774 76.455L216.38 76.115C216.38 76.115 216.421 76.075 216.421 76.055V76.005L216.288 75.995L216.277 75.985Z" fill="#38424D"/>
<path d="M215.589 76.385L214.88 75.985C214.88 75.985 214.839 75.915 214.89 75.885L215.497 75.545C215.548 75.515 215.63 75.515 215.682 75.545L216.391 75.945C216.391 75.945 216.432 76.015 216.38 76.045L215.774 76.385C215.723 76.415 215.64 76.415 215.589 76.385Z" fill="#999999"/>
<path d="M217.273 76.545V76.595L216.677 76.255C216.677 76.255 216.554 76.235 216.492 76.255L216.009 76.525V76.505H215.845V76.565C215.845 76.565 215.845 76.605 215.876 76.615L216.585 77.015C216.585 77.015 216.708 77.035 216.77 77.015L217.376 76.675C217.376 76.675 217.417 76.635 217.417 76.615V76.565L217.284 76.555L217.273 76.545Z" fill="#38424D"/>
<path d="M216.585 76.945L215.876 76.545C215.876 76.545 215.835 76.475 215.886 76.445L216.493 76.105C216.544 76.075 216.626 76.075 216.678 76.105L217.387 76.505C217.387 76.505 217.428 76.575 217.377 76.605L216.77 76.945C216.719 76.975 216.637 76.975 216.585 76.945Z" fill="#999999"/>
<path d="M218.27 77.105V77.155L217.674 76.815C217.674 76.815 217.551 76.795 217.489 76.815L217.006 77.085V77.065H216.842V77.125C216.842 77.125 216.842 77.165 216.873 77.175L217.582 77.575C217.582 77.575 217.705 77.595 217.767 77.575L218.373 77.235C218.373 77.235 218.414 77.195 218.414 77.175V77.125L218.281 77.115L218.27 77.105Z" fill="#38424D"/>
<path d="M217.582 77.505L216.873 77.105C216.873 77.105 216.832 77.035 216.883 77.005L217.49 76.665C217.541 76.635 217.623 76.635 217.675 76.665L218.384 77.065C218.384 77.065 218.425 77.135 218.374 77.165L217.767 77.505C217.716 77.535 217.634 77.535 217.582 77.505Z" fill="#999999"/>
<path d="M219.278 77.665V77.715L218.682 77.375C218.682 77.375 218.559 77.355 218.497 77.375L218.014 77.645V77.625H217.85V77.685C217.85 77.685 217.85 77.725 217.88 77.735L218.59 78.135C218.59 78.135 218.713 78.155 218.775 78.135L219.381 77.795C219.381 77.795 219.422 77.755 219.422 77.735V77.685L219.289 77.675L219.278 77.665Z" fill="#38424D"/>
<path d="M218.579 78.075L217.87 77.675C217.87 77.675 217.829 77.605 217.88 77.575L218.487 77.235C218.538 77.205 218.62 77.205 218.672 77.235L219.381 77.635C219.381 77.635 219.422 77.705 219.371 77.735L218.764 78.075C218.713 78.105 218.631 78.105 218.579 78.075Z" fill="#999999"/>
<path d="M220.275 78.225V78.275L219.679 77.935C219.679 77.935 219.556 77.915 219.494 77.935L219.011 78.205V78.185H218.847V78.245C218.847 78.245 218.847 78.285 218.878 78.295L219.587 78.695C219.587 78.695 219.71 78.715 219.772 78.695L220.378 78.355C220.378 78.355 220.419 78.315 220.419 78.295V78.245L220.286 78.235L220.275 78.225Z" fill="#38424D"/>
<path d="M219.587 78.635L218.878 78.235C218.878 78.235 218.837 78.165 218.888 78.135L219.495 77.795C219.546 77.765 219.628 77.765 219.68 77.795L220.389 78.195C220.389 78.195 220.43 78.265 220.378 78.295L219.772 78.635C219.721 78.665 219.638 78.665 219.587 78.635Z" fill="#999999"/>
<path d="M221.272 78.785V78.835L220.676 78.495C220.676 78.495 220.553 78.475 220.491 78.495L220.008 78.765V78.745H219.844V78.805C219.844 78.805 219.844 78.845 219.875 78.855L220.584 79.255C220.584 79.255 220.707 79.275 220.769 79.255L221.375 78.915C221.375 78.915 221.416 78.875 221.416 78.855V78.805L221.283 78.795L221.272 78.785Z" fill="#38424D"/>
<path d="M220.584 79.195L219.875 78.795C219.875 78.795 219.834 78.725 219.885 78.695L220.492 78.355C220.543 78.325 220.625 78.325 220.677 78.355L221.386 78.755C221.386 78.755 221.427 78.825 221.376 78.855L220.769 79.195C220.718 79.225 220.636 79.225 220.584 79.195Z" fill="#999999"/>
<path d="M222.269 79.345V79.395L221.673 79.055C221.673 79.055 221.55 79.035 221.488 79.055L221.005 79.325V79.305H220.841V79.365C220.841 79.365 220.841 79.405 220.872 79.415L221.581 79.815C221.581 79.815 221.704 79.835 221.766 79.815L222.372 79.475C222.372 79.475 222.413 79.435 222.413 79.415V79.365L222.28 79.355L222.269 79.345Z" fill="#38424D"/>
<path d="M221.581 79.755L220.872 79.355C220.872 79.355 220.831 79.285 220.882 79.255L221.489 78.915C221.54 78.885 221.622 78.885 221.674 78.915L222.383 79.315C222.383 79.315 222.424 79.385 222.373 79.415L221.766 79.755C221.715 79.785 221.633 79.785 221.581 79.755Z" fill="#999999"/>
<path d="M210.397 73.665V73.715L208.804 72.815C208.804 72.815 208.681 72.795 208.619 72.815L208.136 73.085V73.065H207.972V73.125C207.972 73.125 207.972 73.165 208.003 73.175L209.709 74.135C209.709 74.135 209.832 74.155 209.894 74.135L210.5 73.795C210.5 73.795 210.541 73.755 210.541 73.735V73.685L210.408 73.675L210.397 73.665Z" fill="#38424D"/>
<path d="M209.709 74.075L208.003 73.115C208.003 73.115 207.962 73.045 208.013 73.015L208.62 72.675C208.671 72.645 208.753 72.645 208.805 72.675L210.511 73.635C210.511 73.635 210.552 73.705 210.5 73.735L209.894 74.075C209.843 74.105 209.76 74.105 209.709 74.075Z" fill="#999999"/>
<path d="M211.394 74.225V74.275L210.798 73.935C210.798 73.935 210.675 73.915 210.613 73.935L210.13 74.205V74.185H209.966V74.245C209.966 74.245 209.966 74.285 209.997 74.295L210.706 74.695C210.706 74.695 210.829 74.715 210.891 74.695L211.497 74.355C211.497 74.355 211.538 74.315 211.538 74.295V74.245L211.405 74.235L211.394 74.225Z" fill="#38424D"/>
<path d="M210.706 74.635L209.997 74.235C209.997 74.235 209.956 74.165 210.007 74.135L210.614 73.795C210.665 73.765 210.747 73.765 210.799 73.795L211.508 74.195C211.508 74.195 211.549 74.265 211.498 74.295L210.891 74.635C210.84 74.665 210.758 74.665 210.706 74.635Z" fill="#999999"/>
<path d="M212.392 74.785V74.835L211.795 74.495C211.795 74.495 211.672 74.475 211.61 74.495L211.127 74.765V74.745H210.963V74.805C210.963 74.805 210.963 74.845 210.994 74.855L211.703 75.255C211.703 75.255 211.826 75.275 211.888 75.255L212.494 74.915C212.494 74.915 212.535 74.875 212.535 74.855V74.805L212.402 74.795L212.392 74.785Z" fill="#38424D"/>
<path d="M211.703 75.195L210.994 74.795C210.994 74.795 210.953 74.725 211.004 74.695L211.611 74.355C211.662 74.325 211.744 74.325 211.796 74.355L212.505 74.755C212.505 74.755 212.546 74.825 212.495 74.855L211.888 75.195C211.837 75.225 211.755 75.225 211.703 75.195Z" fill="#999999"/>
<path d="M213.389 75.355V75.405L212.792 75.065C212.792 75.065 212.669 75.045 212.607 75.065L212.124 75.335V75.315H211.96V75.375C211.96 75.375 211.96 75.415 211.991 75.425L212.7 75.825C212.7 75.825 212.823 75.845 212.885 75.825L213.491 75.485C213.491 75.485 213.533 75.445 213.533 75.425V75.375L213.399 75.365L213.389 75.355Z" fill="#38424D"/>
<path d="M212.7 75.755L211.991 75.355C211.991 75.355 211.95 75.285 212.001 75.255L212.608 74.915C212.659 74.885 212.741 74.885 212.793 74.915L213.502 75.315C213.502 75.315 213.543 75.385 213.492 75.415L212.885 75.755C212.834 75.785 212.752 75.785 212.7 75.755Z" fill="#999999"/>
<path d="M214.395 75.915V75.965L213.799 75.625C213.799 75.625 213.676 75.605 213.614 75.625L213.131 75.895V75.875H212.967V75.935C212.967 75.935 212.967 75.975 212.998 75.985L213.707 76.385C213.707 76.385 213.83 76.405 213.892 76.385L214.498 76.045C214.498 76.045 214.539 76.005 214.539 75.985V75.935L214.406 75.925L214.395 75.915Z" fill="#38424D"/>
<path d="M213.707 76.315L212.998 75.915C212.998 75.915 212.957 75.845 213.008 75.815L213.615 75.475C213.666 75.445 213.748 75.445 213.8 75.475L214.509 75.875C214.509 75.875 214.55 75.945 214.499 75.975L213.892 76.315C213.841 76.345 213.759 76.345 213.707 76.315Z" fill="#999999"/>
<path d="M215.393 76.475V76.525L214.796 76.185C214.796 76.185 214.673 76.165 214.611 76.185L214.128 76.455V76.435H213.964V76.495C213.964 76.495 213.964 76.535 213.995 76.545L214.704 76.945C214.704 76.945 214.827 76.965 214.889 76.945L215.495 76.605C215.495 76.605 215.536 76.565 215.536 76.545V76.495L215.403 76.485L215.393 76.475Z" fill="#38424D"/>
<path d="M214.704 76.885L213.995 76.485C213.995 76.485 213.954 76.415 214.005 76.385L214.612 76.045C214.663 76.015 214.745 76.015 214.797 76.045L215.506 76.445C215.506 76.445 215.547 76.515 215.496 76.545L214.889 76.885C214.838 76.915 214.756 76.915 214.704 76.885Z" fill="#999999"/>
<path d="M216.39 77.035V77.085L215.793 76.745C215.793 76.745 215.67 76.725 215.608 76.745L215.125 77.015V76.995H214.961V77.055C214.961 77.055 214.961 77.095 214.992 77.105L215.701 77.505C215.701 77.505 215.824 77.525 215.886 77.505L216.492 77.165C216.492 77.165 216.534 77.125 216.534 77.105V77.055L216.4 77.045L216.39 77.035Z" fill="#38424D"/>
<path d="M215.701 77.445L214.992 77.045C214.992 77.045 214.951 76.975 215.002 76.945L215.609 76.605C215.66 76.575 215.742 76.575 215.794 76.605L216.503 77.005C216.503 77.005 216.544 77.075 216.493 77.105L215.886 77.445C215.835 77.475 215.753 77.475 215.701 77.445Z" fill="#999999"/>
<path d="M217.387 77.595V77.645L216.791 77.305C216.791 77.305 216.667 77.285 216.606 77.305L216.122 77.575V77.555H215.958V77.615C215.958 77.615 215.958 77.655 215.989 77.665L216.698 78.065C216.698 78.065 216.821 78.085 216.883 78.065L217.489 77.725C217.489 77.725 217.531 77.685 217.531 77.665V77.615L217.397 77.605L217.387 77.595Z" fill="#38424D"/>
<path d="M216.698 78.005L215.989 77.605C215.989 77.605 215.948 77.535 215.999 77.505L216.606 77.165C216.657 77.135 216.74 77.135 216.791 77.165L217.5 77.565C217.5 77.565 217.541 77.635 217.49 77.665L216.883 78.005C216.832 78.035 216.75 78.035 216.698 78.005Z" fill="#999999"/>
<path d="M218.394 78.155V78.205L217.797 77.865C217.797 77.865 217.674 77.845 217.612 77.865L217.129 78.135V78.115H216.965V78.175C216.965 78.175 216.965 78.215 216.996 78.225L217.705 78.625C217.705 78.625 217.828 78.645 217.89 78.625L218.496 78.285C218.496 78.285 218.537 78.245 218.537 78.225V78.175L218.404 78.165L218.394 78.155Z" fill="#38424D"/>
<path d="M217.705 78.565L216.996 78.165C216.996 78.165 216.955 78.095 217.006 78.065L217.613 77.725C217.664 77.695 217.746 77.695 217.798 77.725L218.507 78.125C218.507 78.125 218.548 78.195 218.497 78.225L217.89 78.565C217.839 78.595 217.757 78.595 217.705 78.565Z" fill="#999999"/>
<path d="M219.391 78.715V78.765L218.794 78.425C218.794 78.425 218.671 78.405 218.609 78.425L218.126 78.695V78.675H217.962V78.735C217.962 78.735 217.962 78.775 217.993 78.785L218.702 79.185C218.702 79.185 218.825 79.205 218.887 79.185L219.493 78.845C219.493 78.845 219.534 78.805 219.534 78.785V78.735L219.401 78.725L219.391 78.715Z" fill="#38424D"/>
<path d="M218.702 79.125L217.993 78.725C217.993 78.725 217.952 78.655 218.003 78.625L218.61 78.285C218.661 78.255 218.743 78.255 218.795 78.285L219.504 78.685C219.504 78.685 219.545 78.755 219.494 78.785L218.887 79.125C218.836 79.155 218.754 79.155 218.702 79.125Z" fill="#999999"/>
<path d="M221.385 79.845V79.895L219.792 78.995C219.792 78.995 219.668 78.975 219.607 78.995L219.123 79.265V79.245H218.959V79.305C218.959 79.305 218.959 79.345 218.99 79.355L220.696 80.315C220.696 80.315 220.819 80.335 220.881 80.315L221.487 79.975C221.487 79.975 221.529 79.935 221.529 79.915V79.865L221.395 79.855L221.385 79.845Z" fill="#38424D"/>
<path d="M220.696 80.245L218.99 79.285C218.99 79.285 218.949 79.215 219 79.185L219.607 78.845C219.658 78.815 219.74 78.815 219.792 78.845L221.498 79.805C221.498 79.805 221.539 79.875 221.488 79.905L220.881 80.245C220.83 80.275 220.748 80.275 220.696 80.245Z" fill="#999999"/>
<path d="M210.068 74.485V74.535L207.91 73.315C207.91 73.315 207.786 73.295 207.725 73.315L207.242 73.585V73.565H207.077V73.625C207.077 73.625 207.077 73.665 207.108 73.675L209.379 74.955C209.379 74.955 209.503 74.975 209.564 74.955L210.171 74.615C210.171 74.615 210.212 74.575 210.212 74.555V74.505L210.078 74.495L210.068 74.485Z" fill="#38424D"/>
<path d="M209.38 74.895L207.108 73.615C207.108 73.615 207.067 73.545 207.119 73.515L207.725 73.175C207.776 73.145 207.859 73.145 207.91 73.175L210.182 74.455C210.182 74.455 210.223 74.525 210.171 74.555L209.565 74.895C209.513 74.925 209.431 74.925 209.38 74.895Z" fill="#999999"/>
<path d="M211.065 75.045V75.095L210.469 74.755C210.469 74.755 210.346 74.735 210.284 74.755L209.801 75.025V75.005H209.637V75.065C209.637 75.065 209.637 75.105 209.668 75.115L210.377 75.515C210.377 75.515 210.5 75.535 210.562 75.515L211.168 75.175C211.168 75.175 211.209 75.135 211.209 75.115V75.065L211.076 75.055L211.065 75.045Z" fill="#38424D"/>
<path d="M210.377 75.455L209.668 75.055C209.668 75.055 209.627 74.985 209.678 74.955L210.285 74.615C210.336 74.585 210.418 74.585 210.47 74.615L211.179 75.015C211.179 75.015 211.22 75.085 211.169 75.115L210.562 75.455C210.511 75.485 210.428 75.485 210.377 75.455Z" fill="#999999"/>
<path d="M212.072 75.605V75.655L211.476 75.315C211.476 75.315 211.353 75.295 211.291 75.315L210.808 75.585V75.565H210.644V75.625C210.644 75.625 210.644 75.665 210.674 75.675L211.384 76.075C211.384 76.075 211.507 76.095 211.569 76.075L212.175 75.735C212.175 75.735 212.216 75.695 212.216 75.675V75.625L212.083 75.615L212.072 75.605Z" fill="#38424D"/>
<path d="M211.384 76.015L210.675 75.615C210.675 75.615 210.634 75.545 210.685 75.515L211.291 75.175C211.343 75.145 211.425 75.145 211.476 75.175L212.186 75.575C212.186 75.575 212.227 75.645 212.175 75.675L211.569 76.015C211.518 76.045 211.435 76.045 211.384 76.015Z" fill="#999999"/>
<path d="M213.069 76.165V76.215L212.473 75.875C212.473 75.875 212.35 75.855 212.288 75.875L211.805 76.145V76.125H211.641V76.185C211.641 76.185 211.641 76.225 211.671 76.235L212.381 76.635C212.381 76.635 212.504 76.655 212.566 76.635L213.172 76.295C213.172 76.295 213.213 76.255 213.213 76.235V76.185L213.08 76.175L213.069 76.165Z" fill="#38424D"/>
<path d="M212.381 76.575L211.672 76.175C211.672 76.175 211.631 76.105 211.682 76.075L212.289 75.735C212.34 75.705 212.422 75.705 212.474 75.735L213.183 76.135C213.183 76.135 213.224 76.205 213.172 76.235L212.566 76.575C212.515 76.605 212.432 76.605 212.381 76.575Z" fill="#999999"/>
<path d="M214.066 76.735V76.785L213.47 76.445C213.47 76.445 213.347 76.425 213.285 76.445L212.802 76.715V76.695H212.638V76.755C212.638 76.755 212.638 76.795 212.669 76.805L213.378 77.205C213.378 77.205 213.501 77.225 213.563 77.205L214.169 76.865C214.169 76.865 214.21 76.825 214.21 76.805V76.755L214.077 76.745L214.066 76.735Z" fill="#38424D"/>
<path d="M213.378 77.135L212.669 76.735C212.669 76.735 212.628 76.665 212.679 76.635L213.286 76.295C213.337 76.265 213.419 76.265 213.471 76.295L214.18 76.695C214.18 76.695 214.221 76.765 214.17 76.795L213.563 77.135C213.512 77.165 213.429 77.165 213.378 77.135Z" fill="#999999"/>
<path d="M215.063 77.295V77.345L214.467 77.005C214.467 77.005 214.344 76.985 214.282 77.005L213.799 77.275V77.255H213.635V77.315C213.635 77.315 213.635 77.355 213.666 77.365L214.375 77.765C214.375 77.765 214.498 77.785 214.56 77.765L215.166 77.425C215.166 77.425 215.207 77.385 215.207 77.365V77.315L215.074 77.305L215.063 77.295Z" fill="#38424D"/>
<path d="M214.375 77.695L213.666 77.295C213.666 77.295 213.625 77.225 213.676 77.195L214.283 76.855C214.334 76.825 214.416 76.825 214.468 76.855L215.177 77.255C215.177 77.255 215.218 77.325 215.167 77.355L214.56 77.695C214.509 77.725 214.427 77.725 214.375 77.695Z" fill="#999999"/>
<path d="M216.07 77.855V77.905L215.474 77.565C215.474 77.565 215.351 77.545 215.289 77.565L214.806 77.835V77.815H214.642V77.875C214.642 77.875 214.642 77.915 214.672 77.925L215.382 78.325C215.382 78.325 215.505 78.345 215.567 78.325L216.173 77.985C216.173 77.985 216.214 77.945 216.214 77.925V77.875L216.081 77.865L216.07 77.855Z" fill="#38424D"/>
<path d="M215.371 78.265L214.662 77.865C214.662 77.865 214.621 77.795 214.672 77.765L215.279 77.425C215.33 77.395 215.412 77.395 215.464 77.425L216.173 77.825C216.173 77.825 216.214 77.895 216.163 77.925L215.556 78.265C215.505 78.295 215.423 78.295 215.371 78.265Z" fill="#999999"/>
<path d="M217.067 78.415V78.465L216.471 78.125C216.471 78.125 216.348 78.105 216.286 78.125L215.803 78.395V78.375H215.639V78.435C215.639 78.435 215.639 78.475 215.67 78.485L216.379 78.885C216.379 78.885 216.502 78.905 216.564 78.885L217.17 78.545C217.17 78.545 217.211 78.505 217.211 78.485V78.435L217.078 78.425L217.067 78.415Z" fill="#38424D"/>
<path d="M216.379 78.825L215.67 78.425C215.67 78.425 215.629 78.355 215.68 78.325L216.287 77.985C216.338 77.955 216.42 77.955 216.472 77.985L217.181 78.385C217.181 78.385 217.222 78.455 217.17 78.485L216.564 78.825C216.513 78.855 216.43 78.855 216.379 78.825Z" fill="#999999"/>
<path d="M218.014 78.945V78.995L217.417 78.655C217.417 78.655 217.294 78.635 217.232 78.655L216.749 78.925V78.905H216.585V78.965C216.585 78.965 216.585 79.005 216.616 79.015L217.325 79.415C217.325 79.415 217.448 79.435 217.51 79.415L218.116 79.075C218.116 79.075 218.158 79.035 218.158 79.015V78.965L218.024 78.955L218.014 78.945Z" fill="#38424D"/>
<path d="M217.325 79.355L216.616 78.955C216.616 78.955 216.575 78.885 216.626 78.855L217.233 78.515C217.284 78.485 217.366 78.485 217.418 78.515L218.127 78.915C218.127 78.915 218.168 78.985 218.117 79.015L217.51 79.355C217.459 79.385 217.377 79.385 217.325 79.355Z" fill="#999999"/>
<path d="M220.501 80.345V80.395L218.342 79.175C218.342 79.175 218.219 79.155 218.157 79.175L217.674 79.445V79.425H217.51V79.485C217.51 79.485 217.51 79.525 217.541 79.535L219.812 80.815C219.812 80.815 219.935 80.835 219.997 80.815L220.604 80.475C220.604 80.475 220.645 80.435 220.645 80.415V80.365L220.511 80.355L220.501 80.345Z" fill="#38424D"/>
<path d="M219.812 80.755L217.541 79.475C217.541 79.475 217.5 79.405 217.551 79.375L218.158 79.035C218.209 79.005 218.291 79.005 218.343 79.035L220.614 80.315C220.614 80.315 220.655 80.385 220.604 80.415L219.997 80.755C219.946 80.785 219.864 80.785 219.812 80.755Z" fill="#999999"/>
<path d="M207.622 74.095V74.145L207.026 73.805C207.026 73.805 206.903 73.785 206.841 73.805L206.358 74.075V74.055H206.193V74.115C206.193 74.115 206.193 74.155 206.224 74.165L206.933 74.565C206.933 74.565 207.057 74.585 207.118 74.565L207.725 74.225C207.725 74.225 207.766 74.185 207.766 74.165V74.115L207.632 74.105L207.622 74.095Z" fill="#38424D"/>
<path d="M206.934 74.505L206.225 74.105C206.225 74.105 206.183 74.035 206.235 74.005L206.841 73.665C206.893 73.635 206.975 73.635 207.026 73.665L207.735 74.065C207.735 74.065 207.777 74.135 207.725 74.165L207.119 74.505C207.067 74.535 206.985 74.535 206.934 74.505Z" fill="#999999"/>
<path d="M208.629 74.655V74.705L208.033 74.365C208.033 74.365 207.909 74.345 207.848 74.365L207.365 74.635V74.615H207.2V74.675C207.2 74.675 207.2 74.715 207.231 74.725L207.94 75.125C207.94 75.125 208.064 75.145 208.125 75.125L208.732 74.785C208.732 74.785 208.773 74.745 208.773 74.725V74.675L208.639 74.665L208.629 74.655Z" fill="#38424D"/>
<path d="M207.941 75.065L207.231 74.665C207.231 74.665 207.19 74.595 207.242 74.565L207.848 74.225C207.899 74.195 207.982 74.195 208.033 74.225L208.742 74.625C208.742 74.625 208.783 74.695 208.732 74.725L208.126 75.065C208.074 75.095 207.992 75.095 207.941 75.065Z" fill="#999999"/>
<path d="M209.605 75.235V75.285L209.009 74.945C209.009 74.945 208.886 74.925 208.824 74.945L208.341 75.215V75.195H208.177V75.255C208.177 75.255 208.177 75.295 208.208 75.305L208.917 75.705C208.917 75.705 209.04 75.725 209.102 75.705L209.708 75.365C209.708 75.365 209.749 75.325 209.749 75.305V75.255L209.616 75.245L209.605 75.235Z" fill="#38424D"/>
<path d="M208.906 75.645L208.197 75.245C208.197 75.245 208.156 75.175 208.207 75.145L208.814 74.805C208.865 74.775 208.948 74.775 208.999 74.805L209.708 75.205C209.708 75.205 209.749 75.275 209.698 75.305L209.091 75.645C209.04 75.675 208.958 75.675 208.906 75.645Z" fill="#999999"/>
<path d="M210.603 75.795V75.845L210.006 75.505C210.006 75.505 209.883 75.485 209.821 75.505L209.338 75.775V75.755H209.174V75.815C209.174 75.815 209.174 75.855 209.205 75.865L209.914 76.265C209.914 76.265 210.037 76.285 210.099 76.265L210.705 75.925C210.705 75.925 210.746 75.885 210.746 75.865V75.815L210.613 75.805L210.603 75.795Z" fill="#38424D"/>
<path d="M209.914 76.205L209.205 75.805C209.205 75.805 209.164 75.735 209.215 75.705L209.822 75.365C209.873 75.335 209.955 75.335 210.007 75.365L210.716 75.765C210.716 75.765 210.757 75.835 210.706 75.865L210.099 76.205C210.048 76.235 209.966 76.235 209.914 76.205Z" fill="#999999"/>
<path d="M211.6 76.355V76.405L211.003 76.065C211.003 76.065 210.88 76.045 210.818 76.065L210.335 76.335V76.315H210.171V76.375C210.171 76.375 210.171 76.415 210.202 76.425L210.911 76.825C210.911 76.825 211.034 76.845 211.096 76.825L211.702 76.485C211.702 76.485 211.743 76.445 211.743 76.425V76.375L211.61 76.365L211.6 76.355Z" fill="#38424D"/>
<path d="M210.911 76.765L210.202 76.365C210.202 76.365 210.161 76.295 210.212 76.265L210.819 75.925C210.87 75.895 210.952 75.895 211.004 75.925L211.713 76.325C211.713 76.325 211.754 76.395 211.703 76.425L211.096 76.765C211.045 76.795 210.963 76.795 210.911 76.765Z" fill="#999999"/>
<path d="M212.597 76.915V76.965L212.001 76.625C212.001 76.625 211.877 76.605 211.816 76.625L211.332 76.895V76.875H211.168V76.935C211.168 76.935 211.168 76.975 211.199 76.985L211.908 77.385C211.908 77.385 212.031 77.405 212.093 77.385L212.699 77.045C212.699 77.045 212.741 77.005 212.741 76.985V76.935L212.607 76.925L212.597 76.915Z" fill="#38424D"/>
<path d="M211.908 77.325L211.199 76.925C211.199 76.925 211.158 76.855 211.209 76.825L211.816 76.485C211.867 76.455 211.949 76.455 212.001 76.485L212.71 76.885C212.71 76.885 212.751 76.955 212.7 76.985L212.093 77.325C212.042 77.355 211.96 77.355 211.908 77.325Z" fill="#999999"/>
<path d="M213.603 77.485V77.535L213.007 77.195C213.007 77.195 212.884 77.175 212.822 77.195L212.339 77.465V77.445H212.175V77.505C212.175 77.505 212.175 77.545 212.206 77.555L212.915 77.955C212.915 77.955 213.038 77.975 213.1 77.955L213.706 77.615C213.706 77.615 213.747 77.575 213.747 77.555V77.505L213.614 77.495L213.603 77.485Z" fill="#38424D"/>
<path d="M212.904 77.885L212.195 77.485C212.195 77.485 212.154 77.415 212.206 77.385L212.812 77.045C212.863 77.015 212.946 77.015 212.997 77.045L213.706 77.445C213.706 77.445 213.747 77.515 213.696 77.545L213.089 77.885C213.038 77.915 212.956 77.915 212.904 77.885Z" fill="#999999"/>
<path d="M214.601 78.045V78.095L214.004 77.755C214.004 77.755 213.881 77.735 213.819 77.755L213.336 78.025V78.005H213.172V78.065C213.172 78.065 213.172 78.105 213.203 78.115L213.912 78.515C213.912 78.515 214.035 78.535 214.097 78.515L214.703 78.175C214.703 78.175 214.744 78.135 214.744 78.115V78.065L214.611 78.055L214.601 78.045Z" fill="#38424D"/>
<path d="M213.912 78.455L213.203 78.055C213.203 78.055 213.162 77.985 213.213 77.955L213.82 77.615C213.871 77.585 213.953 77.585 214.005 77.615L214.714 78.015C214.714 78.015 214.755 78.085 214.704 78.115L214.097 78.455C214.046 78.485 213.964 78.485 213.912 78.455Z" fill="#999999"/>
<path d="M215.598 78.605V78.655L215.001 78.315C215.001 78.315 214.878 78.295 214.816 78.315L214.333 78.585V78.565H214.169V78.625C214.169 78.625 214.169 78.665 214.2 78.675L214.909 79.075C214.909 79.075 215.032 79.095 215.094 79.075L215.7 78.735C215.7 78.735 215.742 78.695 215.742 78.675V78.625L215.608 78.615L215.598 78.605Z" fill="#38424D"/>
<path d="M214.909 79.015L214.2 78.615C214.2 78.615 214.159 78.545 214.21 78.515L214.817 78.175C214.868 78.145 214.95 78.145 215.002 78.175L215.711 78.575C215.711 78.575 215.752 78.645 215.701 78.675L215.094 79.015C215.043 79.045 214.961 79.045 214.909 79.015Z" fill="#999999"/>
<path d="M216.595 79.165V79.215L215.999 78.875C215.999 78.875 215.875 78.855 215.814 78.875L215.33 79.145V79.125H215.166V79.185C215.166 79.185 215.166 79.225 215.197 79.235L215.906 79.635C215.906 79.635 216.029 79.655 216.091 79.635L216.697 79.295C216.697 79.295 216.739 79.255 216.739 79.235V79.185L216.605 79.175L216.595 79.165Z" fill="#38424D"/>
<path d="M215.906 79.575L215.197 79.175C215.197 79.175 215.156 79.105 215.207 79.075L215.814 78.735C215.865 78.705 215.948 78.705 215.999 78.735L216.708 79.135C216.708 79.135 216.749 79.205 216.698 79.235L216.091 79.575C216.04 79.605 215.958 79.605 215.906 79.575Z" fill="#999999"/>
<path d="M217.603 79.725V79.775L217.006 79.435C217.006 79.435 216.883 79.415 216.821 79.435L216.338 79.705V79.685H216.174V79.745C216.174 79.745 216.174 79.785 216.205 79.795L216.914 80.195C216.914 80.195 217.037 80.215 217.099 80.195L217.705 79.855C217.705 79.855 217.746 79.815 217.746 79.795V79.745L217.613 79.735L217.603 79.725Z" fill="#38424D"/>
<path d="M216.914 80.135L216.205 79.735C216.205 79.735 216.164 79.665 216.215 79.635L216.822 79.295C216.873 79.265 216.955 79.265 217.007 79.295L217.716 79.695C217.716 79.695 217.757 79.765 217.706 79.795L217.099 80.135C217.048 80.165 216.966 80.165 216.914 80.135Z" fill="#999999"/>
<path d="M219.597 80.845V80.895L218.003 79.995C218.003 79.995 217.88 79.975 217.818 79.995L217.335 80.265V80.245H217.171V80.305C217.171 80.305 217.171 80.345 217.202 80.355L218.908 81.315C218.908 81.315 219.031 81.335 219.093 81.315L219.699 80.975C219.699 80.975 219.74 80.935 219.74 80.915V80.865L219.607 80.855L219.597 80.845Z" fill="#38424D"/>
<path d="M218.898 81.255L217.191 80.295C217.191 80.295 217.15 80.225 217.202 80.195L217.808 79.855C217.859 79.825 217.942 79.825 217.993 79.855L219.699 80.815C219.699 80.815 219.74 80.885 219.689 80.915L219.083 81.255C219.031 81.285 218.949 81.285 218.898 81.255Z" fill="#999999"/>
<path d="M206.697 74.615V74.665L206.101 74.325C206.101 74.325 205.978 74.305 205.916 74.325L205.433 74.595V74.575H205.269V74.635C205.269 74.635 205.269 74.675 205.299 74.685L206.009 75.085C206.009 75.085 206.132 75.105 206.194 75.085L206.8 74.745C206.8 74.745 206.841 74.705 206.841 74.685V74.635L206.708 74.625L206.697 74.615Z" fill="#38424D"/>
<path d="M206.009 75.025L205.3 74.625C205.3 74.625 205.259 74.555 205.31 74.525L205.916 74.185C205.968 74.155 206.05 74.155 206.101 74.185L206.811 74.585C206.811 74.585 206.852 74.655 206.8 74.685L206.194 75.025C206.143 75.055 206.06 75.055 206.009 75.025Z" fill="#999999"/>
<path d="M207.704 75.175V75.225L207.108 74.885C207.108 74.885 206.985 74.865 206.923 74.885L206.44 75.155V75.135H206.275V75.195C206.275 75.195 206.275 75.235 206.306 75.245L207.015 75.645C207.015 75.645 207.139 75.665 207.2 75.645L207.807 75.305C207.807 75.305 207.848 75.265 207.848 75.245V75.195L207.714 75.185L207.704 75.175Z" fill="#38424D"/>
<path d="M207.005 75.585L206.296 75.185C206.296 75.185 206.255 75.115 206.306 75.085L206.913 74.745C206.964 74.715 207.046 74.715 207.098 74.745L207.807 75.145C207.807 75.145 207.848 75.215 207.796 75.245L207.19 75.585C207.139 75.615 207.056 75.615 207.005 75.585Z" fill="#999999"/>
<path d="M208.701 75.745V75.795L208.105 75.455C208.105 75.455 207.982 75.435 207.92 75.455L207.437 75.725V75.705H207.272V75.765C207.272 75.765 207.272 75.805 207.303 75.815L208.012 76.215C208.012 76.215 208.136 76.235 208.197 76.215L208.804 75.875C208.804 75.875 208.845 75.835 208.845 75.815V75.765L208.711 75.755L208.701 75.745Z" fill="#38424D"/>
<path d="M208.013 76.145L207.304 75.745C207.304 75.745 207.263 75.675 207.314 75.645L207.92 75.305C207.972 75.275 208.054 75.275 208.105 75.305L208.815 75.705C208.815 75.705 208.856 75.775 208.804 75.805L208.198 76.145C208.146 76.175 208.064 76.175 208.013 76.145Z" fill="#999999"/>
<path d="M209.698 76.305V76.355L209.102 76.015C209.102 76.015 208.979 75.995 208.917 76.015L208.434 76.285V76.265H208.27V76.325C208.27 76.325 208.27 76.365 208.3 76.375L209.01 76.775C209.01 76.775 209.133 76.795 209.195 76.775L209.801 76.435C209.801 76.435 209.842 76.395 209.842 76.375V76.325L209.708 76.315L209.698 76.305Z" fill="#38424D"/>
<path d="M209.01 76.715L208.301 76.315C208.301 76.315 208.26 76.245 208.311 76.215L208.917 75.875C208.969 75.845 209.051 75.845 209.102 75.875L209.812 76.275C209.812 76.275 209.853 76.345 209.801 76.375L209.195 76.715C209.144 76.745 209.061 76.745 209.01 76.715Z" fill="#999999"/>
<path d="M214.694 79.115V79.165L210.099 76.575C210.099 76.575 209.976 76.555 209.914 76.575L209.431 76.845V76.825H209.267V76.885C209.267 76.885 209.267 76.925 209.297 76.935L214.005 79.585C214.005 79.585 214.128 79.605 214.19 79.585L214.796 79.245C214.796 79.245 214.837 79.205 214.837 79.185V79.135L214.704 79.125L214.694 79.115Z" fill="#38424D"/>
<path d="M214.005 79.515L209.298 76.865C209.298 76.865 209.257 76.795 209.308 76.765L209.914 76.425C209.966 76.395 210.048 76.395 210.1 76.425L214.807 79.075C214.807 79.075 214.848 79.145 214.797 79.175L214.19 79.515C214.139 79.545 214.057 79.545 214.005 79.515Z" fill="#999999"/>
<path d="M215.701 79.675V79.725L215.105 79.385C215.105 79.385 214.982 79.365 214.92 79.385L214.437 79.655V79.635H214.272V79.695C214.272 79.695 214.272 79.735 214.303 79.745L215.012 80.145C215.012 80.145 215.136 80.165 215.197 80.145L215.804 79.805C215.804 79.805 215.845 79.765 215.845 79.745V79.695L215.711 79.685L215.701 79.675Z" fill="#38424D"/>
<path d="M215.013 80.075L214.304 79.675C214.304 79.675 214.263 79.605 214.314 79.575L214.92 79.235C214.972 79.205 215.054 79.205 215.105 79.235L215.815 79.635C215.815 79.635 215.856 79.705 215.804 79.735L215.198 80.075C215.146 80.105 215.064 80.105 215.013 80.075Z" fill="#999999"/>
<path d="M216.698 80.235V80.285L216.102 79.945C216.102 79.945 215.979 79.925 215.917 79.945L215.434 80.215V80.195H215.27V80.255C215.27 80.255 215.27 80.295 215.3 80.305L216.01 80.705C216.01 80.705 216.133 80.725 216.195 80.705L216.801 80.365C216.801 80.365 216.842 80.325 216.842 80.305V80.255L216.708 80.245L216.698 80.235Z" fill="#38424D"/>
<path d="M216.01 80.645L215.301 80.245C215.301 80.245 215.26 80.175 215.311 80.145L215.917 79.805C215.969 79.775 216.051 79.775 216.102 79.805L216.812 80.205C216.812 80.205 216.853 80.275 216.801 80.305L216.195 80.645C216.144 80.675 216.061 80.675 216.01 80.645Z" fill="#999999"/>
<path d="M217.664 80.775V80.825L217.068 80.485C217.068 80.485 216.945 80.465 216.883 80.485L216.842 80.505V80.485H216.678V80.545C216.678 80.545 216.678 80.585 216.709 80.595L217.418 80.995C217.418 80.995 217.541 81.015 217.603 80.995L217.767 80.905C217.767 80.905 217.808 80.865 217.808 80.845V80.795L217.675 80.785L217.664 80.775Z" fill="#38424D"/>
<path d="M217.407 80.935L216.698 80.535C216.698 80.535 216.657 80.465 216.708 80.435L216.873 80.345C216.924 80.315 217.007 80.315 217.058 80.345L217.767 80.745C217.767 80.745 217.808 80.815 217.757 80.845L217.592 80.935C217.541 80.965 217.459 80.965 217.407 80.935Z" fill="#999999"/>
<path d="M217.222 81.025V81.075L216.626 80.735C216.626 80.735 216.503 80.715 216.441 80.735L216.4 80.755V80.735H216.235V80.795C216.235 80.795 216.235 80.835 216.266 80.845L216.975 81.245C216.975 81.245 217.099 81.265 217.16 81.245L217.325 81.155C217.325 81.155 217.366 81.115 217.366 81.095V81.045L217.232 81.035L217.222 81.025Z" fill="#38424D"/>
<path d="M216.965 81.185L216.256 80.785C216.256 80.785 216.215 80.715 216.266 80.685L216.431 80.595C216.482 80.565 216.564 80.565 216.616 80.595L217.325 80.995C217.325 80.995 217.366 81.065 217.314 81.095L217.15 81.185C217.099 81.215 217.016 81.215 216.965 81.185Z" fill="#999999"/>
<path d="M218.692 81.355V81.405L218.096 81.065C218.096 81.065 217.972 81.045 217.911 81.065L217.87 81.085V81.065H217.705V81.125C217.705 81.125 217.705 81.165 217.736 81.175L218.445 81.575C218.445 81.575 218.568 81.595 218.63 81.575L218.795 81.485C218.795 81.485 218.836 81.445 218.836 81.425V81.375L218.702 81.365L218.692 81.355Z" fill="#38424D"/>
<path d="M218.445 81.515L217.736 81.115C217.736 81.115 217.695 81.045 217.747 81.015L217.911 80.925C217.962 80.895 218.045 80.895 218.096 80.925L218.805 81.325C218.805 81.325 218.846 81.395 218.795 81.425L218.63 81.515C218.579 81.545 218.497 81.545 218.445 81.515Z" fill="#999999"/>
<path d="M218.25 81.605V81.655L217.654 81.315C217.654 81.315 217.531 81.295 217.469 81.315L217.428 81.335V81.315H217.264V81.375C217.264 81.375 217.264 81.415 217.295 81.425L218.004 81.825C218.004 81.825 218.127 81.845 218.189 81.825L218.353 81.735C218.353 81.735 218.394 81.695 218.394 81.675V81.625L218.261 81.615L218.25 81.605Z" fill="#38424D"/>
<path d="M218.004 81.765L217.295 81.365C217.295 81.365 217.254 81.295 217.305 81.265L217.47 81.175C217.521 81.145 217.603 81.145 217.655 81.175L218.364 81.575C218.364 81.575 218.405 81.645 218.354 81.675L218.189 81.765C218.138 81.795 218.055 81.795 218.004 81.765Z" fill="#999999"/>
<path d="M219.565 76.435L214.734 73.715C214.539 73.605 214.559 73.415 214.785 73.285L217.694 71.655C217.92 71.525 218.26 71.515 218.455 71.625L223.286 74.345C223.481 74.455 223.46 74.645 223.234 74.775L220.325 76.405C220.099 76.535 219.76 76.545 219.565 76.435Z" fill="#999999"/>
<path d="M214.785 73.385L217.694 71.755C217.92 71.625 218.259 71.615 218.454 71.725L223.285 74.445C223.357 74.485 223.388 74.535 223.408 74.585C223.429 74.495 223.398 74.415 223.285 74.345L218.454 71.625C218.259 71.515 217.92 71.525 217.694 71.655L214.785 73.285C214.641 73.365 214.579 73.475 214.61 73.575C214.631 73.505 214.693 73.435 214.785 73.385Z" fill="#999999"/>
<path d="M224.703 58.345C224.415 57.495 223.881 56.675 223.048 56.315C222.812 56.215 222.555 56.155 222.298 56.175C221.455 56.255 220.797 57.015 220.726 57.795C220.612 58.905 220.366 59.995 220.109 61.075C219.965 61.685 219.8 62.285 219.626 62.885C219.245 63.565 219.04 64.415 218.917 65.015C218.814 65.495 218.742 65.975 218.68 66.465C218.495 67.825 218.351 69.195 218.207 70.565C218.207 70.655 218.187 70.745 218.207 70.825C218.228 70.895 218.279 70.955 218.32 71.015C218.762 71.555 219.492 71.865 220.201 71.825C221.435 69.895 222.596 67.915 223.675 65.895C223.717 65.805 223.768 65.725 223.788 65.625C223.819 65.495 223.788 65.365 223.768 65.235C223.737 65.075 223.686 64.925 223.645 64.765C223.83 64.025 224.035 63.285 224.2 62.545C224.374 61.765 224.498 60.985 224.621 60.195C224.672 59.865 224.724 59.535 224.785 59.205C224.806 59.095 224.827 58.975 224.816 58.865C224.816 58.685 224.765 58.515 224.714 58.345H224.703Z" fill="#F7CB9C"/>
<path d="M214.827 74.335C214.888 74.335 214.95 74.335 215.001 74.345C215.454 74.405 215.916 74.285 216.317 74.075C216.718 73.865 217.057 73.565 217.386 73.255C217.622 73.025 217.89 72.775 218.219 72.795C218.188 72.915 218.095 73.005 218.013 73.095C217.797 73.325 217.602 73.565 217.437 73.825C217.314 74.015 217.201 74.225 217.232 74.445C217.232 74.495 217.252 74.535 217.283 74.575C217.314 74.605 217.365 74.625 217.407 74.635C217.684 74.695 217.962 74.575 218.188 74.415C218.414 74.255 218.589 74.035 218.784 73.845C219.02 73.625 219.298 73.435 219.586 73.285C219.75 73.205 219.935 73.125 220.069 73.005C220.295 72.785 220.356 72.445 220.336 72.135C220.315 71.825 220.254 71.505 220.284 71.195C220.284 71.145 220.295 71.095 220.284 71.055C220.274 70.985 220.223 70.935 220.182 70.885C219.873 70.545 219.452 70.315 219 70.215C218.825 70.175 218.506 70.105 218.332 70.165C218.116 70.245 218.167 70.495 218.105 70.685C217.972 71.155 217.53 71.465 217.119 71.745C216.502 72.175 215.896 72.615 215.3 73.075C215.001 73.305 214.714 73.535 214.416 73.775C214.241 73.925 213.85 74.095 214.046 74.375C214.241 74.655 214.58 74.375 214.806 74.345L214.827 74.335Z" fill="#F7CB9C"/>
<path d="M224.179 49.705C224.179 49.705 224.117 49.725 224.097 49.735C223.593 49.935 223.11 50.185 222.658 50.485C222.257 50.745 222.144 51.125 221.897 51.525C221.62 51.985 221.373 52.465 221.127 52.955C220.397 54.395 219.646 55.875 219.081 57.385C219.061 57.445 219.04 57.495 219.04 57.555C219.04 57.615 219.071 57.675 219.091 57.735C219.636 58.865 220.664 59.765 221.877 60.165C222.966 57.855 224.734 55.905 225.947 53.655C226.194 53.185 226.43 52.705 226.492 52.175C226.564 51.625 226.399 51.085 226.574 50.555C226.656 50.285 226.708 50.015 226.841 49.765C226.893 49.665 227.16 49.135 227.283 49.135C226.225 49.125 225.166 49.315 224.179 49.705Z" fill="#7CAFD1"/>
<path d="M223.501 50.085C223.09 50.275 222.72 50.505 222.452 50.795C221.836 51.475 221.928 52.515 221.938 53.355C221.959 54.375 222.062 55.415 221.815 56.415C221.558 57.465 220.952 58.415 220.726 59.465C220.541 60.335 220.643 61.265 221.013 62.085C221.291 62.695 221.712 63.235 222.021 63.835C223.264 66.185 222.761 69.025 222.01 71.555C221.949 71.785 221.877 72.025 221.938 72.245C221.99 72.425 222.123 72.565 222.257 72.705C223.696 74.185 225.628 75.145 227.653 75.665C229.678 76.175 231.795 76.255 233.882 76.125C235.136 76.045 236.421 75.885 237.541 75.345C237.746 75.245 237.962 75.125 238.086 74.935C238.26 74.675 238.25 74.335 238.229 74.025C238.065 71.425 237.89 68.825 237.726 66.225C237.613 64.525 237.51 62.815 237.726 61.125C237.931 59.475 238.476 57.835 239.525 56.505C239.792 56.165 239.802 56.065 239.679 55.675C239.555 55.275 239.442 54.895 239.237 54.515C238.836 53.765 233.954 48.545 232.422 47.945C232.515 47.985 232.391 48.315 232.35 48.355C232.227 48.485 232.114 48.455 231.939 48.465C229.719 48.675 227.478 48.885 225.33 49.475C224.786 49.625 224.087 49.805 223.48 50.085H223.501Z" fill="#8CC1ED"/>
<path d="M223.686 39.745C223.521 40.165 223.388 40.605 223.285 41.045C223.049 42.075 222.987 43.125 222.997 44.175C222.997 44.625 223.038 45.065 223.069 45.505C223.09 45.815 223.1 46.015 223.47 46.075C224.323 46.225 225.197 45.975 225.998 45.675C226.595 45.455 227.191 45.205 227.715 44.835C229.287 43.735 229.534 41.515 229.637 39.785C229.699 38.815 229.729 37.495 228.825 36.845C228.434 36.565 227.92 36.525 227.437 36.525C226.965 36.525 226.471 36.585 226.05 36.785C225.772 36.915 225.536 37.105 225.31 37.305C224.58 37.975 224.046 38.825 223.676 39.735L223.686 39.745Z" fill="#636363"/>
<path d="M227.407 50.925C227.592 51.275 228.095 51.425 228.465 51.505C228.959 51.615 229.462 51.595 229.966 51.535C231.025 51.415 232.052 51.095 232.998 50.615C233.286 50.475 233.563 50.315 233.8 50.105C233.944 49.975 234.067 49.835 234.139 49.655C234.262 49.335 234.139 49.105 233.882 48.915C233.594 48.705 233.306 48.485 233.08 48.205C232.69 47.725 232.515 47.115 232.351 46.525C232.207 46.005 232.073 45.485 231.981 44.965C231.816 45.555 231.436 46.075 230.932 46.445C230.429 46.805 229.812 47.015 229.195 47.065C228.866 47.065 228.517 47.075 228.198 47.125C228.065 47.145 227.921 47.205 227.787 47.175C227.674 47.145 227.581 47.045 227.468 47.005C227.232 47.465 227.304 50.695 227.417 50.925H227.407Z" fill="#E2B893"/>
<path d="M231.703 45.965C232.227 45.935 232.731 45.705 233.101 45.355C233.697 44.795 234.118 44.015 234.396 43.265C234.694 42.465 234.807 41.585 234.704 40.735C234.56 39.485 233.954 38.305 233.029 37.425C232.834 37.245 232.628 37.075 232.412 36.935C231.508 36.375 230.315 36.205 229.267 36.255C227.879 36.315 226.543 36.935 225.526 37.855C224.426 38.855 224.015 40.145 223.861 41.565C223.84 41.745 223.82 41.935 223.861 42.125C223.943 42.545 224.292 42.895 224.262 43.315C224.251 43.505 224.148 43.685 224.087 43.875C223.891 44.435 223.994 45.055 224.118 45.635C224.292 46.435 224.498 47.235 224.734 48.025C224.868 48.465 225.032 48.935 225.423 49.195C225.742 49.405 226.153 49.445 226.533 49.405C227.006 49.365 227.458 49.225 227.9 49.075C228.65 48.805 229.38 48.475 230.069 48.085C230.48 47.855 230.891 47.585 231.199 47.235C231.508 46.885 231.724 46.425 231.693 45.965H231.703Z" fill="#F7CB9C"/>
<path d="M224.406 39.925C224.611 39.825 224.827 39.785 225.064 39.755C225.999 39.615 226.944 39.535 227.89 39.505C227.623 40.105 227.911 40.825 228.373 41.305C228.836 41.785 229.432 42.105 229.956 42.515C230.131 42.655 230.305 42.805 230.408 42.995C230.552 43.255 230.562 43.565 230.645 43.855C230.737 44.205 230.922 44.525 231.179 44.785C231.302 44.045 231.714 43.195 232.598 43.155C232.783 43.155 232.988 43.185 233.111 43.315C233.317 43.515 233.286 43.845 233.194 44.115C232.947 44.885 232.351 45.515 231.652 45.945C231.529 46.025 231.395 46.095 231.302 46.205C231.107 46.425 231.087 46.735 231.076 47.025C231.066 47.465 231.056 47.905 231.056 48.345C231.056 48.705 231.004 48.935 231.457 49.015C232.31 49.165 233.183 48.915 233.985 48.615C234.581 48.395 235.177 48.145 235.702 47.775C237.274 46.675 237.521 44.455 237.624 42.725C237.665 41.985 237.624 41.225 237.48 40.495C237.079 38.455 235.794 36.525 233.882 35.605C232.649 35.015 231.241 34.865 229.874 35.015C228.589 35.155 227.325 35.555 226.276 36.285C225.649 36.715 225.115 37.265 224.704 37.905C224.498 38.225 224.334 38.555 224.21 38.905C224.097 39.235 223.902 39.475 224.046 39.835C224.139 40.055 224.18 40.015 224.365 39.925H224.406Z" fill="#282828"/>
<path d="M240.522 62.805C240.461 62.625 240.389 62.425 240.214 62.325C239.227 63.105 237.747 63.235 236.637 62.635C236.524 62.575 236.401 62.505 236.277 62.525C236.205 62.535 236.144 62.575 236.082 62.615C235.722 62.885 235.548 63.365 235.64 63.795L235.568 64.245C235.507 65.765 235.435 67.285 235.373 68.805C235.373 68.975 235.363 69.155 235.414 69.325C235.465 69.495 235.578 69.635 235.702 69.775C236.113 70.235 236.586 70.635 237.069 71.015C237.655 71.495 238.271 71.975 238.991 72.225C239.166 72.285 239.371 72.325 239.536 72.225C239.608 72.185 239.669 72.115 239.721 72.045C240.214 71.395 240.461 70.595 240.646 69.815C241.19 67.505 241.242 65.055 240.522 62.795V62.805Z" fill="#F7CB9C"/>
<path d="M238.816 72.725C239.165 72.565 239.494 72.335 239.73 72.035C240.111 71.565 240.08 70.975 239.843 70.455C239.494 69.705 238.774 69.145 237.973 68.875C237.037 68.565 235.968 68.575 235.043 68.895C234.118 69.215 225.505 71.725 224.632 71.885C223.768 72.045 222.895 72.065 222.031 72.195C221.733 72.245 221.456 72.355 221.168 72.475C219.893 73.015 218.619 73.565 217.344 74.125C216.943 74.305 216.543 74.475 216.162 74.685C215.946 74.805 215.72 74.945 215.597 75.155C215.515 75.295 215.494 75.455 215.463 75.605C215.443 75.725 215.422 75.855 215.474 75.975C215.566 76.165 215.813 76.215 216.029 76.215C216.09 76.215 216.162 76.215 216.224 76.235C216.296 76.265 216.358 76.315 216.43 76.365C216.933 76.725 217.632 76.645 218.249 76.545C218.187 76.675 218.259 76.835 218.382 76.925C218.495 77.015 218.65 77.035 218.794 77.055C219.698 77.155 220.603 76.875 221.466 76.605C222.309 76.335 223.162 76.065 223.922 75.625C224.395 75.345 224.837 75.005 225.31 74.745C227.705 74.575 230.089 74.345 232.474 74.035C233.882 73.855 235.3 73.645 236.688 73.365C237.407 73.225 238.127 73.055 238.785 72.745L238.816 72.725Z" fill="#F7CB9C"/>
<path d="M234.807 56.995C234.53 58.135 234.478 59.355 234.519 60.475C234.55 61.405 234.93 64.175 235.002 64.635C235.054 64.935 235.044 65.235 235.342 65.375C236.03 65.705 237.171 65.635 237.911 65.575C238.785 65.495 239.648 65.275 240.45 64.915C240.717 64.795 241.036 64.685 241.241 64.475C241.457 64.255 241.375 64.005 241.385 63.715C241.385 62.925 240.984 59.865 240.851 59.105C240.707 58.285 240.573 57.465 240.306 56.675C239.998 55.725 239.504 54.835 238.877 54.055C238.291 53.335 237.654 53.215 236.873 53.725C236.4 54.035 235.989 54.435 235.681 54.905C235.27 55.535 234.992 56.245 234.817 56.995H234.807Z" fill="#7CAFD1"/>
<path d="M218.711 83.005C218.711 83.425 218.567 83.715 218.341 83.845L217.961 84.085L218.012 83.925C217.889 83.915 217.766 83.875 217.632 83.805L216.234 83.005L203.582 75.805C202.975 75.465 202.811 74.555 202.492 73.795L199.625 66.065C199.542 65.805 199.522 65.595 199.553 65.435L199.378 65.385L199.686 65.195C199.82 65.105 200.005 65.115 200.262 65.265L214.343 73.265C214.343 73.265 214.405 73.295 214.436 73.315C215.011 73.685 215.638 74.535 215.864 75.275V75.295L218.711 82.995V83.005Z" fill="#B2B2B2"/>
<path d="M217.303 84.015L203.253 76.015C202.657 75.675 202.492 74.765 202.174 74.005L199.296 66.285C199.049 65.505 199.347 65.155 199.943 65.485L214.025 73.485C214.621 73.825 215.309 74.725 215.546 75.495L218.393 83.215C218.393 83.995 217.91 84.345 217.314 84.015H217.303Z" fill="#F2F2F9"/>
<path d="M164.391 207.495V209.575L166.087 210.555V208.465L164.391 207.495Z" fill="#F2A72E"/>
<path d="M166.087 208.465V210.555L170.414 208.155L170.424 206.075L166.087 208.465Z" fill="#F9B639"/>
<path d="M164.391 207.495L166.087 208.465L170.424 206.075L168.728 205.095L164.391 207.495Z" fill="#FFD350"/>
<path d="M191.782 189.365L191.823 185.265C191.813 186.375 192.563 187.495 194.064 188.355L194.023 192.455C192.522 191.595 191.772 190.475 191.782 189.365Z" fill="#FFC13B"/>
<path d="M217.272 188.115L217.231 192.215C217.221 193.315 216.47 194.405 214.99 195.225L215.031 191.125C216.511 190.295 217.262 189.205 217.272 188.105V188.115Z" fill="#F2A72E"/>
<path d="M215.022 191.125L214.991 195.225L212.257 196.745L212.298 192.645L215.022 191.125Z" fill="#F2A72E"/>
<path d="M201.475 192.575L201.434 196.675L194.023 192.445L194.065 188.355L201.475 192.575Z" fill="#FFC13B"/>
<path d="M215.032 185.025C218.023 186.735 218.013 189.465 215.032 191.125L212.298 192.645C209.307 194.315 204.466 194.275 201.475 192.575L194.065 188.345C191.074 186.635 191.074 183.915 194.065 182.245L196.799 180.725C199.79 179.065 204.631 179.095 207.622 180.795L215.032 185.025Z" fill="url(#paint0_linear_155_644)"/>
<path d="M201.475 192.575L201.434 196.675C204.425 198.385 209.266 198.415 212.257 196.745L212.298 192.645C209.307 194.315 204.466 194.275 201.475 192.575Z" fill="#F2A72E"/>
<path d="M206.285 193.855C204.527 193.765 202.811 193.345 201.475 192.575L201.434 196.675C202.78 197.445 204.497 197.865 206.264 197.955L206.295 193.855H206.285Z" fill="#F9B639"/>
<path d="M206.511 193.865C204.681 193.805 202.872 193.375 201.464 192.575L201.423 196.675C202.831 197.475 204.64 197.905 206.48 197.965L206.511 193.865Z" fill="#F9B639"/>
<path d="M196.716 191.265L160.845 211.235C161.143 211.075 161.544 211.095 161.986 211.355L197.857 191.385C197.415 191.135 197.004 191.105 196.716 191.265Z" fill="#F9B639"/>
<mask id="mask4_155_644" style="mask-type:luminance" maskUnits="userSpaceOnUse" x="160" y="191" width="38" height="21">
<path d="M196.716 191.265L160.845 211.235C161.143 211.075 161.544 211.095 161.986 211.355L197.857 191.385C197.415 191.135 197.004 191.105 196.716 191.265Z" fill="white"/>
</mask>
<g mask="url(#mask4_155_644)">
<path d="M161.986 211.355L197.857 191.385V191.375L161.976 211.355H161.986Z" fill="#F9B639"/>
<path d="M161.975 211.355L197.846 191.385C197.404 191.135 197.004 191.115 196.716 191.275L160.845 211.245C161.133 211.085 161.533 211.105 161.975 211.355Z" fill="#F9B639"/>
</g>
<path d="M163.095 215.075L198.966 195.105C199.254 194.945 199.439 194.595 199.439 194.105C199.439 193.115 198.74 191.895 197.856 191.385L161.985 211.355C162.869 211.865 163.578 213.075 163.568 214.075C163.568 214.565 163.383 214.915 163.095 215.075Z" fill="#F9B639"/>
<mask id="mask5_155_644" style="mask-type:luminance" maskUnits="userSpaceOnUse" x="161" y="191" width="39" height="25">
<path d="M163.095 215.075L198.966 195.105C199.254 194.945 199.439 194.595 199.439 194.105C199.439 193.115 198.74 191.895 197.856 191.385L161.985 211.355C162.869 211.865 163.578 213.075 163.568 214.075C163.568 214.565 163.383 214.915 163.095 215.075Z" fill="white"/>
</mask>
<g mask="url(#mask5_155_644)">
<path d="M163.096 215.075L198.967 195.105C199.142 195.005 199.275 194.855 199.347 194.635L163.476 214.605C163.394 214.825 163.26 214.975 163.096 215.075Z" fill="#F9B639"/>
<path d="M163.486 214.605L199.357 194.635C199.419 194.485 199.45 194.305 199.45 194.105C199.45 194.105 199.45 194.085 199.45 194.075L163.579 214.045C163.579 214.045 163.579 214.065 163.579 214.075C163.579 214.275 163.548 214.455 163.486 214.605Z" fill="#F9B639"/>
<path d="M163.568 214.045L199.439 194.075C199.439 193.825 199.388 193.565 199.306 193.295L163.435 213.265C163.517 213.525 163.568 213.795 163.568 214.045Z" fill="#F9B639"/>
<path d="M163.445 213.265L199.317 193.295C199.214 192.965 199.049 192.625 198.844 192.335L162.973 212.305C163.178 212.605 163.343 212.935 163.445 213.265Z" fill="#F9B639"/>
<path d="M162.973 212.305L198.844 192.335C198.71 192.135 198.556 191.955 198.392 191.795L162.521 211.765C162.685 211.925 162.839 212.105 162.973 212.305Z" fill="#F9B639"/>
<path d="M162.52 211.755L198.391 191.785C198.227 191.625 198.052 191.485 197.867 191.385L161.996 211.355C162.181 211.465 162.356 211.595 162.52 211.755Z" fill="#F9B639"/>
</g>
<path d="M161.985 211.355C161.101 210.855 160.372 211.245 160.361 212.245C160.361 213.235 161.06 214.455 161.944 214.955C162.828 215.465 163.558 215.065 163.568 214.075C163.568 213.085 162.869 211.865 161.985 211.355Z" fill="#F9B639"/>
<path d="M168.902 211.315L168.882 213.685L167.905 213.135L167.926 210.755L168.902 211.315Z" fill="#F9B639"/>
<path d="M178.77 212.365L178.749 214.735L177.927 214.265L177.947 211.895L178.77 212.365Z" fill="#F9B639"/>
<path d="M179.52 211.945L179.499 214.315L178.749 214.735L178.77 212.365L179.52 211.945Z" fill="#F2A72E"/>
<path d="M177.947 211.895L177.927 214.265L176.868 214.855L176.889 212.475L177.947 211.895Z" fill="#F2A72E"/>
<path d="M174.813 213.635L174.792 216.005L173.733 216.595L173.764 214.225L174.813 213.635Z" fill="#F2A72E"/>
<path d="M169.283 214.205L169.262 216.575L166.508 215.015L166.528 212.635L169.283 214.205Z" fill="#F9B639"/>
<path d="M170.619 213.465L170.589 215.835L169.263 216.575L169.283 214.205L170.619 213.465Z" fill="#F2A72E"/>
<path d="M178.358 213.315L178.338 215.685L176.262 216.845L176.282 214.475L178.358 213.315Z" fill="#F2A72E"/>
<path d="M176.282 214.475L176.262 216.845L174.792 216.005L174.813 213.635L176.282 214.475Z" fill="#F9B639"/>
<path d="M173.671 215.205L173.641 217.575L170.588 215.835L170.619 213.465L173.671 215.205Z" fill="#F9B639"/>
<path d="M179.52 211.945L178.77 212.365L177.947 211.895L176.889 212.475L178.359 213.315L176.282 214.475L174.813 213.635L173.764 214.225L174.586 214.695L173.672 215.205L170.619 213.465L169.283 214.205L166.528 212.635L168.903 211.315L167.926 210.755L171.873 208.565L172.849 209.125L173.723 208.635L179.52 211.945Z" fill="#FFD350"/>
<path d="M174.586 214.695L174.566 217.065L173.641 217.575L173.671 215.205L174.586 214.695Z" fill="#F2A72E"/>
<path d="M181.268 207.695L181.247 209.785L179.541 210.735L179.562 208.655L181.268 207.695Z" fill="#F2A72E"/>
<path d="M179.562 208.655L179.541 210.735L175.234 208.285L175.255 206.205L179.562 208.655Z" fill="#F9B639"/>
<path d="M181.268 207.695L179.561 208.655L175.255 206.205L176.971 205.245L181.268 207.695Z" fill="#FFD350"/>
<path d="M203.243 181.715C204.147 182.225 204.137 183.055 203.232 183.555C202.328 184.055 200.858 184.045 199.954 183.535C199.049 183.025 199.059 182.195 199.964 181.695C200.868 181.195 202.338 181.205 203.243 181.715Z" fill="#F2A72E"/>
</g>
<defs>
<linearGradient id="paint0_linear_155_644" x1="197.339" y1="179.573" x2="212.441" y2="195.478" gradientUnits="userSpaceOnUse">
<stop stop-color="#FFD350"/>
<stop offset="1" stop-color="#FFC13B"/>
</linearGradient>
<clipPath id="clip0_155_644">
<rect width="280" height="210.07" fill="white" transform="translate(0 34.965)"/>
</clipPath>
</defs>
</svg>
